<svg xmlns="http://www.w3.org/2000/svg" xmlns:xlink="http://www.w3.org/1999/xlink" width="500" zoomAndPan="magnify" viewBox="0 0 375 374.999991" height="500" preserveAspectRatio="xMidYMid meet" version="1.0"><defs><filter x="0%" y="0%" width="100%" height="100%" id="04c2eeee03"><feColorMatrix values="0 0 0 0 1 0 0 0 0 1 0 0 0 0 1 0 0 0 1 0" color-interpolation-filters="sRGB"/></filter><mask id="923a6d2004"><g filter="url(#04c2eeee03)"><rect x="-37.5" width="450" fill="#000000" y="-37.499999" height="449.999989" fill-opacity="0.7"/></g></mask><clipPath id="6492dfe850"><path d="M 0.320312 0.398438 L 283 0.398438 L 283 283 L 0.320312 283 Z M 0.320312 0.398438 " clip-rule="nonzero"/></clipPath><clipPath id="67d2b21931"><rect x="0" width="284" y="0" height="284"/></clipPath><mask id="c239804784"><g filter="url(#04c2eeee03)"><rect x="-37.5" width="450" fill="#000000" y="-37.499999" height="449.999989" fill-opacity="0.7"/></g></mask><clipPath id="77f41cc947"><path d="M 0.0390625 0.121094 L 305 0.121094 L 305 305.398438 L 0.0390625 305.398438 Z M 0.0390625 0.121094 " clip-rule="nonzero"/></clipPath><clipPath id="4093ace2c7"><rect x="0" width="306" y="0" height="306"/></clipPath></defs><path fill="#53b7d2" d="M 350.761719 202.535156 L 360.605469 192.730469 L 351.34375 182.382812 L 359.929688 171.453125 L 349.472656 162.304688 L 356.652344 150.402344 L 345.152344 142.605469 L 350.804688 129.910156 L 338.425781 123.597656 L 342.46875 110.296875 L 329.410156 105.5625 L 331.785156 91.863281 L 318.238281 88.769531 L 318.914062 74.886719 L 305.09375 73.46875 L 304.078125 59.609375 L 290.179688 59.886719 L 287.484375 46.261719 L 273.730469 48.234375 L 269.378906 35.042969 L 255.96875 38.683594 L 250.019531 26.128906 L 237.164062 31.410156 L 229.707031 19.683594 L 217.597656 26.511719 L 208.753906 15.789062 L 197.589844 24.054688 L 187.503906 14.492188 L 177.414062 24.054688 L 166.25 15.789062 L 157.402344 26.511719 L 145.292969 19.683594 L 137.839844 31.410156 L 124.980469 26.128906 L 119.035156 38.6875 L 105.625 35.042969 L 101.265625 48.238281 L 87.515625 46.257812 L 84.8125 59.886719 L 70.917969 59.609375 L 69.90625 73.46875 L 56.082031 74.886719 L 56.761719 88.769531 L 43.21875 91.863281 L 45.59375 105.5625 L 32.53125 110.296875 L 36.570312 123.59375 L 24.199219 129.910156 L 29.847656 142.605469 L 18.347656 150.40625 L 25.523438 162.304688 L 15.074219 171.453125 L 23.65625 182.382812 L 14.394531 192.730469 L 24.238281 202.542969 L 16.300781 213.945312 L 27.277344 222.476562 L 20.8125 234.777344 L 32.75 241.886719 L 27.851562 254.886719 L 40.578125 260.46875 L 37.324219 273.976562 L 50.640625 277.945312 L 49.074219 291.75 L 62.773438 294.058594 L 62.898438 307.949219 L 76.78125 308.5625 L 78.601562 322.332031 L 92.457031 321.257812 L 95.945312 334.707031 L 109.558594 331.925781 L 114.6875 344.84375 L 127.855469 340.414062 L 134.539062 352.601562 L 147.054688 346.578125 L 155.191406 357.847656 L 166.871094 350.316406 L 176.324219 360.503906 L 187.503906 351.1875 L 187.5 351.1875 L 198.675781 360.507812 L 208.132812 350.316406 L 219.8125 357.847656 L 227.945312 346.578125 L 240.464844 352.597656 L 247.148438 340.414062 L 260.3125 344.84375 L 265.433594 331.925781 L 279.054688 334.707031 L 282.546875 321.257812 L 296.398438 322.332031 L 298.214844 308.5625 L 312.101562 307.949219 L 312.222656 294.058594 L 325.933594 291.757812 L 324.363281 277.945312 L 337.675781 273.976562 L 334.421875 260.46875 L 347.148438 254.886719 L 342.25 241.886719 L 354.191406 234.777344 L 347.726562 222.476562 L 358.699219 213.945312 Z M 350.761719 202.535156 " fill-opacity="1" fill-rule="nonzero"/><g mask="url(#923a6d2004)"><g transform="matrix(1, 0, 0, 1, 46, 44)"><g clip-path="url(#67d2b21931)"><g clip-path="url(#6492dfe850)"><path fill="#ffffff" d="M 141.5 282.976562 C 63.886719 282.976562 0.746094 219.671875 0.746094 141.855469 C 0.746094 64.039062 63.886719 0.734375 141.5 0.734375 C 219.109375 0.734375 282.253906 64.039062 282.253906 141.855469 C 282.253906 219.671875 219.109375 282.976562 141.5 282.976562 Z M 141.5 9.804688 C 68.890625 9.804688 9.820312 69.042969 9.820312 141.855469 C 9.820312 214.667969 68.890625 273.910156 141.5 273.910156 C 214.109375 273.910156 273.179688 214.667969 273.179688 141.855469 C 273.179688 69.042969 214.109375 9.804688 141.5 9.804688 Z M 141.5 9.804688 " fill-opacity="1" fill-rule="nonzero"/></g></g></g></g><g mask="url(#c239804784)"><g transform="matrix(1, 0, 0, 1, 35, 33)"><g clip-path="url(#4093ace2c7)"><g clip-path="url(#77f41cc947)"><path fill="#ffffff" d="M 152.5 305.082031 C 68.5625 305.082031 0.273438 236.792969 0.273438 152.855469 C 0.273438 68.917969 68.5625 0.632812 152.5 0.632812 C 236.4375 0.632812 304.722656 68.917969 304.722656 152.855469 C 304.722656 236.792969 236.4375 305.082031 152.5 305.082031 Z M 152.5 7.433594 C 72.316406 7.433594 7.078125 72.671875 7.078125 152.855469 C 7.078125 233.039062 72.316406 298.277344 152.5 298.277344 C 232.683594 298.277344 297.917969 233.039062 297.917969 152.855469 C 297.917969 72.671875 232.683594 7.433594 152.5 7.433594 Z M 152.5 7.433594 " fill-opacity="1" fill-rule="nonzero"/></g></g></g></g></svg>