<svg xmlns="http://www.w3.org/2000/svg" xmlns:xlink="http://www.w3.org/1999/xlink" width="500" zoomAndPan="magnify" viewBox="0 0 375 374.999991" height="500" preserveAspectRatio="xMidYMid meet" version="1.0"><defs><g/></defs><g fill="#ffffff" fill-opacity="1"><g transform="translate(81.082176, 194.013328)"><g><path d="M 11.140625 -28.265625 L 10.875 -28.265625 C 10.65625 -25.867188 10.273438 -21.382812 9.734375 -14.8125 C 9.191406 -8.238281 8.921875 -4.660156 8.921875 -4.078125 C 8.921875 -2.953125 9.476562 -2.390625 10.59375 -2.390625 L 12.828125 -2.453125 L 12.9375 -2.234375 L 12.453125 0.21875 C 12.046875 0.175781 11.328125 0.128906 10.296875 0.078125 C 9.265625 0.0234375 8.222656 0 7.171875 0 C 6.265625 0 5.332031 0.0625 4.375 0.1875 C 3.414062 0.3125 2.789062 0.394531 2.5 0.4375 L 2.765625 -2.0625 C 3.929688 -2.207031 4.765625 -2.578125 5.265625 -3.171875 C 5.773438 -3.773438 6.101562 -4.800781 6.25 -6.25 C 6.613281 -9.65625 7.09375 -14.25 7.6875 -20.03125 C 8.289062 -25.8125 8.59375 -29.046875 8.59375 -29.734375 C 8.59375 -30.671875 8.21875 -31.375 7.46875 -31.84375 C 6.726562 -32.320312 5.539062 -32.613281 3.90625 -32.71875 L 3.75 -33 L 4.1875 -34.90625 C 4.65625 -34.863281 5.578125 -34.804688 6.953125 -34.734375 C 8.335938 -34.660156 9.390625 -34.625 10.109375 -34.625 C 10.765625 -34.625 11.476562 -34.648438 12.25 -34.703125 C 13.03125 -34.765625 13.550781 -34.8125 13.8125 -34.84375 C 15.257812 -30.164062 16.660156 -25.820312 18.015625 -21.8125 C 19.378906 -17.8125 20.492188 -14.632812 21.359375 -12.28125 C 22.234375 -9.925781 22.78125 -8.457031 23 -7.875 L 23.265625 -7.875 C 23.773438 -9.21875 24.9375 -12.40625 26.75 -17.4375 C 28.5625 -22.476562 30.535156 -28.242188 32.671875 -34.734375 C 32.671875 -34.773438 33.160156 -34.757812 34.140625 -34.6875 L 36.25 -34.625 C 36.945312 -34.625 37.984375 -34.671875 39.359375 -34.765625 C 40.734375 -34.859375 41.65625 -34.921875 42.125 -34.953125 L 42.234375 -34.734375 L 41.96875 -32.71875 C 40.40625 -32.539062 39.296875 -32.222656 38.640625 -31.765625 C 37.992188 -31.316406 37.671875 -30.640625 37.671875 -29.734375 C 37.671875 -28.929688 37.832031 -25.96875 38.15625 -20.84375 C 38.488281 -15.71875 38.796875 -11.289062 39.078125 -7.5625 C 39.265625 -6.070312 39.445312 -4.972656 39.625 -4.265625 C 39.8125 -3.554688 40.066406 -3.066406 40.390625 -2.796875 C 40.710938 -2.523438 41.164062 -2.390625 41.75 -2.390625 C 42.070312 -2.390625 42.378906 -2.40625 42.671875 -2.4375 C 42.960938 -2.476562 43.160156 -2.5 43.265625 -2.5 L 43.375 -2.28125 L 42.890625 0.15625 C 42.523438 0.125 41.84375 0.0859375 40.84375 0.046875 C 39.851562 0.015625 38.8125 0 37.71875 0 C 36.738281 0 35.640625 0.0625 34.421875 0.1875 C 33.210938 0.3125 32.429688 0.394531 32.078125 0.4375 L 32.296875 -2.0625 C 33.410156 -2.207031 34.222656 -2.5 34.734375 -2.9375 C 35.242188 -3.375 35.5 -3.988281 35.5 -4.78125 C 35.5 -5.539062 35.234375 -9.070312 34.703125 -15.375 C 34.179688 -21.6875 33.832031 -25.984375 33.65625 -28.265625 L 33.375 -28.265625 L 22.890625 0.65625 L 21.578125 1.03125 Z M 11.140625 -28.265625 "/></g></g></g><g fill="#ffffff" fill-opacity="1"><g transform="translate(129.564284, 194.013328)"><g><path d="M 17.234375 0.65625 C 14.296875 0.65625 11.6875 -0.0507812 9.40625 -1.46875 C 7.125 -2.882812 5.347656 -4.867188 4.078125 -7.421875 C 2.804688 -9.972656 2.171875 -12.878906 2.171875 -16.140625 C 2.171875 -19.691406 2.957031 -22.925781 4.53125 -25.84375 C 6.113281 -28.757812 8.269531 -31.0625 11 -32.75 C 13.738281 -34.4375 16.757812 -35.28125 20.0625 -35.28125 C 23.070312 -35.28125 25.734375 -34.570312 28.046875 -33.15625 C 30.367188 -31.75 32.179688 -29.773438 33.484375 -27.234375 C 34.785156 -24.691406 35.4375 -21.789062 35.4375 -18.53125 C 35.4375 -14.976562 34.628906 -11.734375 33.015625 -8.796875 C 31.410156 -5.867188 29.21875 -3.5625 26.4375 -1.875 C 23.664062 -0.1875 20.597656 0.65625 17.234375 0.65625 Z M 18.921875 -2.125 C 21.203125 -2.125 23.226562 -2.71875 25 -3.90625 C 26.78125 -5.101562 28.160156 -6.769531 29.140625 -8.90625 C 30.117188 -11.050781 30.609375 -13.5 30.609375 -16.25 C 30.609375 -19.332031 30.082031 -22.0625 29.03125 -24.4375 C 27.976562 -26.8125 26.519531 -28.664062 24.65625 -30 C 22.789062 -31.34375 20.640625 -32.015625 18.203125 -32.015625 C 15.992188 -32.015625 14.03125 -31.414062 12.3125 -30.21875 C 10.59375 -29.03125 9.25 -27.363281 8.28125 -25.21875 C 7.320312 -23.082031 6.84375 -20.640625 6.84375 -17.890625 C 6.84375 -14.804688 7.347656 -12.078125 8.359375 -9.703125 C 9.378906 -7.328125 10.804688 -5.46875 12.640625 -4.125 C 14.472656 -2.789062 16.566406 -2.125 18.921875 -2.125 Z M 18.921875 -2.125 "/></g></g></g><g fill="#ffffff" fill-opacity="1"><g transform="translate(169.621894, 194.013328)"><g><path d="M 11.140625 -28.265625 L 10.875 -28.265625 C 10.65625 -25.867188 10.273438 -21.382812 9.734375 -14.8125 C 9.191406 -8.238281 8.921875 -4.660156 8.921875 -4.078125 C 8.921875 -2.953125 9.476562 -2.390625 10.59375 -2.390625 L 12.828125 -2.453125 L 12.9375 -2.234375 L 12.453125 0.21875 C 12.046875 0.175781 11.328125 0.128906 10.296875 0.078125 C 9.265625 0.0234375 8.222656 0 7.171875 0 C 6.265625 0 5.332031 0.0625 4.375 0.1875 C 3.414062 0.3125 2.789062 0.394531 2.5 0.4375 L 2.765625 -2.0625 C 3.929688 -2.207031 4.765625 -2.578125 5.265625 -3.171875 C 5.773438 -3.773438 6.101562 -4.800781 6.25 -6.25 C 6.613281 -9.65625 7.09375 -14.25 7.6875 -20.03125 C 8.289062 -25.8125 8.59375 -29.046875 8.59375 -29.734375 C 8.59375 -30.671875 8.21875 -31.375 7.46875 -31.84375 C 6.726562 -32.320312 5.539062 -32.613281 3.90625 -32.71875 L 3.75 -33 L 4.1875 -34.90625 C 4.65625 -34.863281 5.578125 -34.804688 6.953125 -34.734375 C 8.335938 -34.660156 9.390625 -34.625 10.109375 -34.625 C 10.765625 -34.625 11.476562 -34.648438 12.25 -34.703125 C 13.03125 -34.765625 13.550781 -34.8125 13.8125 -34.84375 C 15.257812 -30.164062 16.660156 -25.820312 18.015625 -21.8125 C 19.378906 -17.8125 20.492188 -14.632812 21.359375 -12.28125 C 22.234375 -9.925781 22.78125 -8.457031 23 -7.875 L 23.265625 -7.875 C 23.773438 -9.21875 24.9375 -12.40625 26.75 -17.4375 C 28.5625 -22.476562 30.535156 -28.242188 32.671875 -34.734375 C 32.671875 -34.773438 33.160156 -34.757812 34.140625 -34.6875 L 36.25 -34.625 C 36.945312 -34.625 37.984375 -34.671875 39.359375 -34.765625 C 40.734375 -34.859375 41.65625 -34.921875 42.125 -34.953125 L 42.234375 -34.734375 L 41.96875 -32.71875 C 40.40625 -32.539062 39.296875 -32.222656 38.640625 -31.765625 C 37.992188 -31.316406 37.671875 -30.640625 37.671875 -29.734375 C 37.671875 -28.929688 37.832031 -25.96875 38.15625 -20.84375 C 38.488281 -15.71875 38.796875 -11.289062 39.078125 -7.5625 C 39.265625 -6.070312 39.445312 -4.972656 39.625 -4.265625 C 39.8125 -3.554688 40.066406 -3.066406 40.390625 -2.796875 C 40.710938 -2.523438 41.164062 -2.390625 41.75 -2.390625 C 42.070312 -2.390625 42.378906 -2.40625 42.671875 -2.4375 C 42.960938 -2.476562 43.160156 -2.5 43.265625 -2.5 L 43.375 -2.28125 L 42.890625 0.15625 C 42.523438 0.125 41.84375 0.0859375 40.84375 0.046875 C 39.851562 0.015625 38.8125 0 37.71875 0 C 36.738281 0 35.640625 0.0625 34.421875 0.1875 C 33.210938 0.3125 32.429688 0.394531 32.078125 0.4375 L 32.296875 -2.0625 C 33.410156 -2.207031 34.222656 -2.5 34.734375 -2.9375 C 35.242188 -3.375 35.5 -3.988281 35.5 -4.78125 C 35.5 -5.539062 35.234375 -9.070312 34.703125 -15.375 C 34.179688 -21.6875 33.832031 -25.984375 33.65625 -28.265625 L 33.375 -28.265625 L 22.890625 0.65625 L 21.578125 1.03125 Z M 11.140625 -28.265625 "/></g></g></g><g fill="#ffffff" fill-opacity="1"><g transform="translate(218.103996, 194.013328)"><g><path d="M 11.140625 -28.265625 L 10.875 -28.265625 C 10.65625 -25.867188 10.273438 -21.382812 9.734375 -14.8125 C 9.191406 -8.238281 8.921875 -4.660156 8.921875 -4.078125 C 8.921875 -2.953125 9.476562 -2.390625 10.59375 -2.390625 L 12.828125 -2.453125 L 12.9375 -2.234375 L 12.453125 0.21875 C 12.046875 0.175781 11.328125 0.128906 10.296875 0.078125 C 9.265625 0.0234375 8.222656 0 7.171875 0 C 6.265625 0 5.332031 0.0625 4.375 0.1875 C 3.414062 0.3125 2.789062 0.394531 2.5 0.4375 L 2.765625 -2.0625 C 3.929688 -2.207031 4.765625 -2.578125 5.265625 -3.171875 C 5.773438 -3.773438 6.101562 -4.800781 6.25 -6.25 C 6.613281 -9.65625 7.09375 -14.25 7.6875 -20.03125 C 8.289062 -25.8125 8.59375 -29.046875 8.59375 -29.734375 C 8.59375 -30.671875 8.21875 -31.375 7.46875 -31.84375 C 6.726562 -32.320312 5.539062 -32.613281 3.90625 -32.71875 L 3.75 -33 L 4.1875 -34.90625 C 4.65625 -34.863281 5.578125 -34.804688 6.953125 -34.734375 C 8.335938 -34.660156 9.390625 -34.625 10.109375 -34.625 C 10.765625 -34.625 11.476562 -34.648438 12.25 -34.703125 C 13.03125 -34.765625 13.550781 -34.8125 13.8125 -34.84375 C 15.257812 -30.164062 16.660156 -25.820312 18.015625 -21.8125 C 19.378906 -17.8125 20.492188 -14.632812 21.359375 -12.28125 C 22.234375 -9.925781 22.78125 -8.457031 23 -7.875 L 23.265625 -7.875 C 23.773438 -9.21875 24.9375 -12.40625 26.75 -17.4375 C 28.5625 -22.476562 30.535156 -28.242188 32.671875 -34.734375 C 32.671875 -34.773438 33.160156 -34.757812 34.140625 -34.6875 L 36.25 -34.625 C 36.945312 -34.625 37.984375 -34.671875 39.359375 -34.765625 C 40.734375 -34.859375 41.65625 -34.921875 42.125 -34.953125 L 42.234375 -34.734375 L 41.96875 -32.71875 C 40.40625 -32.539062 39.296875 -32.222656 38.640625 -31.765625 C 37.992188 -31.316406 37.671875 -30.640625 37.671875 -29.734375 C 37.671875 -28.929688 37.832031 -25.96875 38.15625 -20.84375 C 38.488281 -15.71875 38.796875 -11.289062 39.078125 -7.5625 C 39.265625 -6.070312 39.445312 -4.972656 39.625 -4.265625 C 39.8125 -3.554688 40.066406 -3.066406 40.390625 -2.796875 C 40.710938 -2.523438 41.164062 -2.390625 41.75 -2.390625 C 42.070312 -2.390625 42.378906 -2.40625 42.671875 -2.4375 C 42.960938 -2.476562 43.160156 -2.5 43.265625 -2.5 L 43.375 -2.28125 L 42.890625 0.15625 C 42.523438 0.125 41.84375 0.0859375 40.84375 0.046875 C 39.851562 0.015625 38.8125 0 37.71875 0 C 36.738281 0 35.640625 0.0625 34.421875 0.1875 C 33.210938 0.3125 32.429688 0.394531 32.078125 0.4375 L 32.296875 -2.0625 C 33.410156 -2.207031 34.222656 -2.5 34.734375 -2.9375 C 35.242188 -3.375 35.5 -3.988281 35.5 -4.78125 C 35.5 -5.539062 35.234375 -9.070312 34.703125 -15.375 C 34.179688 -21.6875 33.832031 -25.984375 33.65625 -28.265625 L 33.375 -28.265625 L 22.890625 0.65625 L 21.578125 1.03125 Z M 11.140625 -28.265625 "/></g></g></g><g fill="#ffffff" fill-opacity="1"><g transform="translate(266.586109, 194.013328)"><g><path d="M 8.15625 -1.84375 C 9.457031 -2.101562 10.394531 -2.429688 10.96875 -2.828125 C 11.550781 -3.222656 11.929688 -3.765625 12.109375 -4.453125 C 12.296875 -5.140625 12.390625 -6.226562 12.390625 -7.71875 L 12.390625 -10.109375 C 12.390625 -11.234375 12.28125 -12.21875 12.0625 -13.0625 C 11.84375 -13.914062 11.425781 -14.976562 10.8125 -16.25 L 5.921875 -26.203125 C 4.984375 -28.117188 4.3125 -29.410156 3.90625 -30.078125 C 3.507812 -30.753906 2.945312 -31.289062 2.21875 -31.6875 C 1.5 -32.09375 0.453125 -32.347656 -0.921875 -32.453125 L -1.03125 -32.671875 L -0.703125 -34.796875 C -0.304688 -34.753906 0.453125 -34.710938 1.578125 -34.671875 C 2.703125 -34.640625 3.929688 -34.625 5.265625 -34.625 C 6.535156 -34.625 8.015625 -34.6875 9.703125 -34.8125 C 11.390625 -34.9375 12.484375 -35.019531 12.984375 -35.0625 L 13.15625 -34.6875 L 12.984375 -32.78125 C 11.359375 -32.632812 10.265625 -32.425781 9.703125 -32.15625 C 9.140625 -31.882812 8.859375 -31.441406 8.859375 -30.828125 C 8.859375 -30.347656 9.3125 -29.054688 10.21875 -26.953125 C 11.125 -24.859375 12.054688 -22.796875 13.015625 -20.765625 C 13.972656 -18.734375 14.617188 -17.410156 14.953125 -16.796875 L 15.21875 -16.796875 L 21.421875 -28.328125 C 21.992188 -29.367188 22.28125 -30.273438 22.28125 -31.046875 C 22.28125 -31.984375 21.140625 -32.523438 18.859375 -32.671875 L 18.75 -32.890625 L 19.078125 -35 C 19.515625 -34.96875 20.421875 -34.894531 21.796875 -34.78125 C 23.171875 -34.675781 24.273438 -34.625 25.109375 -34.625 C 25.984375 -34.625 26.953125 -34.648438 28.015625 -34.703125 C 29.085938 -34.765625 29.785156 -34.8125 30.109375 -34.84375 L 30.328125 -34.46875 L 30 -32.453125 C 28.84375 -32.234375 27.9375 -31.929688 27.28125 -31.546875 C 26.632812 -31.171875 26.066406 -30.628906 25.578125 -29.921875 C 25.085938 -29.210938 24.367188 -28.023438 23.421875 -26.359375 C 23.210938 -25.929688 23.035156 -25.609375 22.890625 -25.390625 L 17.453125 -15.8125 C 16.984375 -14.976562 16.679688 -14.035156 16.546875 -12.984375 C 16.421875 -11.941406 16.320312 -10.039062 16.25 -7.28125 L 16.25 -6.09375 C 16.21875 -4.675781 16.375 -3.703125 16.71875 -3.171875 C 17.0625 -2.648438 17.703125 -2.390625 18.640625 -2.390625 C 19.222656 -2.390625 19.765625 -2.40625 20.265625 -2.4375 C 20.773438 -2.476562 21.125 -2.519531 21.3125 -2.5625 L 21.421875 -2.34375 L 20.921875 0.15625 C 20.421875 0.125 19.488281 0.0859375 18.125 0.046875 C 16.769531 0.015625 15.40625 0 14.03125 0 C 12.90625 0 11.6875 0.0859375 10.375 0.265625 C 9.070312 0.453125 8.222656 0.582031 7.828125 0.65625 Z M 8.15625 -1.84375 "/></g></g></g><g fill="#ffffff" fill-opacity="1"><g transform="translate(147.66811, 245.763325)"><g><path d="M 35.359375 -1.40625 C 38.429688 -3.8125 41.203125 -6.367188 43.671875 -9.078125 C 46.140625 -11.785156 48.234375 -14.523438 49.953125 -17.296875 C 51.679688 -20.066406 53.003906 -22.828125 53.921875 -25.578125 C 54.847656 -28.328125 55.3125 -30.945312 55.3125 -33.4375 C 55.3125 -34.894531 55.15625 -36.25 54.84375 -37.5 C 54.539062 -38.757812 54.097656 -39.84375 53.515625 -40.75 C 52.929688 -41.664062 52.226562 -42.382812 51.40625 -42.90625 C 50.582031 -43.425781 49.65625 -43.6875 48.625 -43.6875 L 48.125 -43.6875 C 47.820312 -43.6875 47.566406 -43.773438 47.359375 -43.953125 C 47.160156 -44.128906 47.0625 -44.367188 47.0625 -44.671875 C 47.0625 -45.097656 47.210938 -45.375 47.515625 -45.5 C 47.828125 -45.632812 48.179688 -45.703125 48.578125 -45.703125 C 49.867188 -45.703125 51.050781 -45.398438 52.125 -44.796875 C 53.207031 -44.203125 54.128906 -43.363281 54.890625 -42.28125 C 55.648438 -41.195312 56.242188 -39.921875 56.671875 -38.453125 C 57.097656 -36.984375 57.3125 -35.394531 57.3125 -33.6875 C 57.3125 -30.882812 56.828125 -28.007812 55.859375 -25.0625 C 54.890625 -22.125 53.460938 -19.160156 51.578125 -16.171875 C 49.703125 -13.191406 47.367188 -10.222656 44.578125 -7.265625 C 41.785156 -4.316406 38.578125 -1.4375 34.953125 1.375 C 34.867188 1.445312 34.753906 1.523438 34.609375 1.609375 C 34.472656 1.703125 34.304688 1.75 34.109375 1.75 C 33.773438 1.75 33.523438 1.640625 33.359375 1.421875 C 33.203125 1.203125 33.125 0.941406 33.125 0.640625 C 33.125 0.515625 33.132812 0.257812 33.15625 -0.125 C 33.1875 -0.519531 33.21875 -1 33.25 -1.5625 C 33.289062 -2.132812 33.335938 -2.757812 33.390625 -3.4375 C 33.441406 -4.113281 33.484375 -4.800781 33.515625 -5.5 C 33.554688 -6.207031 33.585938 -6.882812 33.609375 -7.53125 C 33.640625 -8.1875 33.65625 -8.773438 33.65625 -9.296875 C 33.675781 -13.171875 33.382812 -16.75 32.78125 -20.03125 C 32.175781 -23.3125 31.21875 -26.15625 29.90625 -28.5625 C 28.601562 -30.96875 26.921875 -32.847656 24.859375 -34.203125 C 22.796875 -35.554688 20.304688 -36.234375 17.390625 -36.234375 C 15.210938 -36.234375 13.296875 -35.9375 11.640625 -35.34375 C 9.984375 -34.75 8.597656 -33.960938 7.484375 -32.984375 C 6.367188 -32.015625 5.523438 -30.914062 4.953125 -29.6875 C 4.390625 -28.457031 4.109375 -27.207031 4.109375 -25.9375 C 4.109375 -24.800781 4.296875 -23.785156 4.671875 -22.890625 C 5.054688 -21.992188 5.582031 -21.234375 6.25 -20.609375 C 6.914062 -19.984375 7.695312 -19.503906 8.59375 -19.171875 C 9.5 -18.847656 10.472656 -18.6875 11.515625 -18.6875 C 12.398438 -18.6875 13.203125 -18.78125 13.921875 -18.96875 C 14.648438 -19.164062 15.269531 -19.382812 15.78125 -19.625 C 16.300781 -19.863281 16.707031 -20.082031 17 -20.28125 C 17.289062 -20.488281 17.453125 -20.613281 17.484375 -20.65625 C 17.578125 -20.738281 17.679688 -20.789062 17.796875 -20.8125 C 17.910156 -20.84375 18.019531 -20.859375 18.125 -20.859375 C 18.394531 -20.859375 18.625 -20.773438 18.8125 -20.609375 C 19.007812 -20.441406 19.109375 -20.21875 19.109375 -19.9375 C 19.109375 -19.59375 18.992188 -19.332031 18.765625 -19.15625 C 18.734375 -19.125 18.539062 -18.976562 18.1875 -18.71875 C 17.832031 -18.46875 17.335938 -18.195312 16.703125 -17.90625 C 16.078125 -17.613281 15.320312 -17.34375 14.4375 -17.09375 C 13.550781 -16.84375 12.570312 -16.71875 11.5 -16.71875 C 10.164062 -16.71875 8.921875 -16.9375 7.765625 -17.375 C 6.617188 -17.820312 5.628906 -18.453125 4.796875 -19.265625 C 3.972656 -20.078125 3.320312 -21.046875 2.84375 -22.171875 C 2.363281 -23.296875 2.125 -24.539062 2.125 -25.90625 C 2.125 -27.425781 2.453125 -28.921875 3.109375 -30.390625 C 3.765625 -31.859375 4.734375 -33.164062 6.015625 -34.3125 C 7.296875 -35.46875 8.878906 -36.394531 10.765625 -37.09375 C 12.648438 -37.789062 14.832031 -38.140625 17.3125 -38.140625 C 20.507812 -38.140625 23.257812 -37.441406 25.5625 -36.046875 C 27.875 -34.660156 29.773438 -32.703125 31.265625 -30.171875 C 32.765625 -27.648438 33.875 -24.601562 34.59375 -21.03125 C 35.3125 -17.46875 35.671875 -13.507812 35.671875 -9.15625 C 35.671875 -7.9375 35.644531 -6.675781 35.59375 -5.375 C 35.539062 -4.070312 35.460938 -2.75 35.359375 -1.40625 Z M 35.359375 -1.40625 "/></g></g></g><g fill="#ffffff" fill-opacity="1"><g transform="translate(206.350256, 245.763325)"><g><path d="M 3.953125 -31.109375 C 3.921875 -30.859375 3.804688 -30.648438 3.609375 -30.484375 C 3.410156 -30.316406 3.191406 -30.234375 2.953125 -30.234375 C 2.703125 -30.234375 2.472656 -30.328125 2.265625 -30.515625 C 2.066406 -30.710938 1.96875 -30.960938 1.96875 -31.265625 C 1.96875 -31.335938 1.96875 -31.410156 1.96875 -31.484375 C 1.976562 -31.566406 1.992188 -31.671875 2.015625 -31.796875 L 2.6875 -37.3125 C 2.71875 -37.582031 2.828125 -37.796875 3.015625 -37.953125 C 3.210938 -38.109375 3.4375 -38.1875 3.6875 -38.1875 C 3.988281 -38.1875 4.226562 -38.082031 4.40625 -37.875 C 4.582031 -37.675781 4.671875 -37.445312 4.671875 -37.1875 C 4.671875 -37.113281 4.65625 -36.957031 4.625 -36.71875 C 4.601562 -36.476562 4.582031 -36.296875 4.5625 -36.171875 Z M 3.953125 -31.109375 "/></g></g></g><g fill="#ffffff" fill-opacity="1"><g transform="translate(215.431297, 245.763325)"><g><path d="M 3.953125 -9.828125 C 3.847656 -9.535156 3.71875 -9.210938 3.5625 -8.859375 C 3.414062 -8.503906 3.242188 -8.132812 3.046875 -7.75 C 2.890625 -7.445312 2.726562 -7.210938 2.5625 -7.046875 C 2.394531 -6.878906 2.175781 -6.796875 1.90625 -6.796875 C 1.601562 -6.796875 1.363281 -6.890625 1.1875 -7.078125 C 1.007812 -7.265625 0.921875 -7.476562 0.921875 -7.71875 C 0.921875 -7.8125 0.929688 -7.890625 0.953125 -7.953125 C 0.972656 -8.015625 1.019531 -8.113281 1.09375 -8.25 C 1.550781 -9.132812 1.890625 -9.910156 2.109375 -10.578125 C 2.328125 -11.242188 2.507812 -11.9375 2.65625 -12.65625 C 2.53125 -13.0625 2.441406 -13.40625 2.390625 -13.6875 C 2.335938 -13.976562 2.3125 -14.273438 2.3125 -14.578125 C 2.3125 -15.160156 2.429688 -15.628906 2.671875 -15.984375 C 2.921875 -16.347656 3.269531 -16.53125 3.71875 -16.53125 C 4.125 -16.53125 4.445312 -16.351562 4.6875 -16 C 4.925781 -15.644531 5.046875 -15.210938 5.046875 -14.703125 C 5.046875 -14.421875 5.019531 -14.140625 4.96875 -13.859375 C 4.914062 -13.578125 4.84375 -13.222656 4.75 -12.796875 C 5.15625 -11.785156 5.5625 -10.890625 5.96875 -10.109375 C 6.375 -9.328125 6.734375 -8.613281 7.046875 -7.96875 C 7.367188 -7.320312 7.632812 -6.71875 7.84375 -6.15625 C 8.050781 -5.59375 8.15625 -5.023438 8.15625 -4.453125 C 8.15625 -3.710938 8.003906 -3.003906 7.703125 -2.328125 C 7.398438 -1.660156 6.90625 -1.097656 6.21875 -0.640625 C 6.300781 -0.617188 6.382812 -0.609375 6.46875 -0.609375 C 6.5625 -0.609375 6.648438 -0.609375 6.734375 -0.609375 C 7.742188 -0.609375 8.671875 -0.835938 9.515625 -1.296875 C 10.367188 -1.753906 11.132812 -2.347656 11.8125 -3.078125 C 12.5 -3.816406 13.109375 -4.632812 13.640625 -5.53125 C 14.171875 -6.425781 14.628906 -7.316406 15.015625 -8.203125 C 15.191406 -8.609375 15.441406 -8.8125 15.765625 -8.8125 C 16.066406 -8.8125 16.300781 -8.703125 16.46875 -8.484375 C 16.632812 -8.273438 16.71875 -8.046875 16.71875 -7.796875 C 16.71875 -7.660156 16.691406 -7.53125 16.640625 -7.40625 C 16.441406 -6.925781 16.1875 -6.378906 15.875 -5.765625 C 15.570312 -5.160156 15.203125 -4.535156 14.765625 -3.890625 C 14.335938 -3.242188 13.835938 -2.609375 13.265625 -1.984375 C 12.703125 -1.367188 12.070312 -0.816406 11.375 -0.328125 C 10.675781 0.148438 9.910156 0.535156 9.078125 0.828125 C 8.242188 1.128906 7.332031 1.28125 6.34375 1.28125 C 5.15625 1.28125 4.050781 1.070312 3.03125 0.65625 C 2.019531 0.238281 1.195312 -0.445312 0.5625 -1.40625 C 0.445312 -1.5625 0.390625 -1.726562 0.390625 -1.90625 C 0.390625 -2.175781 0.492188 -2.410156 0.703125 -2.609375 C 0.910156 -2.816406 1.144531 -2.921875 1.40625 -2.921875 C 1.6875 -2.921875 1.925781 -2.820312 2.125 -2.625 C 2.144531 -2.59375 2.207031 -2.535156 2.3125 -2.453125 C 2.414062 -2.367188 2.539062 -2.28125 2.6875 -2.1875 C 2.84375 -2.09375 3.019531 -2.007812 3.21875 -1.9375 C 3.425781 -1.863281 3.632812 -1.828125 3.84375 -1.828125 C 4.269531 -1.828125 4.628906 -1.914062 4.921875 -2.09375 C 5.210938 -2.269531 5.445312 -2.484375 5.625 -2.734375 C 5.800781 -2.992188 5.925781 -3.269531 6 -3.5625 C 6.082031 -3.863281 6.125 -4.117188 6.125 -4.328125 C 6.125 -4.765625 6.050781 -5.203125 5.90625 -5.640625 C 5.769531 -6.085938 5.59375 -6.53125 5.375 -6.96875 C 5.15625 -7.414062 4.914062 -7.875 4.65625 -8.34375 C 4.394531 -8.8125 4.160156 -9.304688 3.953125 -9.828125 Z M 3.953125 -9.828125 "/></g></g></g></svg>