<svg xmlns="http://www.w3.org/2000/svg" xmlns:xlink="http://www.w3.org/1999/xlink" width="500" zoomAndPan="magnify" viewBox="0 0 375 374.999991" height="500" preserveAspectRatio="xMidYMid meet" version="1.0"><defs><g/></defs><g fill="#ffd4d7" fill-opacity="1"><g transform="translate(84.022901, 264.834406)"><g><path d="M 9.34375 0 L 7.984375 0 L 7.984375 -4.5625 L 2.578125 -4.5625 L 2.578125 0 L 1.21875 0 L 1.21875 -10.015625 L 2.578125 -10.015625 L 2.578125 -5.546875 L 7.984375 -5.546875 L 7.984375 -10.015625 L 9.34375 -10.015625 Z M 9.34375 0 "/></g></g></g><g fill="#ffd4d7" fill-opacity="1"><g transform="translate(96.273909, 264.834406)"><g><path d="M 10.515625 -5 C 10.515625 -4.25 10.394531 -3.5625 10.15625 -2.9375 C 9.925781 -2.3125 9.59375 -1.769531 9.15625 -1.3125 C 8.726562 -0.863281 8.207031 -0.515625 7.59375 -0.265625 C 6.988281 -0.015625 6.316406 0.109375 5.578125 0.109375 C 4.835938 0.109375 4.164062 -0.015625 3.5625 -0.265625 C 2.957031 -0.515625 2.4375 -0.863281 2 -1.3125 C 1.570312 -1.769531 1.238281 -2.3125 1 -2.9375 C 0.757812 -3.5625 0.640625 -4.25 0.640625 -5 C 0.640625 -5.75 0.757812 -6.4375 1 -7.0625 C 1.238281 -7.695312 1.570312 -8.238281 2 -8.6875 C 2.4375 -9.144531 2.957031 -9.5 3.5625 -9.75 C 4.164062 -10 4.835938 -10.125 5.578125 -10.125 C 6.316406 -10.125 6.988281 -10 7.59375 -9.75 C 8.207031 -9.5 8.726562 -9.144531 9.15625 -8.6875 C 9.59375 -8.238281 9.925781 -7.695312 10.15625 -7.0625 C 10.394531 -6.4375 10.515625 -5.75 10.515625 -5 Z M 9.125 -5 C 9.125 -5.613281 9.039062 -6.164062 8.875 -6.65625 C 8.707031 -7.144531 8.46875 -7.554688 8.15625 -7.890625 C 7.851562 -8.234375 7.484375 -8.492188 7.046875 -8.671875 C 6.609375 -8.859375 6.117188 -8.953125 5.578125 -8.953125 C 5.046875 -8.953125 4.5625 -8.859375 4.125 -8.671875 C 3.6875 -8.492188 3.3125 -8.234375 3 -7.890625 C 2.6875 -7.554688 2.445312 -7.144531 2.28125 -6.65625 C 2.113281 -6.164062 2.03125 -5.613281 2.03125 -5 C 2.03125 -4.382812 2.113281 -3.832031 2.28125 -3.34375 C 2.445312 -2.863281 2.6875 -2.453125 3 -2.109375 C 3.3125 -1.773438 3.6875 -1.515625 4.125 -1.328125 C 4.5625 -1.148438 5.046875 -1.0625 5.578125 -1.0625 C 6.117188 -1.0625 6.609375 -1.148438 7.046875 -1.328125 C 7.484375 -1.515625 7.851562 -1.773438 8.15625 -2.109375 C 8.46875 -2.453125 8.707031 -2.863281 8.875 -3.34375 C 9.039062 -3.832031 9.125 -4.382812 9.125 -5 Z M 9.125 -5 "/></g></g></g><g fill="#ffd4d7" fill-opacity="1"><g transform="translate(109.11219, 264.834406)"><g><path d="M 6.140625 -3.625 C 6.210938 -3.507812 6.269531 -3.390625 6.3125 -3.265625 C 6.363281 -3.140625 6.410156 -3.015625 6.453125 -2.890625 C 6.503906 -3.023438 6.554688 -3.148438 6.609375 -3.265625 C 6.660156 -3.390625 6.71875 -3.507812 6.78125 -3.625 L 10.171875 -9.78125 C 10.234375 -9.894531 10.296875 -9.960938 10.359375 -9.984375 C 10.421875 -10.003906 10.515625 -10.015625 10.640625 -10.015625 L 11.640625 -10.015625 L 11.640625 0 L 10.453125 0 L 10.453125 -7.359375 C 10.453125 -7.460938 10.453125 -7.566406 10.453125 -7.671875 C 10.460938 -7.785156 10.472656 -7.898438 10.484375 -8.015625 L 7.046875 -1.75 C 6.929688 -1.539062 6.769531 -1.4375 6.5625 -1.4375 L 6.359375 -1.4375 C 6.148438 -1.4375 5.988281 -1.539062 5.875 -1.75 L 2.359375 -8.046875 C 2.378906 -7.921875 2.390625 -7.800781 2.390625 -7.6875 C 2.398438 -7.570312 2.40625 -7.460938 2.40625 -7.359375 L 2.40625 0 L 1.21875 0 L 1.21875 -10.015625 L 2.21875 -10.015625 C 2.332031 -10.015625 2.421875 -10.003906 2.484375 -9.984375 C 2.554688 -9.960938 2.625 -9.894531 2.6875 -9.78125 Z M 6.140625 -3.625 "/></g></g></g><g fill="#ffd4d7" fill-opacity="1"><g transform="translate(123.65637, 264.834406)"><g><path d="M 7.390625 -10.015625 L 7.390625 -8.921875 L 2.578125 -8.921875 L 2.578125 -5.59375 L 6.46875 -5.59375 L 6.46875 -4.53125 L 2.578125 -4.53125 L 2.578125 -1.109375 L 7.390625 -1.109375 L 7.390625 0 L 1.21875 0 L 1.21875 -10.015625 Z M 7.390625 -10.015625 "/></g></g></g><g fill="#ffd4d7" fill-opacity="1"><g transform="translate(133.460385, 264.834406)"><g><path d="M 6.140625 -3.625 C 6.210938 -3.507812 6.269531 -3.390625 6.3125 -3.265625 C 6.363281 -3.140625 6.410156 -3.015625 6.453125 -2.890625 C 6.503906 -3.023438 6.554688 -3.148438 6.609375 -3.265625 C 6.660156 -3.390625 6.71875 -3.507812 6.78125 -3.625 L 10.171875 -9.78125 C 10.234375 -9.894531 10.296875 -9.960938 10.359375 -9.984375 C 10.421875 -10.003906 10.515625 -10.015625 10.640625 -10.015625 L 11.640625 -10.015625 L 11.640625 0 L 10.453125 0 L 10.453125 -7.359375 C 10.453125 -7.460938 10.453125 -7.566406 10.453125 -7.671875 C 10.460938 -7.785156 10.472656 -7.898438 10.484375 -8.015625 L 7.046875 -1.75 C 6.929688 -1.539062 6.769531 -1.4375 6.5625 -1.4375 L 6.359375 -1.4375 C 6.148438 -1.4375 5.988281 -1.539062 5.875 -1.75 L 2.359375 -8.046875 C 2.378906 -7.921875 2.390625 -7.800781 2.390625 -7.6875 C 2.398438 -7.570312 2.40625 -7.460938 2.40625 -7.359375 L 2.40625 0 L 1.21875 0 L 1.21875 -10.015625 L 2.21875 -10.015625 C 2.332031 -10.015625 2.421875 -10.003906 2.484375 -9.984375 C 2.554688 -9.960938 2.625 -9.894531 2.6875 -9.78125 Z M 6.140625 -3.625 "/></g></g></g><g fill="#ffd4d7" fill-opacity="1"><g transform="translate(148.004567, 264.834406)"><g><path d="M 9.453125 0 L 8.40625 0 C 8.289062 0 8.191406 -0.03125 8.109375 -0.09375 C 8.035156 -0.15625 7.984375 -0.234375 7.953125 -0.328125 L 7.015625 -2.734375 L 2.515625 -2.734375 L 1.578125 -0.328125 C 1.546875 -0.242188 1.488281 -0.164062 1.40625 -0.09375 C 1.332031 -0.03125 1.238281 0 1.125 0 L 0.0625 0 L 4.078125 -10.015625 L 5.453125 -10.015625 Z M 2.890625 -3.71875 L 6.640625 -3.71875 L 5.0625 -7.796875 C 4.957031 -8.046875 4.859375 -8.359375 4.765625 -8.734375 C 4.710938 -8.546875 4.660156 -8.367188 4.609375 -8.203125 C 4.554688 -8.046875 4.507812 -7.910156 4.46875 -7.796875 Z M 2.890625 -3.71875 "/></g></g></g><g fill="#ffd4d7" fill-opacity="1"><g transform="translate(159.192872, 264.834406)"><g><path d="M 9.90625 -5 C 9.90625 -4.25 9.785156 -3.566406 9.546875 -2.953125 C 9.304688 -2.335938 8.96875 -1.8125 8.53125 -1.375 C 8.101562 -0.9375 7.582031 -0.597656 6.96875 -0.359375 C 6.363281 -0.117188 5.695312 0 4.96875 0 L 1.21875 0 L 1.21875 -10.015625 L 4.96875 -10.015625 C 5.695312 -10.015625 6.363281 -9.894531 6.96875 -9.65625 C 7.582031 -9.414062 8.101562 -9.078125 8.53125 -8.640625 C 8.96875 -8.203125 9.304688 -7.671875 9.546875 -7.046875 C 9.785156 -6.429688 9.90625 -5.75 9.90625 -5 Z M 8.515625 -5 C 8.515625 -5.613281 8.425781 -6.164062 8.25 -6.65625 C 8.082031 -7.144531 7.84375 -7.554688 7.53125 -7.890625 C 7.226562 -8.222656 6.859375 -8.476562 6.421875 -8.65625 C 5.984375 -8.832031 5.5 -8.921875 4.96875 -8.921875 L 2.578125 -8.921875 L 2.578125 -1.09375 L 4.96875 -1.09375 C 5.5 -1.09375 5.984375 -1.179688 6.421875 -1.359375 C 6.859375 -1.535156 7.226562 -1.789062 7.53125 -2.125 C 7.84375 -2.457031 8.082031 -2.863281 8.25 -3.34375 C 8.425781 -3.832031 8.515625 -4.382812 8.515625 -5 Z M 8.515625 -5 "/></g></g></g><g fill="#ffd4d7" fill-opacity="1"><g transform="translate(171.40192, 264.834406)"><g><path d="M 7.390625 -10.015625 L 7.390625 -8.921875 L 2.578125 -8.921875 L 2.578125 -5.59375 L 6.46875 -5.59375 L 6.46875 -4.53125 L 2.578125 -4.53125 L 2.578125 -1.109375 L 7.390625 -1.109375 L 7.390625 0 L 1.21875 0 L 1.21875 -10.015625 Z M 7.390625 -10.015625 "/></g></g></g><g fill="#ffd4d7" fill-opacity="1"><g transform="translate(181.205932, 264.834406)"><g/></g></g><g fill="#ffd4d7" fill-opacity="1"><g transform="translate(185.584609, 264.834406)"><g><path d="M 2.703125 -3.75 L 2.703125 0 L 1.359375 0 L 1.359375 -10.015625 L 4.3125 -10.015625 C 4.945312 -10.015625 5.5 -9.941406 5.96875 -9.796875 C 6.4375 -9.648438 6.820312 -9.441406 7.125 -9.171875 C 7.4375 -8.898438 7.664062 -8.570312 7.8125 -8.1875 C 7.96875 -7.8125 8.046875 -7.390625 8.046875 -6.921875 C 8.046875 -6.453125 7.960938 -6.023438 7.796875 -5.640625 C 7.640625 -5.253906 7.398438 -4.921875 7.078125 -4.640625 C 6.765625 -4.359375 6.375 -4.140625 5.90625 -3.984375 C 5.445312 -3.828125 4.914062 -3.75 4.3125 -3.75 Z M 2.703125 -4.828125 L 4.3125 -4.828125 C 4.695312 -4.828125 5.035156 -4.875 5.328125 -4.96875 C 5.628906 -5.070312 5.878906 -5.21875 6.078125 -5.40625 C 6.285156 -5.59375 6.4375 -5.8125 6.53125 -6.0625 C 6.632812 -6.320312 6.6875 -6.609375 6.6875 -6.921875 C 6.6875 -7.554688 6.488281 -8.050781 6.09375 -8.40625 C 5.707031 -8.769531 5.113281 -8.953125 4.3125 -8.953125 L 2.703125 -8.953125 Z M 2.703125 -4.828125 "/></g></g></g><g fill="#ffd4d7" fill-opacity="1"><g transform="translate(195.808096, 264.834406)"><g><path d="M 5.109375 -1.078125 C 5.523438 -1.078125 5.894531 -1.144531 6.21875 -1.28125 C 6.550781 -1.425781 6.828125 -1.625 7.046875 -1.875 C 7.273438 -2.125 7.445312 -2.421875 7.5625 -2.765625 C 7.6875 -3.117188 7.75 -3.503906 7.75 -3.921875 L 7.75 -10.015625 L 9.09375 -10.015625 L 9.09375 -3.921875 C 9.09375 -3.347656 9 -2.8125 8.8125 -2.3125 C 8.632812 -1.820312 8.375 -1.394531 8.03125 -1.03125 C 7.6875 -0.675781 7.265625 -0.394531 6.765625 -0.1875 C 6.273438 0.0195312 5.722656 0.125 5.109375 0.125 C 4.492188 0.125 3.9375 0.0195312 3.4375 -0.1875 C 2.945312 -0.394531 2.53125 -0.675781 2.1875 -1.03125 C 1.84375 -1.394531 1.578125 -1.820312 1.390625 -2.3125 C 1.210938 -2.8125 1.125 -3.347656 1.125 -3.921875 L 1.125 -10.015625 L 2.46875 -10.015625 L 2.46875 -3.9375 C 2.46875 -3.519531 2.523438 -3.132812 2.640625 -2.78125 C 2.765625 -2.4375 2.9375 -2.132812 3.15625 -1.875 C 3.382812 -1.625 3.660156 -1.425781 3.984375 -1.28125 C 4.316406 -1.144531 4.691406 -1.078125 5.109375 -1.078125 Z M 5.109375 -1.078125 "/></g></g></g><g fill="#ffd4d7" fill-opacity="1"><g transform="translate(207.695538, 264.834406)"><g><path d="M 8.046875 -10.015625 L 8.046875 -8.875 L 4.796875 -8.875 L 4.796875 0 L 3.453125 0 L 3.453125 -8.875 L 0.203125 -8.875 L 0.203125 -10.015625 Z M 8.046875 -10.015625 "/></g></g></g><g fill="#ffd4d7" fill-opacity="1"><g transform="translate(217.625394, 264.834406)"><g><path d="M 10.515625 -5 C 10.515625 -4.25 10.394531 -3.5625 10.15625 -2.9375 C 9.925781 -2.3125 9.59375 -1.769531 9.15625 -1.3125 C 8.726562 -0.863281 8.207031 -0.515625 7.59375 -0.265625 C 6.988281 -0.015625 6.316406 0.109375 5.578125 0.109375 C 4.835938 0.109375 4.164062 -0.015625 3.5625 -0.265625 C 2.957031 -0.515625 2.4375 -0.863281 2 -1.3125 C 1.570312 -1.769531 1.238281 -2.3125 1 -2.9375 C 0.757812 -3.5625 0.640625 -4.25 0.640625 -5 C 0.640625 -5.75 0.757812 -6.4375 1 -7.0625 C 1.238281 -7.695312 1.570312 -8.238281 2 -8.6875 C 2.4375 -9.144531 2.957031 -9.5 3.5625 -9.75 C 4.164062 -10 4.835938 -10.125 5.578125 -10.125 C 6.316406 -10.125 6.988281 -10 7.59375 -9.75 C 8.207031 -9.5 8.726562 -9.144531 9.15625 -8.6875 C 9.59375 -8.238281 9.925781 -7.695312 10.15625 -7.0625 C 10.394531 -6.4375 10.515625 -5.75 10.515625 -5 Z M 9.125 -5 C 9.125 -5.613281 9.039062 -6.164062 8.875 -6.65625 C 8.707031 -7.144531 8.46875 -7.554688 8.15625 -7.890625 C 7.851562 -8.234375 7.484375 -8.492188 7.046875 -8.671875 C 6.609375 -8.859375 6.117188 -8.953125 5.578125 -8.953125 C 5.046875 -8.953125 4.5625 -8.859375 4.125 -8.671875 C 3.6875 -8.492188 3.3125 -8.234375 3 -7.890625 C 2.6875 -7.554688 2.445312 -7.144531 2.28125 -6.65625 C 2.113281 -6.164062 2.03125 -5.613281 2.03125 -5 C 2.03125 -4.382812 2.113281 -3.832031 2.28125 -3.34375 C 2.445312 -2.863281 2.6875 -2.453125 3 -2.109375 C 3.3125 -1.773438 3.6875 -1.515625 4.125 -1.328125 C 4.5625 -1.148438 5.046875 -1.0625 5.578125 -1.0625 C 6.117188 -1.0625 6.609375 -1.148438 7.046875 -1.328125 C 7.484375 -1.515625 7.851562 -1.773438 8.15625 -2.109375 C 8.46875 -2.453125 8.707031 -2.863281 8.875 -3.34375 C 9.039062 -3.832031 9.125 -4.382812 9.125 -5 Z M 9.125 -5 "/></g></g></g><g fill="#ffd4d7" fill-opacity="1"><g transform="translate(230.463673, 264.834406)"><g/></g></g><g fill="#ffd4d7" fill-opacity="1"><g transform="translate(234.84235, 264.834406)"><g><path d="M 7.390625 -10.015625 L 7.390625 -8.921875 L 2.578125 -8.921875 L 2.578125 -5.40625 L 6.6875 -5.40625 L 6.6875 -4.3125 L 2.578125 -4.3125 L 2.578125 0 L 1.21875 0 L 1.21875 -10.015625 Z M 7.390625 -10.015625 "/></g></g></g><g fill="#ffd4d7" fill-opacity="1"><g transform="translate(244.436618, 264.834406)"><g><path d="M 2.578125 -1.140625 L 6.90625 -1.140625 L 6.90625 0 L 1.21875 0 L 1.21875 -10.015625 L 2.578125 -10.015625 Z M 2.578125 -1.140625 "/></g></g></g><g fill="#ffd4d7" fill-opacity="1"><g transform="translate(253.303774, 264.834406)"><g><path d="M 9.453125 0 L 8.40625 0 C 8.289062 0 8.191406 -0.03125 8.109375 -0.09375 C 8.035156 -0.15625 7.984375 -0.234375 7.953125 -0.328125 L 7.015625 -2.734375 L 2.515625 -2.734375 L 1.578125 -0.328125 C 1.546875 -0.242188 1.488281 -0.164062 1.40625 -0.09375 C 1.332031 -0.03125 1.238281 0 1.125 0 L 0.0625 0 L 4.078125 -10.015625 L 5.453125 -10.015625 Z M 2.890625 -3.71875 L 6.640625 -3.71875 L 5.0625 -7.796875 C 4.957031 -8.046875 4.859375 -8.359375 4.765625 -8.734375 C 4.710938 -8.546875 4.660156 -8.367188 4.609375 -8.203125 C 4.554688 -8.046875 4.507812 -7.910156 4.46875 -7.796875 Z M 2.890625 -3.71875 "/></g></g></g><g fill="#ffd4d7" fill-opacity="1"><g transform="translate(264.492079, 264.834406)"><g><path d="M 1.921875 -10.015625 C 2.035156 -10.015625 2.117188 -10 2.171875 -9.96875 C 2.234375 -9.9375 2.304688 -9.875 2.390625 -9.78125 L 8.1875 -2.234375 C 8.175781 -2.359375 8.164062 -2.476562 8.15625 -2.59375 C 8.15625 -2.707031 8.15625 -2.816406 8.15625 -2.921875 L 8.15625 -10.015625 L 9.34375 -10.015625 L 9.34375 0 L 8.65625 0 C 8.550781 0 8.460938 -0.015625 8.390625 -0.046875 C 8.316406 -0.0859375 8.242188 -0.15625 8.171875 -0.25 L 2.375 -7.796875 C 2.382812 -7.671875 2.390625 -7.550781 2.390625 -7.4375 C 2.398438 -7.332031 2.40625 -7.234375 2.40625 -7.140625 L 2.40625 0 L 1.21875 0 L 1.21875 -10.015625 Z M 1.921875 -10.015625 "/></g></g></g><g fill="#ffd4d7" fill-opacity="1"><g transform="translate(276.743084, 264.834406)"><g/></g></g><g fill="#ffd4d7" fill-opacity="1"><g transform="translate(281.121761, 264.834406)"><g><path d="M 4.609375 -10.125 C 4.984375 -10.125 5.320312 -10.066406 5.625 -9.953125 C 5.925781 -9.835938 6.1875 -9.679688 6.40625 -9.484375 C 6.625 -9.285156 6.796875 -9.054688 6.921875 -8.796875 C 7.054688 -8.535156 7.132812 -8.265625 7.15625 -7.984375 L 6.375 -7.84375 C 6.351562 -7.832031 6.332031 -7.828125 6.3125 -7.828125 C 6.25 -7.828125 6.191406 -7.84375 6.140625 -7.875 C 6.085938 -7.90625 6.050781 -7.96875 6.03125 -8.0625 C 6 -8.175781 5.945312 -8.296875 5.875 -8.421875 C 5.800781 -8.554688 5.707031 -8.675781 5.59375 -8.78125 C 5.476562 -8.894531 5.335938 -8.984375 5.171875 -9.046875 C 5.015625 -9.117188 4.828125 -9.15625 4.609375 -9.15625 C 4.378906 -9.15625 4.171875 -9.117188 3.984375 -9.046875 C 3.796875 -8.972656 3.632812 -8.867188 3.5 -8.734375 C 3.375 -8.597656 3.273438 -8.441406 3.203125 -8.265625 C 3.128906 -8.085938 3.09375 -7.894531 3.09375 -7.6875 C 3.09375 -7.519531 3.109375 -7.359375 3.140625 -7.203125 C 3.179688 -7.054688 3.242188 -6.90625 3.328125 -6.75 C 3.410156 -6.601562 3.515625 -6.453125 3.640625 -6.296875 C 3.765625 -6.140625 3.914062 -5.972656 4.09375 -5.796875 L 6.96875 -2.859375 C 7.144531 -3.171875 7.285156 -3.5 7.390625 -3.84375 C 7.492188 -4.1875 7.566406 -4.53125 7.609375 -4.875 C 7.617188 -4.957031 7.644531 -5.023438 7.6875 -5.078125 C 7.738281 -5.128906 7.804688 -5.15625 7.890625 -5.15625 L 8.65625 -5.15625 C 8.644531 -4.625 8.554688 -4.097656 8.390625 -3.578125 C 8.234375 -3.054688 8 -2.570312 7.6875 -2.125 L 9.78125 0 L 8.59375 0 C 8.457031 0 8.34375 -0.015625 8.25 -0.046875 C 8.164062 -0.078125 8.078125 -0.144531 7.984375 -0.25 L 6.96875 -1.265625 C 6.53125 -0.835938 6.023438 -0.5 5.453125 -0.25 C 4.878906 -0.0078125 4.253906 0.109375 3.578125 0.109375 C 3.203125 0.109375 2.832031 0.046875 2.46875 -0.078125 C 2.113281 -0.203125 1.796875 -0.382812 1.515625 -0.625 C 1.234375 -0.863281 1.003906 -1.15625 0.828125 -1.5 C 0.660156 -1.84375 0.578125 -2.234375 0.578125 -2.671875 C 0.578125 -2.992188 0.628906 -3.300781 0.734375 -3.59375 C 0.847656 -3.882812 1 -4.15625 1.1875 -4.40625 C 1.382812 -4.65625 1.613281 -4.875 1.875 -5.0625 C 2.144531 -5.257812 2.4375 -5.429688 2.75 -5.578125 C 2.46875 -5.929688 2.257812 -6.273438 2.125 -6.609375 C 1.988281 -6.953125 1.921875 -7.304688 1.921875 -7.671875 C 1.921875 -8.015625 1.984375 -8.332031 2.109375 -8.625 C 2.234375 -8.925781 2.410156 -9.1875 2.640625 -9.40625 C 2.878906 -9.632812 3.164062 -9.8125 3.5 -9.9375 C 3.832031 -10.0625 4.203125 -10.125 4.609375 -10.125 Z M 1.84375 -2.765625 C 1.84375 -2.460938 1.894531 -2.195312 2 -1.96875 C 2.113281 -1.738281 2.257812 -1.539062 2.4375 -1.375 C 2.625 -1.21875 2.832031 -1.097656 3.0625 -1.015625 C 3.300781 -0.941406 3.539062 -0.90625 3.78125 -0.90625 C 4.300781 -0.90625 4.769531 -1 5.1875 -1.1875 C 5.601562 -1.375 5.96875 -1.628906 6.28125 -1.953125 L 3.328125 -4.9375 C 2.835938 -4.664062 2.46875 -4.34375 2.21875 -3.96875 C 1.96875 -3.601562 1.84375 -3.203125 1.84375 -2.765625 Z M 1.84375 -2.765625 "/></g></g></g><g fill="#ffd4d7" fill-opacity="1"><g transform="translate(132.702432, 281.074271)"><g><path d="M 2.703125 -3.75 L 2.703125 0 L 1.359375 0 L 1.359375 -10.015625 L 4.3125 -10.015625 C 4.945312 -10.015625 5.5 -9.941406 5.96875 -9.796875 C 6.4375 -9.648438 6.820312 -9.441406 7.125 -9.171875 C 7.4375 -8.898438 7.664062 -8.570312 7.8125 -8.1875 C 7.96875 -7.8125 8.046875 -7.390625 8.046875 -6.921875 C 8.046875 -6.453125 7.960938 -6.023438 7.796875 -5.640625 C 7.640625 -5.253906 7.398438 -4.921875 7.078125 -4.640625 C 6.765625 -4.359375 6.375 -4.140625 5.90625 -3.984375 C 5.445312 -3.828125 4.914062 -3.75 4.3125 -3.75 Z M 2.703125 -4.828125 L 4.3125 -4.828125 C 4.695312 -4.828125 5.035156 -4.875 5.328125 -4.96875 C 5.628906 -5.070312 5.878906 -5.21875 6.078125 -5.40625 C 6.285156 -5.59375 6.4375 -5.8125 6.53125 -6.0625 C 6.632812 -6.320312 6.6875 -6.609375 6.6875 -6.921875 C 6.6875 -7.554688 6.488281 -8.050781 6.09375 -8.40625 C 5.707031 -8.769531 5.113281 -8.953125 4.3125 -8.953125 L 2.703125 -8.953125 Z M 2.703125 -4.828125 "/></g></g></g><g fill="#ffd4d7" fill-opacity="1"><g transform="translate(142.925921, 281.074271)"><g><path d="M 5.109375 -1.078125 C 5.523438 -1.078125 5.894531 -1.144531 6.21875 -1.28125 C 6.550781 -1.425781 6.828125 -1.625 7.046875 -1.875 C 7.273438 -2.125 7.445312 -2.421875 7.5625 -2.765625 C 7.6875 -3.117188 7.75 -3.503906 7.75 -3.921875 L 7.75 -10.015625 L 9.09375 -10.015625 L 9.09375 -3.921875 C 9.09375 -3.347656 9 -2.8125 8.8125 -2.3125 C 8.632812 -1.820312 8.375 -1.394531 8.03125 -1.03125 C 7.6875 -0.675781 7.265625 -0.394531 6.765625 -0.1875 C 6.273438 0.0195312 5.722656 0.125 5.109375 0.125 C 4.492188 0.125 3.9375 0.0195312 3.4375 -0.1875 C 2.945312 -0.394531 2.53125 -0.675781 2.1875 -1.03125 C 1.84375 -1.394531 1.578125 -1.820312 1.390625 -2.3125 C 1.210938 -2.8125 1.125 -3.347656 1.125 -3.921875 L 1.125 -10.015625 L 2.46875 -10.015625 L 2.46875 -3.9375 C 2.46875 -3.519531 2.523438 -3.132812 2.640625 -2.78125 C 2.765625 -2.4375 2.9375 -2.132812 3.15625 -1.875 C 3.382812 -1.625 3.660156 -1.425781 3.984375 -1.28125 C 4.316406 -1.144531 4.691406 -1.078125 5.109375 -1.078125 Z M 5.109375 -1.078125 "/></g></g></g><g fill="#ffd4d7" fill-opacity="1"><g transform="translate(154.813365, 281.074271)"><g><path d="M 8.046875 -10.015625 L 8.046875 -8.875 L 4.796875 -8.875 L 4.796875 0 L 3.453125 0 L 3.453125 -8.875 L 0.203125 -8.875 L 0.203125 -10.015625 Z M 8.046875 -10.015625 "/></g></g></g><g fill="#ffd4d7" fill-opacity="1"><g transform="translate(164.743223, 281.074271)"><g><path d="M 10.515625 -5 C 10.515625 -4.25 10.394531 -3.5625 10.15625 -2.9375 C 9.925781 -2.3125 9.59375 -1.769531 9.15625 -1.3125 C 8.726562 -0.863281 8.207031 -0.515625 7.59375 -0.265625 C 6.988281 -0.015625 6.316406 0.109375 5.578125 0.109375 C 4.835938 0.109375 4.164062 -0.015625 3.5625 -0.265625 C 2.957031 -0.515625 2.4375 -0.863281 2 -1.3125 C 1.570312 -1.769531 1.238281 -2.3125 1 -2.9375 C 0.757812 -3.5625 0.640625 -4.25 0.640625 -5 C 0.640625 -5.75 0.757812 -6.4375 1 -7.0625 C 1.238281 -7.695312 1.570312 -8.238281 2 -8.6875 C 2.4375 -9.144531 2.957031 -9.5 3.5625 -9.75 C 4.164062 -10 4.835938 -10.125 5.578125 -10.125 C 6.316406 -10.125 6.988281 -10 7.59375 -9.75 C 8.207031 -9.5 8.726562 -9.144531 9.15625 -8.6875 C 9.59375 -8.238281 9.925781 -7.695312 10.15625 -7.0625 C 10.394531 -6.4375 10.515625 -5.75 10.515625 -5 Z M 9.125 -5 C 9.125 -5.613281 9.039062 -6.164062 8.875 -6.65625 C 8.707031 -7.144531 8.46875 -7.554688 8.15625 -7.890625 C 7.851562 -8.234375 7.484375 -8.492188 7.046875 -8.671875 C 6.609375 -8.859375 6.117188 -8.953125 5.578125 -8.953125 C 5.046875 -8.953125 4.5625 -8.859375 4.125 -8.671875 C 3.6875 -8.492188 3.3125 -8.234375 3 -7.890625 C 2.6875 -7.554688 2.445312 -7.144531 2.28125 -6.65625 C 2.113281 -6.164062 2.03125 -5.613281 2.03125 -5 C 2.03125 -4.382812 2.113281 -3.832031 2.28125 -3.34375 C 2.445312 -2.863281 2.6875 -2.453125 3 -2.109375 C 3.3125 -1.773438 3.6875 -1.515625 4.125 -1.328125 C 4.5625 -1.148438 5.046875 -1.0625 5.578125 -1.0625 C 6.117188 -1.0625 6.609375 -1.148438 7.046875 -1.328125 C 7.484375 -1.515625 7.851562 -1.773438 8.15625 -2.109375 C 8.46875 -2.453125 8.707031 -2.863281 8.875 -3.34375 C 9.039062 -3.832031 9.125 -4.382812 9.125 -5 Z M 9.125 -5 "/></g></g></g><g fill="#ffd4d7" fill-opacity="1"><g transform="translate(177.581505, 281.074271)"><g/></g></g><g fill="#ffd4d7" fill-opacity="1"><g transform="translate(181.960186, 281.074271)"><g><path d="M 8.28125 -2.0625 C 8.351562 -2.0625 8.421875 -2.035156 8.484375 -1.984375 L 9.015625 -1.390625 C 8.597656 -0.921875 8.097656 -0.550781 7.515625 -0.28125 C 6.929688 -0.0195312 6.226562 0.109375 5.40625 0.109375 C 4.6875 0.109375 4.03125 -0.015625 3.4375 -0.265625 C 2.851562 -0.515625 2.351562 -0.863281 1.9375 -1.3125 C 1.519531 -1.757812 1.195312 -2.296875 0.96875 -2.921875 C 0.738281 -3.554688 0.625 -4.25 0.625 -5 C 0.625 -5.757812 0.742188 -6.453125 0.984375 -7.078125 C 1.234375 -7.710938 1.578125 -8.253906 2.015625 -8.703125 C 2.460938 -9.160156 2.992188 -9.507812 3.609375 -9.75 C 4.234375 -10 4.914062 -10.125 5.65625 -10.125 C 6.394531 -10.125 7.03125 -10.007812 7.5625 -9.78125 C 8.101562 -9.5625 8.578125 -9.253906 8.984375 -8.859375 L 8.546875 -8.234375 C 8.515625 -8.191406 8.476562 -8.15625 8.4375 -8.125 C 8.394531 -8.09375 8.332031 -8.078125 8.25 -8.078125 C 8.195312 -8.078125 8.132812 -8.097656 8.0625 -8.140625 C 8 -8.179688 7.921875 -8.234375 7.828125 -8.296875 C 7.734375 -8.367188 7.625 -8.441406 7.5 -8.515625 C 7.375 -8.585938 7.222656 -8.65625 7.046875 -8.71875 C 6.878906 -8.789062 6.679688 -8.847656 6.453125 -8.890625 C 6.222656 -8.929688 5.957031 -8.953125 5.65625 -8.953125 C 5.125 -8.953125 4.632812 -8.859375 4.1875 -8.671875 C 3.738281 -8.492188 3.351562 -8.234375 3.03125 -7.890625 C 2.707031 -7.554688 2.457031 -7.144531 2.28125 -6.65625 C 2.101562 -6.164062 2.015625 -5.613281 2.015625 -5 C 2.015625 -4.375 2.101562 -3.816406 2.28125 -3.328125 C 2.457031 -2.835938 2.703125 -2.425781 3.015625 -2.09375 C 3.328125 -1.757812 3.691406 -1.503906 4.109375 -1.328125 C 4.535156 -1.148438 4.992188 -1.0625 5.484375 -1.0625 C 5.785156 -1.0625 6.054688 -1.078125 6.296875 -1.109375 C 6.535156 -1.140625 6.753906 -1.191406 6.953125 -1.265625 C 7.148438 -1.347656 7.335938 -1.445312 7.515625 -1.5625 C 7.691406 -1.675781 7.867188 -1.8125 8.046875 -1.96875 C 8.128906 -2.03125 8.207031 -2.0625 8.28125 -2.0625 Z M 8.28125 -2.0625 "/></g></g></g><g fill="#ffd4d7" fill-opacity="1"><g transform="translate(193.218409, 281.074271)"><g><path d="M 9.34375 0 L 7.984375 0 L 7.984375 -4.5625 L 2.578125 -4.5625 L 2.578125 0 L 1.21875 0 L 1.21875 -10.015625 L 2.578125 -10.015625 L 2.578125 -5.546875 L 7.984375 -5.546875 L 7.984375 -10.015625 L 9.34375 -10.015625 Z M 9.34375 0 "/></g></g></g><g fill="#ffd4d7" fill-opacity="1"><g transform="translate(205.469414, 281.074271)"><g><path d="M 7.390625 -10.015625 L 7.390625 -8.921875 L 2.578125 -8.921875 L 2.578125 -5.59375 L 6.46875 -5.59375 L 6.46875 -4.53125 L 2.578125 -4.53125 L 2.578125 -1.109375 L 7.390625 -1.109375 L 7.390625 0 L 1.21875 0 L 1.21875 -10.015625 Z M 7.390625 -10.015625 "/></g></g></g><g fill="#ffd4d7" fill-opacity="1"><g transform="translate(215.273426, 281.074271)"><g><path d="M 7.390625 -10.015625 L 7.390625 -8.921875 L 2.578125 -8.921875 L 2.578125 -5.59375 L 6.46875 -5.59375 L 6.46875 -4.53125 L 2.578125 -4.53125 L 2.578125 -1.109375 L 7.390625 -1.109375 L 7.390625 0 L 1.21875 0 L 1.21875 -10.015625 Z M 7.390625 -10.015625 "/></g></g></g><g fill="#ffd4d7" fill-opacity="1"><g transform="translate(225.077438, 281.074271)"><g><path d="M 6.34375 -8.453125 C 6.300781 -8.378906 6.253906 -8.328125 6.203125 -8.296875 C 6.160156 -8.265625 6.101562 -8.25 6.03125 -8.25 C 5.957031 -8.25 5.863281 -8.285156 5.75 -8.359375 C 5.644531 -8.441406 5.515625 -8.53125 5.359375 -8.625 C 5.203125 -8.71875 5.007812 -8.800781 4.78125 -8.875 C 4.550781 -8.957031 4.273438 -9 3.953125 -9 C 3.648438 -9 3.378906 -8.957031 3.140625 -8.875 C 2.910156 -8.800781 2.71875 -8.691406 2.5625 -8.546875 C 2.40625 -8.410156 2.285156 -8.25 2.203125 -8.0625 C 2.128906 -7.875 2.09375 -7.671875 2.09375 -7.453125 C 2.09375 -7.171875 2.160156 -6.9375 2.296875 -6.75 C 2.441406 -6.5625 2.625 -6.398438 2.84375 -6.265625 C 3.070312 -6.140625 3.328125 -6.03125 3.609375 -5.9375 C 3.898438 -5.84375 4.195312 -5.742188 4.5 -5.640625 C 4.800781 -5.535156 5.09375 -5.421875 5.375 -5.296875 C 5.664062 -5.171875 5.921875 -5.007812 6.140625 -4.8125 C 6.367188 -4.613281 6.550781 -4.367188 6.6875 -4.078125 C 6.832031 -3.796875 6.90625 -3.453125 6.90625 -3.046875 C 6.90625 -2.609375 6.828125 -2.195312 6.671875 -1.8125 C 6.523438 -1.425781 6.304688 -1.085938 6.015625 -0.796875 C 5.734375 -0.515625 5.382812 -0.289062 4.96875 -0.125 C 4.550781 0.03125 4.078125 0.109375 3.546875 0.109375 C 2.898438 0.109375 2.304688 -0.00390625 1.765625 -0.234375 C 1.234375 -0.472656 0.78125 -0.796875 0.40625 -1.203125 L 0.796875 -1.84375 C 0.835938 -1.894531 0.882812 -1.9375 0.9375 -1.96875 C 0.988281 -2 1.046875 -2.015625 1.109375 -2.015625 C 1.210938 -2.015625 1.328125 -1.960938 1.453125 -1.859375 C 1.578125 -1.753906 1.734375 -1.640625 1.921875 -1.515625 C 2.109375 -1.390625 2.332031 -1.273438 2.59375 -1.171875 C 2.863281 -1.066406 3.195312 -1.015625 3.59375 -1.015625 C 3.90625 -1.015625 4.1875 -1.054688 4.4375 -1.140625 C 4.695312 -1.234375 4.910156 -1.359375 5.078125 -1.515625 C 5.253906 -1.679688 5.390625 -1.875 5.484375 -2.09375 C 5.578125 -2.320312 5.625 -2.570312 5.625 -2.84375 C 5.625 -3.144531 5.554688 -3.390625 5.421875 -3.578125 C 5.285156 -3.773438 5.101562 -3.9375 4.875 -4.0625 C 4.65625 -4.195312 4.398438 -4.3125 4.109375 -4.40625 C 3.828125 -4.5 3.535156 -4.59375 3.234375 -4.6875 C 2.929688 -4.78125 2.632812 -4.890625 2.34375 -5.015625 C 2.0625 -5.140625 1.804688 -5.300781 1.578125 -5.5 C 1.359375 -5.707031 1.179688 -5.960938 1.046875 -6.265625 C 0.910156 -6.566406 0.84375 -6.9375 0.84375 -7.375 C 0.84375 -7.726562 0.910156 -8.070312 1.046875 -8.40625 C 1.179688 -8.738281 1.378906 -9.03125 1.640625 -9.28125 C 1.898438 -9.539062 2.222656 -9.742188 2.609375 -9.890625 C 2.992188 -10.046875 3.4375 -10.125 3.9375 -10.125 C 4.5 -10.125 5.007812 -10.035156 5.46875 -9.859375 C 5.925781 -9.679688 6.328125 -9.425781 6.671875 -9.09375 Z M 6.34375 -8.453125 "/></g></g></g><g fill="#ffd4d7" fill-opacity="1"><g transform="translate(234.168319, 281.074271)"><g><path d="M 7.390625 -10.015625 L 7.390625 -8.921875 L 2.578125 -8.921875 L 2.578125 -5.59375 L 6.46875 -5.59375 L 6.46875 -4.53125 L 2.578125 -4.53125 L 2.578125 -1.109375 L 7.390625 -1.109375 L 7.390625 0 L 1.21875 0 L 1.21875 -10.015625 Z M 7.390625 -10.015625 "/></g></g></g></svg>