<svg xmlns="http://www.w3.org/2000/svg" xmlns:xlink="http://www.w3.org/1999/xlink" width="500" zoomAndPan="magnify" viewBox="0 0 375 374.999991" height="500" preserveAspectRatio="xMidYMid meet" version="1.0"><defs><filter x="0%" y="0%" width="100%" height="100%" id="0e63aaa66e"><feColorMatrix values="0 0 0 0 1 0 0 0 0 1 0 0 0 0 1 0 0 0 1 0" color-interpolation-filters="sRGB"/></filter><g/><mask id="d613b91a1c"><g filter="url(#0e63aaa66e)"><rect x="-37.5" width="450" fill="#000000" y="-37.499999" height="449.999989" fill-opacity="0.7"/></g></mask><clipPath id="25dee385c7"><path d="M 0.320312 0.398438 L 283 0.398438 L 283 283 L 0.320312 283 Z M 0.320312 0.398438 " clip-rule="nonzero"/></clipPath><clipPath id="2b54b1d1f0"><rect x="0" width="284" y="0" height="284"/></clipPath><mask id="30b39b0100"><g filter="url(#0e63aaa66e)"><rect x="-37.5" width="450" fill="#000000" y="-37.499999" height="449.999989" fill-opacity="0.7"/></g></mask><clipPath id="27b8123a0d"><path d="M 0.0390625 0.121094 L 305 0.121094 L 305 305.398438 L 0.0390625 305.398438 Z M 0.0390625 0.121094 " clip-rule="nonzero"/></clipPath><clipPath id="82da0cb090"><rect x="0" width="306" y="0" height="306"/></clipPath><clipPath id="7a09c498a5"><path d="M 136.09375 83 L 263.460938 83 L 263.460938 140.253906 L 136.09375 140.253906 Z M 136.09375 83 " clip-rule="nonzero"/></clipPath><clipPath id="f775cf5430"><path d="M 113.460938 98.269531 L 216.25 98.269531 L 216.25 148.539062 L 113.460938 148.539062 Z M 113.460938 98.269531 " clip-rule="nonzero"/></clipPath><clipPath id="16c7c2b30e"><path d="M 125 65.308594 L 256 65.308594 L 256 120 L 125 120 Z M 125 65.308594 " clip-rule="nonzero"/></clipPath></defs><path fill="#53b7d2" d="M 350.761719 202.535156 L 360.605469 192.730469 L 351.34375 182.382812 L 359.929688 171.453125 L 349.472656 162.304688 L 356.652344 150.402344 L 345.152344 142.605469 L 350.804688 129.910156 L 338.425781 123.597656 L 342.46875 110.296875 L 329.410156 105.5625 L 331.785156 91.863281 L 318.238281 88.769531 L 318.914062 74.886719 L 305.09375 73.46875 L 304.078125 59.609375 L 290.179688 59.886719 L 287.484375 46.261719 L 273.730469 48.234375 L 269.378906 35.042969 L 255.96875 38.683594 L 250.019531 26.128906 L 237.164062 31.410156 L 229.707031 19.683594 L 217.597656 26.511719 L 208.753906 15.789062 L 197.589844 24.054688 L 187.503906 14.492188 L 177.414062 24.054688 L 166.25 15.789062 L 157.402344 26.511719 L 145.292969 19.683594 L 137.839844 31.410156 L 124.980469 26.128906 L 119.035156 38.6875 L 105.625 35.042969 L 101.265625 48.238281 L 87.515625 46.257812 L 84.8125 59.886719 L 70.917969 59.609375 L 69.90625 73.46875 L 56.082031 74.886719 L 56.761719 88.769531 L 43.21875 91.863281 L 45.59375 105.5625 L 32.53125 110.296875 L 36.570312 123.59375 L 24.199219 129.910156 L 29.847656 142.605469 L 18.347656 150.40625 L 25.523438 162.304688 L 15.074219 171.453125 L 23.65625 182.382812 L 14.394531 192.730469 L 24.238281 202.542969 L 16.300781 213.945312 L 27.277344 222.476562 L 20.8125 234.777344 L 32.75 241.886719 L 27.851562 254.886719 L 40.578125 260.46875 L 37.324219 273.976562 L 50.640625 277.945312 L 49.074219 291.75 L 62.773438 294.058594 L 62.898438 307.949219 L 76.78125 308.5625 L 78.601562 322.332031 L 92.457031 321.257812 L 95.945312 334.707031 L 109.558594 331.925781 L 114.6875 344.84375 L 127.855469 340.414062 L 134.539062 352.601562 L 147.054688 346.578125 L 155.191406 357.847656 L 166.871094 350.316406 L 176.324219 360.503906 L 187.503906 351.1875 L 187.5 351.1875 L 198.675781 360.507812 L 208.132812 350.316406 L 219.8125 357.847656 L 227.945312 346.578125 L 240.464844 352.597656 L 247.148438 340.414062 L 260.3125 344.84375 L 265.433594 331.925781 L 279.054688 334.707031 L 282.546875 321.257812 L 296.398438 322.332031 L 298.214844 308.5625 L 312.101562 307.949219 L 312.222656 294.058594 L 325.933594 291.757812 L 324.363281 277.945312 L 337.675781 273.976562 L 334.421875 260.46875 L 347.148438 254.886719 L 342.25 241.886719 L 354.191406 234.777344 L 347.726562 222.476562 L 358.699219 213.945312 Z M 350.761719 202.535156 " fill-opacity="1" fill-rule="nonzero"/><g mask="url(#d613b91a1c)"><g transform="matrix(1, 0, 0, 1, 46, 44)"><g clip-path="url(#2b54b1d1f0)"><g clip-path="url(#25dee385c7)"><path fill="#ffffff" d="M 141.5 282.976562 C 63.886719 282.976562 0.746094 219.671875 0.746094 141.855469 C 0.746094 64.039062 63.886719 0.734375 141.5 0.734375 C 219.109375 0.734375 282.253906 64.039062 282.253906 141.855469 C 282.253906 219.671875 219.109375 282.976562 141.5 282.976562 Z M 141.5 9.804688 C 68.890625 9.804688 9.820312 69.042969 9.820312 141.855469 C 9.820312 214.667969 68.890625 273.910156 141.5 273.910156 C 214.109375 273.910156 273.179688 214.667969 273.179688 141.855469 C 273.179688 69.042969 214.109375 9.804688 141.5 9.804688 Z M 141.5 9.804688 " fill-opacity="1" fill-rule="nonzero"/></g></g></g></g><g mask="url(#30b39b0100)"><g transform="matrix(1, 0, 0, 1, 35, 33)"><g clip-path="url(#82da0cb090)"><g clip-path="url(#27b8123a0d)"><path fill="#ffffff" d="M 152.5 305.082031 C 68.5625 305.082031 0.273438 236.792969 0.273438 152.855469 C 0.273438 68.917969 68.5625 0.632812 152.5 0.632812 C 236.4375 0.632812 304.722656 68.917969 304.722656 152.855469 C 304.722656 236.792969 236.4375 305.082031 152.5 305.082031 Z M 152.5 7.433594 C 72.316406 7.433594 7.078125 72.671875 7.078125 152.855469 C 7.078125 233.039062 72.316406 298.277344 152.5 298.277344 C 232.683594 298.277344 297.917969 233.039062 297.917969 152.855469 C 297.917969 72.671875 232.683594 7.433594 152.5 7.433594 Z M 152.5 7.433594 " fill-opacity="1" fill-rule="nonzero"/></g></g></g></g><g clip-path="url(#7a09c498a5)"><path fill="#fcd565" d="M 219.847656 95.644531 C 220.574219 95.257812 220.90625 94.34375 220.6875 93.566406 C 220.488281 92.855469 219.585938 91.925781 218.804688 92.4375 C 218.535156 92.617188 218.488281 92.921875 218.609375 93.15625 C 218.410156 93.304688 218.199219 93.4375 218.039062 93.644531 C 217.78125 93.980469 217.691406 94.402344 217.816406 94.8125 C 218.074219 95.648438 219.085938 96.050781 219.847656 95.644531 Z M 137.507812 85.660156 C 137.453125 85.640625 137.398438 85.625 137.335938 85.621094 C 136.984375 85.597656 136.652344 85.785156 136.453125 86.074219 C 136.054688 86.652344 136.265625 87.28125 136.6875 87.746094 C 136.871094 88.042969 137.1875 88.28125 137.53125 88.363281 C 138.105469 88.648438 138.769531 88.738281 139.328125 88.34375 C 140.023438 87.851562 140.066406 86.976562 139.574219 86.320312 C 139.101562 85.695312 138.25 85.363281 137.507812 85.660156 Z M 188.074219 83.425781 C 182.871094 82.664062 177.335938 82.992188 172.660156 85.589844 C 168.160156 88.089844 161.507812 96.5 161.332031 96.59375 C 159.828125 97.433594 158.859375 98.972656 159.078125 100.746094 C 159.1875 101.644531 163.792969 112.132812 164.578125 115.019531 C 165.121094 117.039062 165.625 119.238281 167.5625 120.359375 C 169.722656 121.609375 172.585938 122.054688 174.996094 122.574219 C 177.765625 123.167969 180.574219 123.558594 183.398438 123.824219 C 186.542969 124.121094 189.691406 124.300781 192.839844 124.558594 C 195.25 124.753906 197.78125 125 200.078125 124.0625 C 204.496094 122.265625 205.808594 117.371094 206.339844 113.054688 C 206.535156 111.464844 206.65625 109.867188 207.347656 108.402344 C 207.90625 107.21875 208.679688 106.175781 209.078125 104.914062 C 209.765625 102.746094 209.5 100.378906 208.753906 98.265625 C 205.722656 89.691406 196.597656 84.675781 188.074219 83.425781 Z M 263.210938 119.136719 C 262.644531 122.773438 261.292969 126.191406 259.804688 129.535156 C 258.558594 132.328125 257.574219 135.777344 254.476562 136.992188 C 251.042969 138.339844 246.933594 138.734375 243.300781 139.226562 C 239.460938 139.75 235.550781 140.183594 231.675781 139.941406 C 228.09375 139.71875 224.386719 138.90625 221.355469 136.886719 C 218.535156 135.007812 216.839844 132.097656 215.355469 129.121094 C 213.695312 125.792969 212.375 122.261719 211.257812 118.710938 C 210.585938 116.558594 210.527344 112.789062 213.550781 112.808594 C 213.789062 108.996094 216.371094 105.171875 218.945312 102.546875 C 221.835938 99.605469 225.476562 97.515625 229.414062 96.347656 C 234.019531 94.980469 238.90625 94.875 243.625 95.640625 C 247.703125 96.304688 252.023438 97.597656 254.65625 101.007812 C 254.710938 101.082031 254.75 101.15625 254.769531 101.234375 C 255.777344 102.175781 256.617188 103.292969 257.382812 104.445312 C 258.527344 106.15625 259.121094 108.148438 260.195312 109.863281 C 260.734375 110.726562 261.675781 111.183594 262.273438 111.996094 C 262.734375 112.625 263.039062 113.363281 263.21875 114.121094 C 263.613281 115.761719 263.464844 117.484375 263.210938 119.136719 " fill-opacity="1" fill-rule="nonzero"/></g><g clip-path="url(#f775cf5430)"><path fill="#fce18e" d="M 215.785156 124.65625 C 215.359375 126.277344 214.621094 127.796875 213.957031 129.328125 C 213.128906 131.234375 212.574219 133.152344 212.125 135.179688 C 211.46875 138.125 210.8125 141.140625 208.863281 143.539062 C 206.863281 146.007812 203.824219 146.667969 200.859375 147.292969 C 193.964844 148.746094 186.835938 148.921875 179.878906 147.851562 C 176.949219 147.402344 174.03125 146.734375 172.140625 144.25 C 169.9375 141.351562 168.3125 137.832031 166.492188 134.679688 C 165.273438 132.5625 163.730469 130.25 163.238281 127.765625 C 163.03125 128.589844 162.8125 129.414062 162.570312 130.230469 C 161.703125 133.195312 160.777344 136.902344 158.585938 139.207031 C 156.476562 141.425781 153.039062 142.351562 150.132812 142.867188 C 142.90625 144.148438 135.605469 142.625 128.726562 140.382812 C 125.78125 139.425781 122.589844 138.527344 120.253906 136.382812 C 118.101562 134.40625 116.808594 131.679688 115.808594 128.972656 C 114.5625 125.59375 113.558594 122.023438 113.476562 118.394531 C 113.449219 117.300781 113.382812 116.039062 114.121094 115.140625 C 114.917969 114.171875 116.554688 114.007812 117.027344 112.765625 C 117.085938 112.617188 117.207031 112.546875 117.332031 112.542969 C 120.082031 103.910156 129.066406 98.363281 137.878906 98.355469 C 143.441406 98.351562 148.738281 100.210938 153.625 102.757812 C 155.652344 103.816406 157.582031 104.96875 159.011719 106.800781 C 160.40625 108.585938 161.199219 110.683594 161.980469 112.78125 C 162.804688 112.75 163.589844 113.136719 164.152344 113.832031 C 165.164062 115.070312 164.992188 116.796875 164.863281 118.28125 C 164.742188 119.660156 164.566406 121.035156 164.347656 122.398438 C 164.6875 121.980469 165.097656 121.617188 165.582031 121.34375 C 167.472656 116.558594 171.125 112.226562 175.046875 108.996094 C 176.960938 107.421875 179.007812 106 181.394531 105.269531 C 184.105469 104.441406 187.019531 104.363281 189.828125 104.28125 C 195.210938 104.125 200.417969 106.34375 204.84375 109.300781 C 206.902344 110.679688 208.816406 112.285156 210.433594 114.164062 C 211.34375 115.222656 212.957031 116.929688 213.480469 118.550781 C 216.257812 119 216.394531 122.328125 215.785156 124.65625 " fill-opacity="1" fill-rule="nonzero"/></g><g clip-path="url(#16c7c2b30e)"><path fill="#f9cd20" d="M 216.214844 82.703125 C 216.03125 82.453125 215.691406 82.367188 215.453125 82.605469 C 215.21875 82.839844 215.304688 83.183594 215.550781 83.367188 C 215.578125 83.386719 215.605469 83.40625 215.632812 83.425781 C 216.003906 83.703125 216.546875 83.15625 216.273438 82.785156 C 216.253906 82.757812 216.234375 82.730469 216.214844 82.703125 Z M 214.226562 76.492188 C 214.09375 76.15625 213.570312 76.171875 213.5625 76.582031 C 213.554688 77.4375 213.722656 78.238281 213.941406 79.058594 C 214.128906 79.773438 214.320312 80.601562 214.882812 81.117188 C 215.105469 81.316406 215.410156 81.164062 215.4375 80.886719 C 215.515625 80.164062 215.175781 79.453125 214.960938 78.773438 C 214.722656 78.007812 214.527344 77.238281 214.226562 76.492188 Z M 153.441406 82.371094 C 152.703125 82.371094 152.703125 83.523438 153.441406 83.523438 C 154.179688 83.523438 154.183594 82.371094 153.441406 82.371094 Z M 149.640625 80.90625 C 150.105469 81.289062 150.625 81.78125 151.257812 81.792969 C 151.480469 81.796875 151.566406 81.566406 151.488281 81.386719 C 151.257812 80.855469 150.664062 80.53125 150.230469 80.175781 C 149.746094 79.777344 149.277344 79.355469 148.777344 78.96875 C 148.496094 78.746094 147.972656 79.035156 148.222656 79.398438 C 148.628906 79.96875 149.101562 80.457031 149.640625 80.90625 Z M 202.183594 79.859375 C 201.511719 79.183594 200.972656 78.273438 200.832031 77.351562 C 200.542969 78.132812 199.890625 78.773438 199.140625 79.199219 C 199.976562 79.691406 200.632812 80.394531 201.066406 81.238281 C 201.3125 80.679688 201.664062 80.195312 202.183594 79.859375 Z M 203.339844 80.527344 C 202.042969 80.910156 201.832031 82.28125 201.632812 83.425781 C 201.519531 84.085938 200.585938 83.859375 200.542969 83.277344 C 200.417969 81.578125 199.367188 80.21875 197.761719 79.65625 C 197.324219 79.503906 197.257812 78.820312 197.761719 78.695312 C 199.289062 78.324219 199.742188 77.34375 200.429688 76.089844 C 200.550781 75.871094 200.804688 75.925781 200.917969 76.085938 C 201.019531 75.765625 201.179688 75.457031 201.429688 75.171875 C 201.535156 75.050781 201.714844 75.15625 201.722656 75.292969 C 201.820312 76.972656 201.878906 78.546875 203.46875 79.535156 C 203.867188 79.78125 203.792969 80.394531 203.339844 80.527344 Z M 174.441406 70.335938 C 173.585938 69.851562 172.851562 69.113281 172.429688 68.246094 C 172.128906 69.175781 171.496094 69.972656 170.648438 70.519531 C 171.632812 70.890625 172.472656 71.519531 173.097656 72.359375 C 173.324219 71.535156 173.75 70.808594 174.441406 70.335938 Z M 174.007812 74.25 C 174.027344 74.90625 173.097656 74.984375 172.910156 74.398438 C 172.332031 72.59375 170.867188 71.371094 168.976562 71.1875 C 168.4375 71.136719 168.234375 70.300781 168.839844 70.175781 C 171.058594 69.71875 171.953125 67.914062 171.714844 65.765625 C 171.679688 65.425781 172.085938 65.355469 172.289062 65.535156 C 172.4375 65.410156 172.710938 65.417969 172.746094 65.652344 C 173.015625 67.621094 173.746094 69.320312 175.835938 69.851562 C 176.34375 69.980469 176.269531 70.652344 175.835938 70.8125 C 174.300781 71.378906 173.972656 72.789062 174.007812 74.25 Z M 255.496094 100.398438 C 252.355469 95.464844 246.785156 93.386719 241.191406 92.851562 C 238.03125 92.550781 225.625 93.640625 222.242188 97.476562 C 221.414062 98.414062 221.589844 100.886719 222.957031 101.898438 C 225.375 103.683594 228.417969 103.109375 230.875 102.28125 C 238.121094 99.835938 247.730469 96.730469 254.808594 101.089844 C 255.230469 101.347656 255.765625 100.828125 255.496094 100.398438 Z M 196.109375 104.03125 C 194.648438 99.058594 189.902344 101.449219 186.046875 101.183594 C 178.175781 100.648438 177.957031 106.453125 178.183594 106.671875 C 181.535156 109.996094 182.046875 114.242188 182.300781 118.769531 C 182.320312 119.121094 182.605469 119.503906 183 119.46875 C 185.683594 119.230469 188.355469 118.898438 191.011719 118.453125 C 192.308594 118.234375 193.601562 118 194.890625 117.742188 C 195.648438 117.585938 196.605469 117.527344 197.242188 117.046875 C 198.730469 115.925781 197.855469 113.148438 197.648438 111.636719 C 197.296875 109.085938 196.835938 106.503906 196.109375 104.03125 Z M 196.414062 86.707031 C 193.457031 83.652344 189.476562 80.832031 185.214844 80.113281 C 182.816406 79.710938 180.117188 80.210938 177.871094 81.113281 C 176.304688 81.742188 175.046875 82.945312 175.121094 84.734375 C 175.132812 84.957031 175.40625 84.992188 175.503906 84.851562 C 175.59375 84.925781 175.710938 84.972656 175.855469 84.984375 C 181.265625 85.289062 185.101562 89.527344 188.605469 93.203125 C 189.957031 94.621094 191.46875 96.59375 193.308594 97.394531 C 195.042969 98.140625 196.273438 96.933594 197.425781 95.734375 C 198.5 94.613281 199.980469 93.199219 199.710938 91.496094 C 199.425781 89.6875 197.625 87.957031 196.414062 86.707031 Z M 152.851562 105.269531 C 153.390625 106.742188 154.539062 109.382812 153.105469 110.664062 C 151.640625 111.96875 148.425781 113.21875 146.476562 113.167969 C 144.378906 113.113281 142.453125 110.472656 141.179688 109.070312 C 139.210938 106.914062 137.46875 104.5625 135.613281 102.308594 C 134.445312 100.886719 133.300781 99.417969 131.234375 99.878906 C 129.714844 100.21875 128.5 101.3125 127.367188 102.3125 C 126.710938 102.890625 125.246094 99.171875 125.457031 98.167969 C 125.621094 97.378906 126.390625 96.832031 126.992188 96.375 C 129.289062 94.628906 132.207031 93.878906 135.042969 93.703125 C 137.785156 93.527344 140.925781 93.640625 143.492188 94.714844 C 145.699219 95.636719 147.644531 97.273438 149.199219 99.074219 C 150.777344 100.898438 152.015625 103 152.851562 105.269531 " fill-opacity="1" fill-rule="nonzero"/></g><path fill="#f79f25" d="M 213.714844 76.925781 C 213.707031 77.640625 213.847656 78.316406 214.03125 79.003906 C 214.1875 79.609375 214.351562 80.304688 214.824219 80.734375 C 215.011719 80.90625 215.265625 80.777344 215.289062 80.539062 C 215.355469 79.9375 215.066406 79.335938 214.890625 78.769531 C 214.6875 78.125 214.527344 77.476562 214.273438 76.847656 C 214.160156 76.566406 213.71875 76.582031 213.714844 76.925781 Z M 215.550781 83.367188 C 215.578125 83.386719 215.605469 83.40625 215.632812 83.425781 C 216.003906 83.703125 216.546875 83.15625 216.273438 82.785156 C 216.253906 82.757812 216.234375 82.730469 216.214844 82.703125 C 216.03125 82.453125 215.691406 82.367188 215.453125 82.605469 C 215.21875 82.839844 215.304688 83.183594 215.550781 83.367188 Z M 212.65625 79.105469 C 212.222656 78 211.902344 76.46875 212.738281 75.453125 C 214.671875 73.101562 216.753906 76.933594 217.472656 79.089844 C 218.59375 78.023438 219.824219 77.03125 221.394531 76.792969 C 222.277344 76.660156 223.914062 76.71875 224.222656 77.789062 C 224.617188 79.167969 222.28125 80.726562 221.480469 81.492188 C 219.792969 83.105469 218.050781 84.660156 216.210938 86.09375 C 215.871094 86.359375 215.242188 86.339844 215.144531 85.8125 C 214.691406 83.371094 213.542969 81.378906 212.65625 79.105469 Z M 148.222656 79.398438 C 148.628906 79.96875 149.101562 80.457031 149.640625 80.90625 C 150.105469 81.289062 150.625 81.78125 151.257812 81.792969 C 151.480469 81.796875 151.566406 81.566406 151.488281 81.386719 C 151.257812 80.855469 150.664062 80.53125 150.230469 80.175781 C 149.746094 79.777344 149.277344 79.355469 148.777344 78.96875 C 148.496094 78.746094 147.972656 79.035156 148.222656 79.398438 Z M 153.441406 83.523438 C 154.179688 83.523438 154.183594 82.371094 153.441406 82.371094 C 152.703125 82.371094 152.703125 83.523438 153.441406 83.523438 Z M 146.136719 78.335938 C 147.109375 75.53125 151.058594 78.503906 152.144531 79.570312 C 152.585938 78.21875 153.292969 76.980469 154.46875 76.113281 C 155.191406 75.582031 156.910156 74.640625 157.792969 75.304688 C 158.816406 76.074219 157.984375 78.398438 157.660156 79.289062 C 156.84375 81.519531 155.660156 83.703125 154.511719 85.777344 C 154.328125 86.117188 153.878906 86.140625 153.613281 85.894531 C 151.929688 84.355469 150.058594 82.992188 148.28125 81.566406 C 147.402344 80.859375 145.644531 79.761719 146.136719 78.335938 Z M 182.519531 100.855469 C 182.222656 100.925781 182.234375 101.34375 182.46875 101.453125 C 182.507812 101.46875 182.550781 101.480469 182.601562 101.480469 C 183.820312 101.429688 185.03125 101.296875 186.246094 101.195312 C 187.089844 101.125 187.933594 101.070312 188.785156 101.070312 C 189 101.070312 189.210938 101.066406 189.425781 101.074219 C 190.605469 101.113281 191.824219 101.234375 192.964844 101.554688 C 194.164062 101.890625 194.480469 102.824219 195.390625 103.496094 C 195.570312 103.625 195.824219 103.449219 195.820312 103.246094 C 195.820312 103.242188 195.816406 103.238281 195.816406 103.234375 C 195.757812 101.019531 193.351562 100.457031 191.582031 100.257812 C 188.613281 99.921875 185.425781 100.1875 182.519531 100.855469 Z M 244.082031 99.007812 C 243.574219 99.074219 243.078125 99.160156 242.59375 99.285156 C 242.285156 99.363281 242.351562 99.835938 242.667969 99.835938 C 244.769531 99.84375 246.820312 99.65625 248.925781 99.878906 C 250.816406 100.082031 252.78125 100.933594 254.664062 101.015625 C 254.667969 101.015625 254.675781 101.015625 254.683594 101.019531 C 254.800781 101.023438 254.917969 101.023438 255.03125 101.023438 C 255.179688 101.023438 255.292969 100.8125 255.164062 100.707031 C 253.695312 99.542969 251.328125 99.335938 249.519531 99.105469 C 247.761719 98.882812 245.875 98.777344 244.082031 99.007812 Z M 226.292969 102.511719 C 224.65625 102.40625 223.121094 100.917969 221.902344 99.945312 C 221.875 99.925781 221.847656 99.914062 221.816406 99.902344 C 221.53125 99.773438 221.160156 100.039062 221.355469 100.371094 C 221.363281 100.382812 221.371094 100.394531 221.378906 100.40625 C 223.09375 103.253906 227.117188 104.527344 230.027344 102.761719 C 230.117188 102.710938 230.15625 102.605469 230.152344 102.507812 C 230.148438 102.394531 230.085938 102.289062 229.960938 102.261719 C 228.699219 102 227.550781 102.59375 226.292969 102.511719 Z M 190.859375 118.027344 C 189.292969 118.3125 187.6875 118.433594 186.136719 118.808594 C 185.960938 118.851562 185.925781 119.027344 185.992188 119.15625 C 186.03125 119.230469 186.105469 119.289062 186.203125 119.296875 C 187.726562 119.367188 189.257812 119.105469 190.757812 118.867188 C 192.257812 118.628906 193.769531 118.429688 195.136719 117.738281 C 195.164062 117.722656 195.183594 117.703125 195.199219 117.683594 C 195.277344 117.570312 195.191406 117.382812 195.042969 117.382812 C 193.613281 117.382812 192.253906 117.777344 190.859375 118.027344 Z M 178.484375 106.554688 C 178.363281 106.457031 178.195312 106.527344 178.171875 106.652344 C 178.167969 106.679688 178.167969 106.707031 178.179688 106.738281 C 178.183594 106.75 178.1875 106.765625 178.191406 106.78125 C 179.152344 108.515625 180.3125 109.839844 180.8125 111.835938 C 181.195312 113.355469 181.0625 115.050781 181.667969 116.488281 C 181.753906 116.695312 182.082031 116.625 182.128906 116.429688 C 182.5 114.816406 181.953125 112.636719 181.484375 111.089844 C 180.933594 109.277344 179.957031 107.742188 178.484375 106.554688 Z M 196.160156 97.324219 C 197.304688 96.695312 198.402344 95.777344 198.789062 94.496094 C 198.816406 94.414062 198.773438 94.351562 198.710938 94.324219 C 198.65625 94.300781 198.585938 94.304688 198.535156 94.347656 C 197.597656 95.117188 196.820312 96.011719 195.75 96.617188 C 195.015625 97.027344 194.140625 97.136719 193.371094 97.414062 C 193.121094 97.503906 192.886719 97.609375 192.667969 97.746094 C 192.570312 97.808594 192.542969 97.992188 192.667969 98.046875 C 193.738281 98.519531 195.203125 97.847656 196.160156 97.324219 Z M 174.789062 84.671875 C 175.09375 85.289062 175.496094 85.371094 176.125 85.613281 C 177.339844 86.078125 178.523438 86.613281 179.671875 87.222656 C 180.6875 87.757812 181.667969 88.355469 182.613281 89.007812 C 183.546875 89.65625 184.386719 90.484375 185.4375 90.933594 C 185.632812 91.015625 185.886719 90.832031 185.753906 90.613281 C 184.773438 89.003906 182.722656 87.90625 181.136719 86.984375 C 180.144531 86.40625 179.121094 85.890625 178.0625 85.441406 C 177.816406 85.335938 177.515625 85.242188 177.199219 85.144531 C 176.5 84.929688 175.730469 84.691406 175.335938 84.25 C 175.28125 84.183594 175.214844 84.15625 175.148438 84.148438 C 174.925781 84.109375 174.710938 84.351562 174.769531 84.597656 C 174.777344 84.621094 174.777344 84.648438 174.789062 84.671875 Z M 125.957031 101.855469 C 126.25 102.023438 126.542969 102.105469 126.832031 102.132812 C 127.09375 102.15625 127.355469 102.136719 127.621094 102.089844 C 128.246094 101.976562 128.875 101.714844 129.523438 101.550781 C 131.550781 101.039062 133.902344 101.164062 135.527344 102.621094 C 137.347656 104.253906 138.054688 108.035156 140.5625 108.769531 C 140.664062 108.796875 140.761719 108.738281 140.804688 108.652344 C 140.832031 108.59375 140.835938 108.527344 140.796875 108.464844 C 139.964844 107.175781 138.941406 106.054688 138.140625 104.71875 C 137.472656 103.589844 136.757812 102.445312 135.695312 101.644531 C 135.285156 101.339844 134.847656 101.101562 134.382812 100.914062 C 133.617188 100.609375 132.792969 100.457031 131.960938 100.4375 C 130.917969 100.414062 129.871094 100.78125 128.835938 101.085938 C 128.003906 101.328125 127.179688 101.523438 126.378906 101.441406 C 126.300781 101.433594 126.222656 101.425781 126.144531 101.414062 C 125.902344 101.371094 125.726562 101.679688 125.929688 101.832031 C 125.9375 101.839844 125.945312 101.851562 125.957031 101.855469 Z M 165.007812 116.574219 C 165.015625 116.941406 165.050781 117.300781 165.195312 117.640625 C 165.242188 117.75 165.34375 117.804688 165.441406 117.78125 C 165.488281 117.769531 165.535156 117.742188 165.570312 117.691406 C 166.652344 116.105469 165.582031 112.871094 163.667969 112.390625 C 163.257812 112.285156 162.808594 112.304688 162.335938 112.496094 C 162.195312 112.554688 162.144531 112.675781 162.164062 112.785156 C 162.183594 112.886719 162.265625 112.976562 162.402344 112.996094 C 162.820312 113.046875 163.207031 113.128906 163.542969 113.261719 C 163.746094 113.34375 163.933594 113.441406 164.101562 113.570312 C 164.460938 113.839844 164.734375 114.226562 164.898438 114.789062 C 165.0625 115.367188 164.996094 115.980469 165.007812 116.574219 Z M 214.421875 118.246094 C 213.566406 117.84375 213.484375 117.164062 213.066406 116.386719 C 212.652344 115.613281 212.164062 114.929688 211.515625 114.339844 C 211.433594 114.269531 211.335938 114.25 211.242188 114.261719 C 211.027344 114.296875 210.84375 114.511719 210.996094 114.742188 C 211.015625 114.773438 211.03125 114.804688 211.046875 114.832031 C 211.074219 114.875 211.101562 114.917969 211.125 114.957031 C 211.804688 116.066406 212.242188 117.226562 212.863281 118.355469 C 213.292969 119.132812 213.953125 119.105469 214.71875 119.476562 C 215.050781 119.640625 215.324219 119.816406 215.550781 119.996094 C 216.640625 120.878906 216.53125 121.960938 216.046875 123.101562 C 215.4375 124.535156 214.238281 126.054688 214.082031 127.355469 C 214.066406 127.484375 214.238281 127.5625 214.335938 127.5 C 214.5625 127.355469 214.777344 127.179688 214.980469 126.976562 C 215.863281 126.09375 216.527344 124.75 216.945312 123.6875 C 217.390625 122.5625 217.5625 121.335938 217 120.21875 C 216.433594 119.101562 215.46875 118.734375 214.421875 118.246094 Z M 196.894531 105.355469 C 196.898438 105.421875 196.933594 105.488281 197.023438 105.527344 C 198.867188 106.332031 200.738281 107.039062 202.484375 108.050781 C 203.382812 108.574219 204.253906 109.128906 205.066406 109.78125 C 205.816406 110.382812 206.40625 111.226562 207.273438 111.632812 C 207.453125 111.714844 207.644531 111.597656 207.640625 111.410156 C 207.640625 111.390625 207.640625 111.371094 207.636719 111.351562 C 207.527344 110.832031 207.230469 110.347656 206.828125 109.902344 C 205.910156 108.878906 204.449219 108.0625 203.480469 107.484375 C 203.234375 107.339844 202.984375 107.199219 202.730469 107.058594 C 205.21875 106.464844 207.605469 105.320312 208.394531 102.863281 C 208.488281 102.570312 208.109375 102.386719 207.902344 102.574219 C 206.40625 103.9375 205.054688 105.007812 203.066406 105.59375 C 202.308594 105.816406 201.53125 105.976562 200.75 106.101562 C 199.609375 105.621094 198.429688 105.246094 197.21875 105.0625 C 197.042969 105.035156 196.886719 105.207031 196.894531 105.355469 Z M 166.164062 119.777344 C 166.214844 119.621094 166.277344 119.464844 166.339844 119.3125 C 166.714844 118.320312 167.199219 117.371094 167.769531 116.480469 C 168.894531 114.730469 170.34375 113.21875 171.925781 111.878906 C 172.160156 111.683594 172.394531 111.488281 172.636719 111.296875 C 173.582031 110.542969 174.574219 109.84375 175.582031 109.171875 C 176.390625 108.628906 177.238281 108.273438 177.710938 107.410156 C 177.773438 107.296875 177.734375 107.148438 177.640625 107.078125 C 177.601562 107.046875 177.554688 107.03125 177.5 107.035156 C 177.429688 107.039062 177.359375 107.046875 177.292969 107.054688 C 175.246094 106.773438 173.210938 106.394531 171.25 105.933594 C 167.242188 104.992188 163.585938 103.015625 161.847656 99.09375 C 161.71875 98.804688 161.253906 99.011719 161.339844 99.3125 C 162.378906 102.890625 165.589844 105.117188 168.949219 106.304688 C 171.082031 107.058594 173.332031 107.441406 175.558594 107.824219 C 175.132812 108.113281 174.722656 108.441406 174.3125 108.722656 C 173.324219 109.410156 172.355469 110.128906 171.429688 110.898438 C 169.335938 112.644531 167.453125 114.695312 166.167969 117.121094 C 165.96875 117.492188 165.804688 117.871094 165.65625 118.25 C 165.367188 119 165.140625 119.765625 164.859375 120.546875 C 164.773438 120.792969 164.65625 121.015625 164.527344 121.222656 C 164.089844 121.914062 163.476562 122.449219 163.089844 123.234375 C 162.441406 124.546875 162.316406 126.363281 163.207031 127.585938 C 163.28125 127.6875 163.359375 127.785156 163.449219 127.875 C 163.492188 127.925781 163.582031 127.875 163.5625 127.808594 C 163.335938 127.074219 163.128906 126.378906 163.105469 125.652344 C 163.09375 125.28125 163.128906 124.898438 163.242188 124.5 C 163.308594 124.261719 163.398438 124.058594 163.503906 123.875 C 163.988281 123.03125 164.796875 122.703125 165.410156 121.871094 C 165.722656 121.445312 165.855469 120.902344 165.992188 120.375 C 166.042969 120.171875 166.097656 119.96875 166.164062 119.777344 Z M 223.015625 98.316406 C 224.179688 99.421875 225.785156 100.542969 227.46875 100.242188 C 228.695312 100.023438 229.996094 99.304688 231.144531 98.84375 C 232.375 98.351562 233.59375 97.832031 234.84375 97.402344 C 237.464844 96.5 240.101562 96.175781 242.863281 96.191406 C 245.332031 96.203125 248.625 96.40625 250.75 97.746094 C 250.890625 97.832031 251.015625 97.613281 250.878906 97.523438 C 249.039062 96.367188 247.574219 95.613281 245.378906 95.398438 C 243.175781 95.1875 240.882812 95.308594 238.691406 95.613281 C 236.265625 95.949219 234.050781 96.722656 231.785156 97.628906 C 230.613281 98.09375 229.449219 98.570312 228.285156 99.058594 C 226.347656 99.871094 224.914062 99.222656 223.453125 97.878906 C 223.160156 97.605469 222.722656 98.039062 223.015625 98.316406 Z M 260.261719 112.226562 C 257.785156 115.734375 254.554688 117.546875 250.460938 118.6875 C 246.242188 119.867188 241.894531 120.542969 237.523438 120.765625 C 233.265625 120.988281 228.925781 120.796875 224.714844 120.101562 C 220.414062 119.390625 216.324219 118.007812 213.726562 114.292969 C 213.480469 113.941406 212.964844 114.242188 213.152344 114.628906 C 214.960938 118.371094 219.046875 120.148438 222.886719 120.988281 C 227.777344 122.058594 232.847656 122.398438 237.839844 122.121094 C 242.6875 121.851562 247.609375 121.019531 252.21875 119.46875 C 255.738281 118.285156 259.699219 116.285156 260.996094 112.535156 C 261.152344 112.078125 260.507812 111.878906 260.261719 112.226562 Z M 197.242188 114.953125 C 195.492188 114.367188 193.121094 115.136719 191.308594 115.355469 C 189.285156 115.601562 187.261719 115.851562 185.234375 116.101562 C 184.953125 113.363281 184.851562 110.488281 184.144531 107.835938 C 183.6875 106.136719 182.664062 104.007812 180.839844 103.46875 C 180.566406 103.386719 180.386719 103.738281 180.570312 103.933594 C 182.117188 105.605469 183.058594 106.980469 183.449219 109.3125 C 183.855469 111.734375 184.03125 114.21875 184.289062 116.664062 C 184.3125 116.914062 184.5 117.199219 184.789062 117.167969 C 187.074219 116.9375 189.355469 116.683594 191.636719 116.421875 C 193.394531 116.222656 195.773438 116.394531 197.300781 115.417969 C 197.488281 115.296875 197.449219 115.023438 197.242188 114.953125 Z M 212.472656 120.996094 C 212.160156 121.648438 212.109375 122.332031 211.867188 123 C 211.441406 124.175781 210.539062 125.128906 209.574219 125.878906 C 207.902344 127.179688 205.886719 127.941406 203.851562 128.453125 C 199.734375 129.496094 195.253906 129.8125 191.027344 130.070312 C 186.621094 130.335938 182.203125 130.078125 177.863281 129.230469 C 175.851562 128.835938 173.859375 128.320312 171.90625 127.6875 C 169.5625 126.925781 166.304688 126.046875 166.46875 122.996094 C 166.492188 122.53125 165.792969 122.449219 165.671875 122.886719 C 164.445312 127.367188 171.714844 128.796875 174.589844 129.550781 C 179.835938 130.925781 185.289062 131.453125 190.703125 131.164062 C 195.785156 130.890625 201.414062 130.570312 206.292969 129.003906 C 208.265625 128.371094 210.246094 127.402344 211.703125 125.890625 C 212.847656 124.707031 214.207031 122.601562 213.179688 120.996094 C 213.027344 120.757812 212.613281 120.703125 212.472656 120.996094 Z M 177.140625 83.105469 C 182.128906 84.664062 186.34375 86.890625 190.046875 90.664062 C 190.855469 91.484375 191.609375 92.355469 192.320312 93.261719 C 192.789062 93.855469 193.273438 94.578125 194.0625 94.761719 C 195.765625 95.152344 198.03125 92.847656 199.023438 91.722656 C 199.292969 91.414062 198.925781 90.835938 198.558594 91.113281 C 197.660156 91.792969 196.863281 92.84375 195.863281 93.339844 C 195.003906 93.769531 193.738281 93.613281 193.03125 92.921875 C 192.671875 92.574219 192.359375 92.0625 192.039062 91.675781 C 190.761719 90.152344 189.34375 88.757812 187.773438 87.539062 C 184.753906 85.195312 181.035156 83.171875 177.199219 82.679688 C 176.949219 82.648438 176.917969 83.035156 177.140625 83.105469 Z M 127.148438 98.289062 C 129.769531 96.417969 133.652344 95.683594 136.417969 97.753906 C 138.914062 99.621094 140.972656 102.242188 142.535156 104.917969 C 143.332031 106.28125 144.007812 107.710938 144.550781 109.191406 C 144.796875 109.855469 144.921875 110.875 145.632812 111.226562 C 146.589844 111.699219 148.222656 111.03125 149.144531 110.761719 C 150.328125 110.417969 151.710938 110.039062 152.585938 109.128906 C 152.714844 108.996094 152.632812 108.699219 152.417969 108.722656 C 150.941406 108.890625 149.53125 109.714844 148.074219 110.066406 C 147.742188 110.148438 147.320312 110.304688 146.972656 110.300781 C 146.207031 110.292969 145.933594 109.992188 145.632812 109.449219 C 145.320312 108.886719 145.164062 108.179688 144.90625 107.578125 C 143.6875 104.730469 141.992188 102.101562 139.914062 99.8125 C 138.125 97.839844 136.136719 95.871094 133.351562 95.6875 C 131.238281 95.550781 128.0625 96.019531 126.9375 98.078125 C 126.871094 98.203125 127.015625 98.382812 127.148438 98.289062 Z M 162.148438 119.050781 C 160.761719 120.882812 158.632812 122.140625 156.574219 123.058594 C 151.75 125.207031 146.378906 126.617188 141.105469 126.898438 C 135.382812 127.199219 129.238281 126.199219 123.796875 124.40625 C 119.8125 123.09375 116.082031 120.210938 116.238281 115.648438 C 116.246094 115.402344 116.601562 115.40625 116.617188 115.648438 C 116.914062 120.679688 122.195312 122.765625 126.324219 123.8125 C 130.964844 124.988281 135.703125 125.789062 140.5 125.632812 C 145.035156 125.488281 149.570312 124.398438 153.859375 122.945312 C 155.984375 122.222656 158.082031 121.261719 159.804688 119.792969 C 160.675781 119.050781 161.476562 118.1875 161.90625 117.113281 C 162.265625 116.222656 162.171875 115.351562 162.328125 114.429688 C 162.355469 114.246094 162.582031 114.238281 162.695312 114.332031 C 164.171875 115.535156 163.070312 117.835938 162.148438 119.050781 " fill-opacity="1" fill-rule="nonzero"/><path fill="#ffffff" d="M 164.878906 106 C 164.746094 105.511719 164.058594 105.722656 164.140625 106.203125 C 164.320312 107.289062 164.527344 108.363281 164.796875 109.425781 C 165.015625 110.296875 165.164062 111.179688 165.71875 111.898438 C 165.917969 112.152344 166.277344 111.917969 166.296875 111.660156 C 166.363281 110.738281 165.953125 109.839844 165.710938 108.960938 C 165.433594 107.972656 165.148438 106.988281 164.878906 106 Z M 230.203125 137.402344 C 229.011719 137.097656 227.78125 137.191406 226.59375 136.816406 C 225.234375 136.386719 224.007812 135.664062 222.921875 134.738281 C 220.96875 133.074219 219.632812 130.863281 218.34375 128.671875 C 218.160156 128.355469 217.605469 128.5625 217.738281 128.925781 C 218.777344 131.695312 220.367188 134.347656 222.722656 136.1875 C 224.621094 137.667969 227.917969 139.296875 230.292969 138.105469 C 230.59375 137.957031 230.511719 137.480469 230.203125 137.402344 Z M 179.839844 145.648438 C 178.515625 145.433594 177.324219 145.484375 176.085938 144.828125 C 174.804688 144.152344 173.769531 143.046875 172.914062 141.890625 C 171.425781 139.871094 170.410156 137.613281 169.203125 135.433594 C 169.039062 135.132812 168.589844 135.339844 168.667969 135.660156 C 169.351562 138.605469 171.019531 141.648438 173.003906 143.914062 C 174.550781 145.679688 177.574219 147.683594 179.929688 146.355469 C 180.199219 146.203125 180.175781 145.703125 179.839844 145.648438 Z M 127.144531 136.402344 C 125.34375 135.492188 123.527344 134.972656 122.023438 133.53125 C 120.441406 132.011719 119.523438 130.074219 119.175781 127.921875 C 119.109375 127.507812 118.398438 127.601562 118.441406 128.023438 C 118.890625 132.097656 122.308594 137.398438 127.003906 136.914062 C 127.25 136.886719 127.410156 136.535156 127.144531 136.402344 Z M 255.449219 104.203125 C 255.207031 103.875 254.671875 104.167969 254.894531 104.527344 C 255.953125 106.234375 256.882812 107.988281 256.296875 110.050781 C 255.828125 111.683594 254.605469 112.761719 253.960938 114.265625 C 253.84375 114.539062 254.109375 114.941406 254.421875 114.726562 C 255.925781 113.695312 257.003906 111.558594 257.304688 109.785156 C 257.675781 107.585938 256.707031 105.917969 255.449219 104.203125 Z M 232.21875 118.519531 C 231.726562 118.289062 231.199219 118.355469 230.667969 118.339844 C 229.984375 118.320312 229.328125 118.179688 228.683594 117.964844 C 228.125 117.777344 227.921875 118.621094 228.445312 118.828125 C 229.476562 119.238281 231.316406 119.8125 232.28125 119 C 232.421875 118.882812 232.386719 118.597656 232.21875 118.519531 Z M 222.894531 118.523438 C 223.214844 118.414062 223.304688 117.964844 222.992188 117.78125 C 222.054688 117.234375 220.980469 117.046875 220.070312 116.421875 C 218.851562 115.585938 217.9375 114.332031 217.613281 112.875 C 216.835938 109.386719 219.269531 106.25 221.332031 103.746094 C 221.613281 103.40625 221.175781 102.945312 220.839844 103.253906 C 218.066406 105.820312 215.355469 109.4375 216.335938 113.476562 C 216.945312 115.988281 220 119.503906 222.894531 118.523438 Z M 170.964844 102.304688 C 170.589844 102.097656 170.269531 102.652344 170.628906 102.878906 C 171.621094 103.5 173.253906 104.359375 174.425781 103.839844 C 174.597656 103.765625 174.574219 103.496094 174.425781 103.414062 C 173.933594 103.140625 173.367188 103.144531 172.824219 103.023438 C 172.167969 102.875 171.554688 102.628906 170.964844 102.304688 Z M 166.625 97.566406 C 166.554688 96.285156 166.941406 95.066406 167.574219 93.960938 C 168.773438 91.859375 171.21875 89.3125 173.441406 88.328125 C 173.691406 88.21875 173.511719 87.816406 173.261719 87.894531 C 170.253906 88.789062 167.121094 91.6875 165.914062 94.59375 C 165.050781 96.660156 164.972656 100.347656 167.382812 101.4375 C 167.746094 101.605469 168.164062 101.257812 167.949219 100.867188 C 167.34375 99.757812 166.695312 98.886719 166.625 97.566406 Z M 180.136719 126.980469 C 179.542969 126.648438 178.78125 126.753906 178.117188 126.683594 C 177.191406 126.582031 176.324219 126.328125 175.636719 125.664062 C 175.253906 125.300781 174.695312 125.863281 175.058594 126.25 C 175.710938 126.941406 176.542969 127.347656 177.46875 127.550781 C 178.273438 127.722656 179.390625 127.933594 180.136719 127.507812 C 180.335938 127.398438 180.339844 127.089844 180.136719 126.980469 Z M 171.242188 124.273438 C 171.628906 124.296875 171.789062 123.789062 171.546875 123.53125 C 171.203125 123.171875 170.78125 122.957031 170.429688 122.613281 C 169.714844 121.921875 169.640625 121.179688 169.777344 120.257812 C 169.976562 118.914062 170.488281 117.625 171.226562 116.484375 C 172.652344 114.261719 174.820312 112.6875 177.023438 111.3125 C 177.226562 111.1875 177.101562 110.839844 176.859375 110.917969 C 173.441406 111.996094 170.554688 114.40625 169.117188 117.757812 C 168.085938 120.164062 167.6875 124.035156 171.242188 124.273438 Z M 131.894531 121.851562 C 131.097656 121.699219 130.277344 121.785156 129.472656 121.65625 C 128.488281 121.5 127.59375 121.125 126.753906 120.585938 C 126.339844 120.320312 125.976562 120.96875 126.371094 121.242188 C 127.835938 122.269531 130.226562 123.234375 131.957031 122.34375 C 132.15625 122.242188 132.121094 121.890625 131.894531 121.851562 Z M 122.367188 119.707031 C 122.703125 119.75 122.78125 119.308594 122.613281 119.101562 C 121.832031 118.136719 120.933594 117.472656 120.445312 116.277344 C 119.871094 114.886719 119.867188 113.363281 120.257812 111.917969 C 121.011719 109.132812 123.003906 106.984375 124.804688 104.828125 C 125.066406 104.511719 124.660156 104.089844 124.351562 104.371094 C 121.769531 106.722656 119.257812 109.574219 118.816406 113.1875 C 118.519531 115.585938 119.554688 119.339844 122.367188 119.707031 Z M 234.5625 93.71875 C 232.84375 93.746094 231.214844 94.253906 229.585938 94.765625 C 227.96875 95.277344 226.292969 95.785156 224.804688 96.597656 C 224.445312 96.792969 224.699219 97.316406 225.070312 97.238281 C 226.796875 96.867188 228.476562 96.210938 230.167969 95.703125 C 231.703125 95.242188 233.242188 94.875 234.679688 94.152344 C 234.886719 94.046875 234.785156 93.710938 234.5625 93.71875 Z M 193.832031 85.425781 C 191.972656 83.980469 189.957031 82.417969 187.828125 81.394531 C 187.542969 81.257812 187.210938 81.617188 187.472656 81.859375 C 188.914062 83.207031 190.625 84.265625 192.203125 85.445312 C 193.925781 86.730469 195.296875 88.234375 196.875 89.664062 C 197.015625 89.792969 197.257812 89.671875 197.203125 89.476562 C 196.699219 87.757812 195.195312 86.488281 193.832031 85.425781 Z M 194.019531 104.992188 C 194.351562 106.28125 194.769531 107.550781 195.074219 108.851562 C 195.378906 110.136719 195.464844 111.519531 195.949219 112.746094 C 196.078125 113.066406 196.503906 113.015625 196.539062 112.667969 C 196.808594 110.15625 195.667969 106.980469 194.613281 104.738281 C 194.453125 104.394531 193.925781 104.640625 194.019531 104.992188 Z M 148.496094 100.246094 C 149.507812 101.59375 150.832031 103.285156 151.050781 105 C 151.082031 105.222656 150.757812 105.332031 150.621094 105.179688 C 149.523438 103.960938 148.925781 102.234375 147.960938 100.878906 C 146.796875 99.238281 145.46875 97.75 143.972656 96.410156 C 143.722656 96.1875 144.082031 95.851562 144.328125 96.050781 C 145.875 97.285156 147.300781 98.660156 148.496094 100.246094 " fill-opacity="1" fill-rule="nonzero"/><g fill="#ffffff" fill-opacity="1"><g transform="translate(81.082176, 194.013268)"><g><path d="M 11.140625 -28.265625 L 10.875 -28.265625 C 10.65625 -25.867188 10.273438 -21.382812 9.734375 -14.8125 C 9.191406 -8.238281 8.921875 -4.660156 8.921875 -4.078125 C 8.921875 -2.953125 9.476562 -2.390625 10.59375 -2.390625 L 12.828125 -2.453125 L 12.9375 -2.234375 L 12.453125 0.21875 C 12.046875 0.175781 11.328125 0.128906 10.296875 0.078125 C 9.265625 0.0234375 8.222656 0 7.171875 0 C 6.265625 0 5.332031 0.0625 4.375 0.1875 C 3.414062 0.3125 2.789062 0.394531 2.5 0.4375 L 2.765625 -2.0625 C 3.929688 -2.207031 4.765625 -2.578125 5.265625 -3.171875 C 5.773438 -3.773438 6.101562 -4.800781 6.25 -6.25 C 6.613281 -9.65625 7.09375 -14.25 7.6875 -20.03125 C 8.289062 -25.8125 8.59375 -29.046875 8.59375 -29.734375 C 8.59375 -30.671875 8.21875 -31.375 7.46875 -31.84375 C 6.726562 -32.320312 5.539062 -32.613281 3.90625 -32.71875 L 3.75 -33 L 4.1875 -34.90625 C 4.65625 -34.863281 5.578125 -34.804688 6.953125 -34.734375 C 8.335938 -34.660156 9.390625 -34.625 10.109375 -34.625 C 10.765625 -34.625 11.476562 -34.648438 12.25 -34.703125 C 13.03125 -34.765625 13.550781 -34.8125 13.8125 -34.84375 C 15.257812 -30.164062 16.660156 -25.820312 18.015625 -21.8125 C 19.378906 -17.8125 20.492188 -14.632812 21.359375 -12.28125 C 22.234375 -9.925781 22.78125 -8.457031 23 -7.875 L 23.265625 -7.875 C 23.773438 -9.21875 24.9375 -12.40625 26.75 -17.4375 C 28.5625 -22.476562 30.535156 -28.242188 32.671875 -34.734375 C 32.671875 -34.773438 33.160156 -34.757812 34.140625 -34.6875 L 36.25 -34.625 C 36.945312 -34.625 37.984375 -34.671875 39.359375 -34.765625 C 40.734375 -34.859375 41.65625 -34.921875 42.125 -34.953125 L 42.234375 -34.734375 L 41.96875 -32.71875 C 40.40625 -32.539062 39.296875 -32.222656 38.640625 -31.765625 C 37.992188 -31.316406 37.671875 -30.640625 37.671875 -29.734375 C 37.671875 -28.929688 37.832031 -25.96875 38.15625 -20.84375 C 38.488281 -15.71875 38.796875 -11.289062 39.078125 -7.5625 C 39.265625 -6.070312 39.445312 -4.972656 39.625 -4.265625 C 39.8125 -3.554688 40.066406 -3.066406 40.390625 -2.796875 C 40.710938 -2.523438 41.164062 -2.390625 41.75 -2.390625 C 42.070312 -2.390625 42.378906 -2.40625 42.671875 -2.4375 C 42.960938 -2.476562 43.160156 -2.5 43.265625 -2.5 L 43.375 -2.28125 L 42.890625 0.15625 C 42.523438 0.125 41.84375 0.0859375 40.84375 0.046875 C 39.851562 0.015625 38.8125 0 37.71875 0 C 36.738281 0 35.640625 0.0625 34.421875 0.1875 C 33.210938 0.3125 32.429688 0.394531 32.078125 0.4375 L 32.296875 -2.0625 C 33.410156 -2.207031 34.222656 -2.5 34.734375 -2.9375 C 35.242188 -3.375 35.5 -3.988281 35.5 -4.78125 C 35.5 -5.539062 35.234375 -9.070312 34.703125 -15.375 C 34.179688 -21.6875 33.832031 -25.984375 33.65625 -28.265625 L 33.375 -28.265625 L 22.890625 0.65625 L 21.578125 1.03125 Z M 11.140625 -28.265625 "/></g></g></g><g fill="#ffffff" fill-opacity="1"><g transform="translate(129.564284, 194.013268)"><g><path d="M 17.234375 0.65625 C 14.296875 0.65625 11.6875 -0.0507812 9.40625 -1.46875 C 7.125 -2.882812 5.347656 -4.867188 4.078125 -7.421875 C 2.804688 -9.972656 2.171875 -12.878906 2.171875 -16.140625 C 2.171875 -19.691406 2.957031 -22.925781 4.53125 -25.84375 C 6.113281 -28.757812 8.269531 -31.0625 11 -32.75 C 13.738281 -34.4375 16.757812 -35.28125 20.0625 -35.28125 C 23.070312 -35.28125 25.734375 -34.570312 28.046875 -33.15625 C 30.367188 -31.75 32.179688 -29.773438 33.484375 -27.234375 C 34.785156 -24.691406 35.4375 -21.789062 35.4375 -18.53125 C 35.4375 -14.976562 34.628906 -11.734375 33.015625 -8.796875 C 31.410156 -5.867188 29.21875 -3.5625 26.4375 -1.875 C 23.664062 -0.1875 20.597656 0.65625 17.234375 0.65625 Z M 18.921875 -2.125 C 21.203125 -2.125 23.226562 -2.71875 25 -3.90625 C 26.78125 -5.101562 28.160156 -6.769531 29.140625 -8.90625 C 30.117188 -11.050781 30.609375 -13.5 30.609375 -16.25 C 30.609375 -19.332031 30.082031 -22.0625 29.03125 -24.4375 C 27.976562 -26.8125 26.519531 -28.664062 24.65625 -30 C 22.789062 -31.34375 20.640625 -32.015625 18.203125 -32.015625 C 15.992188 -32.015625 14.03125 -31.414062 12.3125 -30.21875 C 10.59375 -29.03125 9.25 -27.363281 8.28125 -25.21875 C 7.320312 -23.082031 6.84375 -20.640625 6.84375 -17.890625 C 6.84375 -14.804688 7.347656 -12.078125 8.359375 -9.703125 C 9.378906 -7.328125 10.804688 -5.46875 12.640625 -4.125 C 14.472656 -2.789062 16.566406 -2.125 18.921875 -2.125 Z M 18.921875 -2.125 "/></g></g></g><g fill="#ffffff" fill-opacity="1"><g transform="translate(169.621894, 194.013268)"><g><path d="M 11.140625 -28.265625 L 10.875 -28.265625 C 10.65625 -25.867188 10.273438 -21.382812 9.734375 -14.8125 C 9.191406 -8.238281 8.921875 -4.660156 8.921875 -4.078125 C 8.921875 -2.953125 9.476562 -2.390625 10.59375 -2.390625 L 12.828125 -2.453125 L 12.9375 -2.234375 L 12.453125 0.21875 C 12.046875 0.175781 11.328125 0.128906 10.296875 0.078125 C 9.265625 0.0234375 8.222656 0 7.171875 0 C 6.265625 0 5.332031 0.0625 4.375 0.1875 C 3.414062 0.3125 2.789062 0.394531 2.5 0.4375 L 2.765625 -2.0625 C 3.929688 -2.207031 4.765625 -2.578125 5.265625 -3.171875 C 5.773438 -3.773438 6.101562 -4.800781 6.25 -6.25 C 6.613281 -9.65625 7.09375 -14.25 7.6875 -20.03125 C 8.289062 -25.8125 8.59375 -29.046875 8.59375 -29.734375 C 8.59375 -30.671875 8.21875 -31.375 7.46875 -31.84375 C 6.726562 -32.320312 5.539062 -32.613281 3.90625 -32.71875 L 3.75 -33 L 4.1875 -34.90625 C 4.65625 -34.863281 5.578125 -34.804688 6.953125 -34.734375 C 8.335938 -34.660156 9.390625 -34.625 10.109375 -34.625 C 10.765625 -34.625 11.476562 -34.648438 12.25 -34.703125 C 13.03125 -34.765625 13.550781 -34.8125 13.8125 -34.84375 C 15.257812 -30.164062 16.660156 -25.820312 18.015625 -21.8125 C 19.378906 -17.8125 20.492188 -14.632812 21.359375 -12.28125 C 22.234375 -9.925781 22.78125 -8.457031 23 -7.875 L 23.265625 -7.875 C 23.773438 -9.21875 24.9375 -12.40625 26.75 -17.4375 C 28.5625 -22.476562 30.535156 -28.242188 32.671875 -34.734375 C 32.671875 -34.773438 33.160156 -34.757812 34.140625 -34.6875 L 36.25 -34.625 C 36.945312 -34.625 37.984375 -34.671875 39.359375 -34.765625 C 40.734375 -34.859375 41.65625 -34.921875 42.125 -34.953125 L 42.234375 -34.734375 L 41.96875 -32.71875 C 40.40625 -32.539062 39.296875 -32.222656 38.640625 -31.765625 C 37.992188 -31.316406 37.671875 -30.640625 37.671875 -29.734375 C 37.671875 -28.929688 37.832031 -25.96875 38.15625 -20.84375 C 38.488281 -15.71875 38.796875 -11.289062 39.078125 -7.5625 C 39.265625 -6.070312 39.445312 -4.972656 39.625 -4.265625 C 39.8125 -3.554688 40.066406 -3.066406 40.390625 -2.796875 C 40.710938 -2.523438 41.164062 -2.390625 41.75 -2.390625 C 42.070312 -2.390625 42.378906 -2.40625 42.671875 -2.4375 C 42.960938 -2.476562 43.160156 -2.5 43.265625 -2.5 L 43.375 -2.28125 L 42.890625 0.15625 C 42.523438 0.125 41.84375 0.0859375 40.84375 0.046875 C 39.851562 0.015625 38.8125 0 37.71875 0 C 36.738281 0 35.640625 0.0625 34.421875 0.1875 C 33.210938 0.3125 32.429688 0.394531 32.078125 0.4375 L 32.296875 -2.0625 C 33.410156 -2.207031 34.222656 -2.5 34.734375 -2.9375 C 35.242188 -3.375 35.5 -3.988281 35.5 -4.78125 C 35.5 -5.539062 35.234375 -9.070312 34.703125 -15.375 C 34.179688 -21.6875 33.832031 -25.984375 33.65625 -28.265625 L 33.375 -28.265625 L 22.890625 0.65625 L 21.578125 1.03125 Z M 11.140625 -28.265625 "/></g></g></g><g fill="#ffffff" fill-opacity="1"><g transform="translate(218.103996, 194.013268)"><g><path d="M 11.140625 -28.265625 L 10.875 -28.265625 C 10.65625 -25.867188 10.273438 -21.382812 9.734375 -14.8125 C 9.191406 -8.238281 8.921875 -4.660156 8.921875 -4.078125 C 8.921875 -2.953125 9.476562 -2.390625 10.59375 -2.390625 L 12.828125 -2.453125 L 12.9375 -2.234375 L 12.453125 0.21875 C 12.046875 0.175781 11.328125 0.128906 10.296875 0.078125 C 9.265625 0.0234375 8.222656 0 7.171875 0 C 6.265625 0 5.332031 0.0625 4.375 0.1875 C 3.414062 0.3125 2.789062 0.394531 2.5 0.4375 L 2.765625 -2.0625 C 3.929688 -2.207031 4.765625 -2.578125 5.265625 -3.171875 C 5.773438 -3.773438 6.101562 -4.800781 6.25 -6.25 C 6.613281 -9.65625 7.09375 -14.25 7.6875 -20.03125 C 8.289062 -25.8125 8.59375 -29.046875 8.59375 -29.734375 C 8.59375 -30.671875 8.21875 -31.375 7.46875 -31.84375 C 6.726562 -32.320312 5.539062 -32.613281 3.90625 -32.71875 L 3.75 -33 L 4.1875 -34.90625 C 4.65625 -34.863281 5.578125 -34.804688 6.953125 -34.734375 C 8.335938 -34.660156 9.390625 -34.625 10.109375 -34.625 C 10.765625 -34.625 11.476562 -34.648438 12.25 -34.703125 C 13.03125 -34.765625 13.550781 -34.8125 13.8125 -34.84375 C 15.257812 -30.164062 16.660156 -25.820312 18.015625 -21.8125 C 19.378906 -17.8125 20.492188 -14.632812 21.359375 -12.28125 C 22.234375 -9.925781 22.78125 -8.457031 23 -7.875 L 23.265625 -7.875 C 23.773438 -9.21875 24.9375 -12.40625 26.75 -17.4375 C 28.5625 -22.476562 30.535156 -28.242188 32.671875 -34.734375 C 32.671875 -34.773438 33.160156 -34.757812 34.140625 -34.6875 L 36.25 -34.625 C 36.945312 -34.625 37.984375 -34.671875 39.359375 -34.765625 C 40.734375 -34.859375 41.65625 -34.921875 42.125 -34.953125 L 42.234375 -34.734375 L 41.96875 -32.71875 C 40.40625 -32.539062 39.296875 -32.222656 38.640625 -31.765625 C 37.992188 -31.316406 37.671875 -30.640625 37.671875 -29.734375 C 37.671875 -28.929688 37.832031 -25.96875 38.15625 -20.84375 C 38.488281 -15.71875 38.796875 -11.289062 39.078125 -7.5625 C 39.265625 -6.070312 39.445312 -4.972656 39.625 -4.265625 C 39.8125 -3.554688 40.066406 -3.066406 40.390625 -2.796875 C 40.710938 -2.523438 41.164062 -2.390625 41.75 -2.390625 C 42.070312 -2.390625 42.378906 -2.40625 42.671875 -2.4375 C 42.960938 -2.476562 43.160156 -2.5 43.265625 -2.5 L 43.375 -2.28125 L 42.890625 0.15625 C 42.523438 0.125 41.84375 0.0859375 40.84375 0.046875 C 39.851562 0.015625 38.8125 0 37.71875 0 C 36.738281 0 35.640625 0.0625 34.421875 0.1875 C 33.210938 0.3125 32.429688 0.394531 32.078125 0.4375 L 32.296875 -2.0625 C 33.410156 -2.207031 34.222656 -2.5 34.734375 -2.9375 C 35.242188 -3.375 35.5 -3.988281 35.5 -4.78125 C 35.5 -5.539062 35.234375 -9.070312 34.703125 -15.375 C 34.179688 -21.6875 33.832031 -25.984375 33.65625 -28.265625 L 33.375 -28.265625 L 22.890625 0.65625 L 21.578125 1.03125 Z M 11.140625 -28.265625 "/></g></g></g><g fill="#ffffff" fill-opacity="1"><g transform="translate(266.586109, 194.013268)"><g><path d="M 8.15625 -1.84375 C 9.457031 -2.101562 10.394531 -2.429688 10.96875 -2.828125 C 11.550781 -3.222656 11.929688 -3.765625 12.109375 -4.453125 C 12.296875 -5.140625 12.390625 -6.226562 12.390625 -7.71875 L 12.390625 -10.109375 C 12.390625 -11.234375 12.28125 -12.21875 12.0625 -13.0625 C 11.84375 -13.914062 11.425781 -14.976562 10.8125 -16.25 L 5.921875 -26.203125 C 4.984375 -28.117188 4.3125 -29.410156 3.90625 -30.078125 C 3.507812 -30.753906 2.945312 -31.289062 2.21875 -31.6875 C 1.5 -32.09375 0.453125 -32.347656 -0.921875 -32.453125 L -1.03125 -32.671875 L -0.703125 -34.796875 C -0.304688 -34.753906 0.453125 -34.710938 1.578125 -34.671875 C 2.703125 -34.640625 3.929688 -34.625 5.265625 -34.625 C 6.535156 -34.625 8.015625 -34.6875 9.703125 -34.8125 C 11.390625 -34.9375 12.484375 -35.019531 12.984375 -35.0625 L 13.15625 -34.6875 L 12.984375 -32.78125 C 11.359375 -32.632812 10.265625 -32.425781 9.703125 -32.15625 C 9.140625 -31.882812 8.859375 -31.441406 8.859375 -30.828125 C 8.859375 -30.347656 9.3125 -29.054688 10.21875 -26.953125 C 11.125 -24.859375 12.054688 -22.796875 13.015625 -20.765625 C 13.972656 -18.734375 14.617188 -17.410156 14.953125 -16.796875 L 15.21875 -16.796875 L 21.421875 -28.328125 C 21.992188 -29.367188 22.28125 -30.273438 22.28125 -31.046875 C 22.28125 -31.984375 21.140625 -32.523438 18.859375 -32.671875 L 18.75 -32.890625 L 19.078125 -35 C 19.515625 -34.96875 20.421875 -34.894531 21.796875 -34.78125 C 23.171875 -34.675781 24.273438 -34.625 25.109375 -34.625 C 25.984375 -34.625 26.953125 -34.648438 28.015625 -34.703125 C 29.085938 -34.765625 29.785156 -34.8125 30.109375 -34.84375 L 30.328125 -34.46875 L 30 -32.453125 C 28.84375 -32.234375 27.9375 -31.929688 27.28125 -31.546875 C 26.632812 -31.171875 26.066406 -30.628906 25.578125 -29.921875 C 25.085938 -29.210938 24.367188 -28.023438 23.421875 -26.359375 C 23.210938 -25.929688 23.035156 -25.609375 22.890625 -25.390625 L 17.453125 -15.8125 C 16.984375 -14.976562 16.679688 -14.035156 16.546875 -12.984375 C 16.421875 -11.941406 16.320312 -10.039062 16.25 -7.28125 L 16.25 -6.09375 C 16.21875 -4.675781 16.375 -3.703125 16.71875 -3.171875 C 17.0625 -2.648438 17.703125 -2.390625 18.640625 -2.390625 C 19.222656 -2.390625 19.765625 -2.40625 20.265625 -2.4375 C 20.773438 -2.476562 21.125 -2.519531 21.3125 -2.5625 L 21.421875 -2.34375 L 20.921875 0.15625 C 20.421875 0.125 19.488281 0.0859375 18.125 0.046875 C 16.769531 0.015625 15.40625 0 14.03125 0 C 12.90625 0 11.6875 0.0859375 10.375 0.265625 C 9.070312 0.453125 8.222656 0.582031 7.828125 0.65625 Z M 8.15625 -1.84375 "/></g></g></g><g fill="#ffffff" fill-opacity="1"><g transform="translate(147.66811, 245.763265)"><g><path d="M 35.359375 -1.40625 C 38.429688 -3.8125 41.203125 -6.367188 43.671875 -9.078125 C 46.140625 -11.785156 48.234375 -14.523438 49.953125 -17.296875 C 51.679688 -20.066406 53.003906 -22.828125 53.921875 -25.578125 C 54.847656 -28.328125 55.3125 -30.945312 55.3125 -33.4375 C 55.3125 -34.894531 55.15625 -36.25 54.84375 -37.5 C 54.539062 -38.757812 54.097656 -39.84375 53.515625 -40.75 C 52.929688 -41.664062 52.226562 -42.382812 51.40625 -42.90625 C 50.582031 -43.425781 49.65625 -43.6875 48.625 -43.6875 L 48.125 -43.6875 C 47.820312 -43.6875 47.566406 -43.773438 47.359375 -43.953125 C 47.160156 -44.128906 47.0625 -44.367188 47.0625 -44.671875 C 47.0625 -45.097656 47.210938 -45.375 47.515625 -45.5 C 47.828125 -45.632812 48.179688 -45.703125 48.578125 -45.703125 C 49.867188 -45.703125 51.050781 -45.398438 52.125 -44.796875 C 53.207031 -44.203125 54.128906 -43.363281 54.890625 -42.28125 C 55.648438 -41.195312 56.242188 -39.921875 56.671875 -38.453125 C 57.097656 -36.984375 57.3125 -35.394531 57.3125 -33.6875 C 57.3125 -30.882812 56.828125 -28.007812 55.859375 -25.0625 C 54.890625 -22.125 53.460938 -19.160156 51.578125 -16.171875 C 49.703125 -13.191406 47.367188 -10.222656 44.578125 -7.265625 C 41.785156 -4.316406 38.578125 -1.4375 34.953125 1.375 C 34.867188 1.445312 34.753906 1.523438 34.609375 1.609375 C 34.472656 1.703125 34.304688 1.75 34.109375 1.75 C 33.773438 1.75 33.523438 1.640625 33.359375 1.421875 C 33.203125 1.203125 33.125 0.941406 33.125 0.640625 C 33.125 0.515625 33.132812 0.257812 33.15625 -0.125 C 33.1875 -0.519531 33.21875 -1 33.25 -1.5625 C 33.289062 -2.132812 33.335938 -2.757812 33.390625 -3.4375 C 33.441406 -4.113281 33.484375 -4.800781 33.515625 -5.5 C 33.554688 -6.207031 33.585938 -6.882812 33.609375 -7.53125 C 33.640625 -8.1875 33.65625 -8.773438 33.65625 -9.296875 C 33.675781 -13.171875 33.382812 -16.75 32.78125 -20.03125 C 32.175781 -23.3125 31.21875 -26.15625 29.90625 -28.5625 C 28.601562 -30.96875 26.921875 -32.847656 24.859375 -34.203125 C 22.796875 -35.554688 20.304688 -36.234375 17.390625 -36.234375 C 15.210938 -36.234375 13.296875 -35.9375 11.640625 -35.34375 C 9.984375 -34.75 8.597656 -33.960938 7.484375 -32.984375 C 6.367188 -32.015625 5.523438 -30.914062 4.953125 -29.6875 C 4.390625 -28.457031 4.109375 -27.207031 4.109375 -25.9375 C 4.109375 -24.800781 4.296875 -23.785156 4.671875 -22.890625 C 5.054688 -21.992188 5.582031 -21.234375 6.25 -20.609375 C 6.914062 -19.984375 7.695312 -19.503906 8.59375 -19.171875 C 9.5 -18.847656 10.472656 -18.6875 11.515625 -18.6875 C 12.398438 -18.6875 13.203125 -18.78125 13.921875 -18.96875 C 14.648438 -19.164062 15.269531 -19.382812 15.78125 -19.625 C 16.300781 -19.863281 16.707031 -20.082031 17 -20.28125 C 17.289062 -20.488281 17.453125 -20.613281 17.484375 -20.65625 C 17.578125 -20.738281 17.679688 -20.789062 17.796875 -20.8125 C 17.910156 -20.84375 18.019531 -20.859375 18.125 -20.859375 C 18.394531 -20.859375 18.625 -20.773438 18.8125 -20.609375 C 19.007812 -20.441406 19.109375 -20.21875 19.109375 -19.9375 C 19.109375 -19.59375 18.992188 -19.332031 18.765625 -19.15625 C 18.734375 -19.125 18.539062 -18.976562 18.1875 -18.71875 C 17.832031 -18.46875 17.335938 -18.195312 16.703125 -17.90625 C 16.078125 -17.613281 15.320312 -17.34375 14.4375 -17.09375 C 13.550781 -16.84375 12.570312 -16.71875 11.5 -16.71875 C 10.164062 -16.71875 8.921875 -16.9375 7.765625 -17.375 C 6.617188 -17.820312 5.628906 -18.453125 4.796875 -19.265625 C 3.972656 -20.078125 3.320312 -21.046875 2.84375 -22.171875 C 2.363281 -23.296875 2.125 -24.539062 2.125 -25.90625 C 2.125 -27.425781 2.453125 -28.921875 3.109375 -30.390625 C 3.765625 -31.859375 4.734375 -33.164062 6.015625 -34.3125 C 7.296875 -35.46875 8.878906 -36.394531 10.765625 -37.09375 C 12.648438 -37.789062 14.832031 -38.140625 17.3125 -38.140625 C 20.507812 -38.140625 23.257812 -37.441406 25.5625 -36.046875 C 27.875 -34.660156 29.773438 -32.703125 31.265625 -30.171875 C 32.765625 -27.648438 33.875 -24.601562 34.59375 -21.03125 C 35.3125 -17.46875 35.671875 -13.507812 35.671875 -9.15625 C 35.671875 -7.9375 35.644531 -6.675781 35.59375 -5.375 C 35.539062 -4.070312 35.460938 -2.75 35.359375 -1.40625 Z M 35.359375 -1.40625 "/></g></g></g><g fill="#ffffff" fill-opacity="1"><g transform="translate(206.350256, 245.763265)"><g><path d="M 3.953125 -31.109375 C 3.921875 -30.859375 3.804688 -30.648438 3.609375 -30.484375 C 3.410156 -30.316406 3.191406 -30.234375 2.953125 -30.234375 C 2.703125 -30.234375 2.472656 -30.328125 2.265625 -30.515625 C 2.066406 -30.710938 1.96875 -30.960938 1.96875 -31.265625 C 1.96875 -31.335938 1.96875 -31.410156 1.96875 -31.484375 C 1.976562 -31.566406 1.992188 -31.671875 2.015625 -31.796875 L 2.6875 -37.3125 C 2.71875 -37.582031 2.828125 -37.796875 3.015625 -37.953125 C 3.210938 -38.109375 3.4375 -38.1875 3.6875 -38.1875 C 3.988281 -38.1875 4.226562 -38.082031 4.40625 -37.875 C 4.582031 -37.675781 4.671875 -37.445312 4.671875 -37.1875 C 4.671875 -37.113281 4.65625 -36.957031 4.625 -36.71875 C 4.601562 -36.476562 4.582031 -36.296875 4.5625 -36.171875 Z M 3.953125 -31.109375 "/></g></g></g><g fill="#ffffff" fill-opacity="1"><g transform="translate(215.431297, 245.763265)"><g><path d="M 3.953125 -9.828125 C 3.847656 -9.535156 3.71875 -9.210938 3.5625 -8.859375 C 3.414062 -8.503906 3.242188 -8.132812 3.046875 -7.75 C 2.890625 -7.445312 2.726562 -7.210938 2.5625 -7.046875 C 2.394531 -6.878906 2.175781 -6.796875 1.90625 -6.796875 C 1.601562 -6.796875 1.363281 -6.890625 1.1875 -7.078125 C 1.007812 -7.265625 0.921875 -7.476562 0.921875 -7.71875 C 0.921875 -7.8125 0.929688 -7.890625 0.953125 -7.953125 C 0.972656 -8.015625 1.019531 -8.113281 1.09375 -8.25 C 1.550781 -9.132812 1.890625 -9.910156 2.109375 -10.578125 C 2.328125 -11.242188 2.507812 -11.9375 2.65625 -12.65625 C 2.53125 -13.0625 2.441406 -13.40625 2.390625 -13.6875 C 2.335938 -13.976562 2.3125 -14.273438 2.3125 -14.578125 C 2.3125 -15.160156 2.429688 -15.628906 2.671875 -15.984375 C 2.921875 -16.347656 3.269531 -16.53125 3.71875 -16.53125 C 4.125 -16.53125 4.445312 -16.351562 4.6875 -16 C 4.925781 -15.644531 5.046875 -15.210938 5.046875 -14.703125 C 5.046875 -14.421875 5.019531 -14.140625 4.96875 -13.859375 C 4.914062 -13.578125 4.84375 -13.222656 4.75 -12.796875 C 5.15625 -11.785156 5.5625 -10.890625 5.96875 -10.109375 C 6.375 -9.328125 6.734375 -8.613281 7.046875 -7.96875 C 7.367188 -7.320312 7.632812 -6.71875 7.84375 -6.15625 C 8.050781 -5.59375 8.15625 -5.023438 8.15625 -4.453125 C 8.15625 -3.710938 8.003906 -3.003906 7.703125 -2.328125 C 7.398438 -1.660156 6.90625 -1.097656 6.21875 -0.640625 C 6.300781 -0.617188 6.382812 -0.609375 6.46875 -0.609375 C 6.5625 -0.609375 6.648438 -0.609375 6.734375 -0.609375 C 7.742188 -0.609375 8.671875 -0.835938 9.515625 -1.296875 C 10.367188 -1.753906 11.132812 -2.347656 11.8125 -3.078125 C 12.5 -3.816406 13.109375 -4.632812 13.640625 -5.53125 C 14.171875 -6.425781 14.628906 -7.316406 15.015625 -8.203125 C 15.191406 -8.609375 15.441406 -8.8125 15.765625 -8.8125 C 16.066406 -8.8125 16.300781 -8.703125 16.46875 -8.484375 C 16.632812 -8.273438 16.71875 -8.046875 16.71875 -7.796875 C 16.71875 -7.660156 16.691406 -7.53125 16.640625 -7.40625 C 16.441406 -6.925781 16.1875 -6.378906 15.875 -5.765625 C 15.570312 -5.160156 15.203125 -4.535156 14.765625 -3.890625 C 14.335938 -3.242188 13.835938 -2.609375 13.265625 -1.984375 C 12.703125 -1.367188 12.070312 -0.816406 11.375 -0.328125 C 10.675781 0.148438 9.910156 0.535156 9.078125 0.828125 C 8.242188 1.128906 7.332031 1.28125 6.34375 1.28125 C 5.15625 1.28125 4.050781 1.070312 3.03125 0.65625 C 2.019531 0.238281 1.195312 -0.445312 0.5625 -1.40625 C 0.445312 -1.5625 0.390625 -1.726562 0.390625 -1.90625 C 0.390625 -2.175781 0.492188 -2.410156 0.703125 -2.609375 C 0.910156 -2.816406 1.144531 -2.921875 1.40625 -2.921875 C 1.6875 -2.921875 1.925781 -2.820312 2.125 -2.625 C 2.144531 -2.59375 2.207031 -2.535156 2.3125 -2.453125 C 2.414062 -2.367188 2.539062 -2.28125 2.6875 -2.1875 C 2.84375 -2.09375 3.019531 -2.007812 3.21875 -1.9375 C 3.425781 -1.863281 3.632812 -1.828125 3.84375 -1.828125 C 4.269531 -1.828125 4.628906 -1.914062 4.921875 -2.09375 C 5.210938 -2.269531 5.445312 -2.484375 5.625 -2.734375 C 5.800781 -2.992188 5.925781 -3.269531 6 -3.5625 C 6.082031 -3.863281 6.125 -4.117188 6.125 -4.328125 C 6.125 -4.765625 6.050781 -5.203125 5.90625 -5.640625 C 5.769531 -6.085938 5.59375 -6.53125 5.375 -6.96875 C 5.15625 -7.414062 4.914062 -7.875 4.65625 -8.34375 C 4.394531 -8.8125 4.160156 -9.304688 3.953125 -9.828125 Z M 3.953125 -9.828125 "/></g></g></g><g fill="#ffd4d7" fill-opacity="1"><g transform="translate(84.022901, 264.834523)"><g><path d="M 9.34375 0 L 7.984375 0 L 7.984375 -4.5625 L 2.578125 -4.5625 L 2.578125 0 L 1.21875 0 L 1.21875 -10.015625 L 2.578125 -10.015625 L 2.578125 -5.546875 L 7.984375 -5.546875 L 7.984375 -10.015625 L 9.34375 -10.015625 Z M 9.34375 0 "/></g></g></g><g fill="#ffd4d7" fill-opacity="1"><g transform="translate(96.273909, 264.834523)"><g><path d="M 10.515625 -5 C 10.515625 -4.25 10.394531 -3.5625 10.15625 -2.9375 C 9.925781 -2.3125 9.59375 -1.769531 9.15625 -1.3125 C 8.726562 -0.863281 8.207031 -0.515625 7.59375 -0.265625 C 6.988281 -0.015625 6.316406 0.109375 5.578125 0.109375 C 4.835938 0.109375 4.164062 -0.015625 3.5625 -0.265625 C 2.957031 -0.515625 2.4375 -0.863281 2 -1.3125 C 1.570312 -1.769531 1.238281 -2.3125 1 -2.9375 C 0.757812 -3.5625 0.640625 -4.25 0.640625 -5 C 0.640625 -5.75 0.757812 -6.4375 1 -7.0625 C 1.238281 -7.695312 1.570312 -8.238281 2 -8.6875 C 2.4375 -9.144531 2.957031 -9.5 3.5625 -9.75 C 4.164062 -10 4.835938 -10.125 5.578125 -10.125 C 6.316406 -10.125 6.988281 -10 7.59375 -9.75 C 8.207031 -9.5 8.726562 -9.144531 9.15625 -8.6875 C 9.59375 -8.238281 9.925781 -7.695312 10.15625 -7.0625 C 10.394531 -6.4375 10.515625 -5.75 10.515625 -5 Z M 9.125 -5 C 9.125 -5.613281 9.039062 -6.164062 8.875 -6.65625 C 8.707031 -7.144531 8.46875 -7.554688 8.15625 -7.890625 C 7.851562 -8.234375 7.484375 -8.492188 7.046875 -8.671875 C 6.609375 -8.859375 6.117188 -8.953125 5.578125 -8.953125 C 5.046875 -8.953125 4.5625 -8.859375 4.125 -8.671875 C 3.6875 -8.492188 3.3125 -8.234375 3 -7.890625 C 2.6875 -7.554688 2.445312 -7.144531 2.28125 -6.65625 C 2.113281 -6.164062 2.03125 -5.613281 2.03125 -5 C 2.03125 -4.382812 2.113281 -3.832031 2.28125 -3.34375 C 2.445312 -2.863281 2.6875 -2.453125 3 -2.109375 C 3.3125 -1.773438 3.6875 -1.515625 4.125 -1.328125 C 4.5625 -1.148438 5.046875 -1.0625 5.578125 -1.0625 C 6.117188 -1.0625 6.609375 -1.148438 7.046875 -1.328125 C 7.484375 -1.515625 7.851562 -1.773438 8.15625 -2.109375 C 8.46875 -2.453125 8.707031 -2.863281 8.875 -3.34375 C 9.039062 -3.832031 9.125 -4.382812 9.125 -5 Z M 9.125 -5 "/></g></g></g><g fill="#ffd4d7" fill-opacity="1"><g transform="translate(109.11219, 264.834523)"><g><path d="M 6.140625 -3.625 C 6.210938 -3.507812 6.269531 -3.390625 6.3125 -3.265625 C 6.363281 -3.140625 6.410156 -3.015625 6.453125 -2.890625 C 6.503906 -3.023438 6.554688 -3.148438 6.609375 -3.265625 C 6.660156 -3.390625 6.71875 -3.507812 6.78125 -3.625 L 10.171875 -9.78125 C 10.234375 -9.894531 10.296875 -9.960938 10.359375 -9.984375 C 10.421875 -10.003906 10.515625 -10.015625 10.640625 -10.015625 L 11.640625 -10.015625 L 11.640625 0 L 10.453125 0 L 10.453125 -7.359375 C 10.453125 -7.460938 10.453125 -7.566406 10.453125 -7.671875 C 10.460938 -7.785156 10.472656 -7.898438 10.484375 -8.015625 L 7.046875 -1.75 C 6.929688 -1.539062 6.769531 -1.4375 6.5625 -1.4375 L 6.359375 -1.4375 C 6.148438 -1.4375 5.988281 -1.539062 5.875 -1.75 L 2.359375 -8.046875 C 2.378906 -7.921875 2.390625 -7.800781 2.390625 -7.6875 C 2.398438 -7.570312 2.40625 -7.460938 2.40625 -7.359375 L 2.40625 0 L 1.21875 0 L 1.21875 -10.015625 L 2.21875 -10.015625 C 2.332031 -10.015625 2.421875 -10.003906 2.484375 -9.984375 C 2.554688 -9.960938 2.625 -9.894531 2.6875 -9.78125 Z M 6.140625 -3.625 "/></g></g></g><g fill="#ffd4d7" fill-opacity="1"><g transform="translate(123.65637, 264.834523)"><g><path d="M 7.390625 -10.015625 L 7.390625 -8.921875 L 2.578125 -8.921875 L 2.578125 -5.59375 L 6.46875 -5.59375 L 6.46875 -4.53125 L 2.578125 -4.53125 L 2.578125 -1.109375 L 7.390625 -1.109375 L 7.390625 0 L 1.21875 0 L 1.21875 -10.015625 Z M 7.390625 -10.015625 "/></g></g></g><g fill="#ffd4d7" fill-opacity="1"><g transform="translate(133.460385, 264.834523)"><g><path d="M 6.140625 -3.625 C 6.210938 -3.507812 6.269531 -3.390625 6.3125 -3.265625 C 6.363281 -3.140625 6.410156 -3.015625 6.453125 -2.890625 C 6.503906 -3.023438 6.554688 -3.148438 6.609375 -3.265625 C 6.660156 -3.390625 6.71875 -3.507812 6.78125 -3.625 L 10.171875 -9.78125 C 10.234375 -9.894531 10.296875 -9.960938 10.359375 -9.984375 C 10.421875 -10.003906 10.515625 -10.015625 10.640625 -10.015625 L 11.640625 -10.015625 L 11.640625 0 L 10.453125 0 L 10.453125 -7.359375 C 10.453125 -7.460938 10.453125 -7.566406 10.453125 -7.671875 C 10.460938 -7.785156 10.472656 -7.898438 10.484375 -8.015625 L 7.046875 -1.75 C 6.929688 -1.539062 6.769531 -1.4375 6.5625 -1.4375 L 6.359375 -1.4375 C 6.148438 -1.4375 5.988281 -1.539062 5.875 -1.75 L 2.359375 -8.046875 C 2.378906 -7.921875 2.390625 -7.800781 2.390625 -7.6875 C 2.398438 -7.570312 2.40625 -7.460938 2.40625 -7.359375 L 2.40625 0 L 1.21875 0 L 1.21875 -10.015625 L 2.21875 -10.015625 C 2.332031 -10.015625 2.421875 -10.003906 2.484375 -9.984375 C 2.554688 -9.960938 2.625 -9.894531 2.6875 -9.78125 Z M 6.140625 -3.625 "/></g></g></g><g fill="#ffd4d7" fill-opacity="1"><g transform="translate(148.004567, 264.834523)"><g><path d="M 9.453125 0 L 8.40625 0 C 8.289062 0 8.191406 -0.03125 8.109375 -0.09375 C 8.035156 -0.15625 7.984375 -0.234375 7.953125 -0.328125 L 7.015625 -2.734375 L 2.515625 -2.734375 L 1.578125 -0.328125 C 1.546875 -0.242188 1.488281 -0.164062 1.40625 -0.09375 C 1.332031 -0.03125 1.238281 0 1.125 0 L 0.0625 0 L 4.078125 -10.015625 L 5.453125 -10.015625 Z M 2.890625 -3.71875 L 6.640625 -3.71875 L 5.0625 -7.796875 C 4.957031 -8.046875 4.859375 -8.359375 4.765625 -8.734375 C 4.710938 -8.546875 4.660156 -8.367188 4.609375 -8.203125 C 4.554688 -8.046875 4.507812 -7.910156 4.46875 -7.796875 Z M 2.890625 -3.71875 "/></g></g></g><g fill="#ffd4d7" fill-opacity="1"><g transform="translate(159.192872, 264.834523)"><g><path d="M 9.90625 -5 C 9.90625 -4.25 9.785156 -3.566406 9.546875 -2.953125 C 9.304688 -2.335938 8.96875 -1.8125 8.53125 -1.375 C 8.101562 -0.9375 7.582031 -0.597656 6.96875 -0.359375 C 6.363281 -0.117188 5.695312 0 4.96875 0 L 1.21875 0 L 1.21875 -10.015625 L 4.96875 -10.015625 C 5.695312 -10.015625 6.363281 -9.894531 6.96875 -9.65625 C 7.582031 -9.414062 8.101562 -9.078125 8.53125 -8.640625 C 8.96875 -8.203125 9.304688 -7.671875 9.546875 -7.046875 C 9.785156 -6.429688 9.90625 -5.75 9.90625 -5 Z M 8.515625 -5 C 8.515625 -5.613281 8.425781 -6.164062 8.25 -6.65625 C 8.082031 -7.144531 7.84375 -7.554688 7.53125 -7.890625 C 7.226562 -8.222656 6.859375 -8.476562 6.421875 -8.65625 C 5.984375 -8.832031 5.5 -8.921875 4.96875 -8.921875 L 2.578125 -8.921875 L 2.578125 -1.09375 L 4.96875 -1.09375 C 5.5 -1.09375 5.984375 -1.179688 6.421875 -1.359375 C 6.859375 -1.535156 7.226562 -1.789062 7.53125 -2.125 C 7.84375 -2.457031 8.082031 -2.863281 8.25 -3.34375 C 8.425781 -3.832031 8.515625 -4.382812 8.515625 -5 Z M 8.515625 -5 "/></g></g></g><g fill="#ffd4d7" fill-opacity="1"><g transform="translate(171.40192, 264.834523)"><g><path d="M 7.390625 -10.015625 L 7.390625 -8.921875 L 2.578125 -8.921875 L 2.578125 -5.59375 L 6.46875 -5.59375 L 6.46875 -4.53125 L 2.578125 -4.53125 L 2.578125 -1.109375 L 7.390625 -1.109375 L 7.390625 0 L 1.21875 0 L 1.21875 -10.015625 Z M 7.390625 -10.015625 "/></g></g></g><g fill="#ffd4d7" fill-opacity="1"><g transform="translate(181.205932, 264.834523)"><g/></g></g><g fill="#ffd4d7" fill-opacity="1"><g transform="translate(185.584609, 264.834523)"><g><path d="M 2.703125 -3.75 L 2.703125 0 L 1.359375 0 L 1.359375 -10.015625 L 4.3125 -10.015625 C 4.945312 -10.015625 5.5 -9.941406 5.96875 -9.796875 C 6.4375 -9.648438 6.820312 -9.441406 7.125 -9.171875 C 7.4375 -8.898438 7.664062 -8.570312 7.8125 -8.1875 C 7.96875 -7.8125 8.046875 -7.390625 8.046875 -6.921875 C 8.046875 -6.453125 7.960938 -6.023438 7.796875 -5.640625 C 7.640625 -5.253906 7.398438 -4.921875 7.078125 -4.640625 C 6.765625 -4.359375 6.375 -4.140625 5.90625 -3.984375 C 5.445312 -3.828125 4.914062 -3.75 4.3125 -3.75 Z M 2.703125 -4.828125 L 4.3125 -4.828125 C 4.695312 -4.828125 5.035156 -4.875 5.328125 -4.96875 C 5.628906 -5.070312 5.878906 -5.21875 6.078125 -5.40625 C 6.285156 -5.59375 6.4375 -5.8125 6.53125 -6.0625 C 6.632812 -6.320312 6.6875 -6.609375 6.6875 -6.921875 C 6.6875 -7.554688 6.488281 -8.050781 6.09375 -8.40625 C 5.707031 -8.769531 5.113281 -8.953125 4.3125 -8.953125 L 2.703125 -8.953125 Z M 2.703125 -4.828125 "/></g></g></g><g fill="#ffd4d7" fill-opacity="1"><g transform="translate(195.808096, 264.834523)"><g><path d="M 5.109375 -1.078125 C 5.523438 -1.078125 5.894531 -1.144531 6.21875 -1.28125 C 6.550781 -1.425781 6.828125 -1.625 7.046875 -1.875 C 7.273438 -2.125 7.445312 -2.421875 7.5625 -2.765625 C 7.6875 -3.117188 7.75 -3.503906 7.75 -3.921875 L 7.75 -10.015625 L 9.09375 -10.015625 L 9.09375 -3.921875 C 9.09375 -3.347656 9 -2.8125 8.8125 -2.3125 C 8.632812 -1.820312 8.375 -1.394531 8.03125 -1.03125 C 7.6875 -0.675781 7.265625 -0.394531 6.765625 -0.1875 C 6.273438 0.0195312 5.722656 0.125 5.109375 0.125 C 4.492188 0.125 3.9375 0.0195312 3.4375 -0.1875 C 2.945312 -0.394531 2.53125 -0.675781 2.1875 -1.03125 C 1.84375 -1.394531 1.578125 -1.820312 1.390625 -2.3125 C 1.210938 -2.8125 1.125 -3.347656 1.125 -3.921875 L 1.125 -10.015625 L 2.46875 -10.015625 L 2.46875 -3.9375 C 2.46875 -3.519531 2.523438 -3.132812 2.640625 -2.78125 C 2.765625 -2.4375 2.9375 -2.132812 3.15625 -1.875 C 3.382812 -1.625 3.660156 -1.425781 3.984375 -1.28125 C 4.316406 -1.144531 4.691406 -1.078125 5.109375 -1.078125 Z M 5.109375 -1.078125 "/></g></g></g><g fill="#ffd4d7" fill-opacity="1"><g transform="translate(207.695538, 264.834523)"><g><path d="M 8.046875 -10.015625 L 8.046875 -8.875 L 4.796875 -8.875 L 4.796875 0 L 3.453125 0 L 3.453125 -8.875 L 0.203125 -8.875 L 0.203125 -10.015625 Z M 8.046875 -10.015625 "/></g></g></g><g fill="#ffd4d7" fill-opacity="1"><g transform="translate(217.625394, 264.834523)"><g><path d="M 10.515625 -5 C 10.515625 -4.25 10.394531 -3.5625 10.15625 -2.9375 C 9.925781 -2.3125 9.59375 -1.769531 9.15625 -1.3125 C 8.726562 -0.863281 8.207031 -0.515625 7.59375 -0.265625 C 6.988281 -0.015625 6.316406 0.109375 5.578125 0.109375 C 4.835938 0.109375 4.164062 -0.015625 3.5625 -0.265625 C 2.957031 -0.515625 2.4375 -0.863281 2 -1.3125 C 1.570312 -1.769531 1.238281 -2.3125 1 -2.9375 C 0.757812 -3.5625 0.640625 -4.25 0.640625 -5 C 0.640625 -5.75 0.757812 -6.4375 1 -7.0625 C 1.238281 -7.695312 1.570312 -8.238281 2 -8.6875 C 2.4375 -9.144531 2.957031 -9.5 3.5625 -9.75 C 4.164062 -10 4.835938 -10.125 5.578125 -10.125 C 6.316406 -10.125 6.988281 -10 7.59375 -9.75 C 8.207031 -9.5 8.726562 -9.144531 9.15625 -8.6875 C 9.59375 -8.238281 9.925781 -7.695312 10.15625 -7.0625 C 10.394531 -6.4375 10.515625 -5.75 10.515625 -5 Z M 9.125 -5 C 9.125 -5.613281 9.039062 -6.164062 8.875 -6.65625 C 8.707031 -7.144531 8.46875 -7.554688 8.15625 -7.890625 C 7.851562 -8.234375 7.484375 -8.492188 7.046875 -8.671875 C 6.609375 -8.859375 6.117188 -8.953125 5.578125 -8.953125 C 5.046875 -8.953125 4.5625 -8.859375 4.125 -8.671875 C 3.6875 -8.492188 3.3125 -8.234375 3 -7.890625 C 2.6875 -7.554688 2.445312 -7.144531 2.28125 -6.65625 C 2.113281 -6.164062 2.03125 -5.613281 2.03125 -5 C 2.03125 -4.382812 2.113281 -3.832031 2.28125 -3.34375 C 2.445312 -2.863281 2.6875 -2.453125 3 -2.109375 C 3.3125 -1.773438 3.6875 -1.515625 4.125 -1.328125 C 4.5625 -1.148438 5.046875 -1.0625 5.578125 -1.0625 C 6.117188 -1.0625 6.609375 -1.148438 7.046875 -1.328125 C 7.484375 -1.515625 7.851562 -1.773438 8.15625 -2.109375 C 8.46875 -2.453125 8.707031 -2.863281 8.875 -3.34375 C 9.039062 -3.832031 9.125 -4.382812 9.125 -5 Z M 9.125 -5 "/></g></g></g><g fill="#ffd4d7" fill-opacity="1"><g transform="translate(230.463673, 264.834523)"><g/></g></g><g fill="#ffd4d7" fill-opacity="1"><g transform="translate(234.84235, 264.834523)"><g><path d="M 7.390625 -10.015625 L 7.390625 -8.921875 L 2.578125 -8.921875 L 2.578125 -5.40625 L 6.6875 -5.40625 L 6.6875 -4.3125 L 2.578125 -4.3125 L 2.578125 0 L 1.21875 0 L 1.21875 -10.015625 Z M 7.390625 -10.015625 "/></g></g></g><g fill="#ffd4d7" fill-opacity="1"><g transform="translate(244.436618, 264.834523)"><g><path d="M 2.578125 -1.140625 L 6.90625 -1.140625 L 6.90625 0 L 1.21875 0 L 1.21875 -10.015625 L 2.578125 -10.015625 Z M 2.578125 -1.140625 "/></g></g></g><g fill="#ffd4d7" fill-opacity="1"><g transform="translate(253.303774, 264.834523)"><g><path d="M 9.453125 0 L 8.40625 0 C 8.289062 0 8.191406 -0.03125 8.109375 -0.09375 C 8.035156 -0.15625 7.984375 -0.234375 7.953125 -0.328125 L 7.015625 -2.734375 L 2.515625 -2.734375 L 1.578125 -0.328125 C 1.546875 -0.242188 1.488281 -0.164062 1.40625 -0.09375 C 1.332031 -0.03125 1.238281 0 1.125 0 L 0.0625 0 L 4.078125 -10.015625 L 5.453125 -10.015625 Z M 2.890625 -3.71875 L 6.640625 -3.71875 L 5.0625 -7.796875 C 4.957031 -8.046875 4.859375 -8.359375 4.765625 -8.734375 C 4.710938 -8.546875 4.660156 -8.367188 4.609375 -8.203125 C 4.554688 -8.046875 4.507812 -7.910156 4.46875 -7.796875 Z M 2.890625 -3.71875 "/></g></g></g><g fill="#ffd4d7" fill-opacity="1"><g transform="translate(264.492079, 264.834523)"><g><path d="M 1.921875 -10.015625 C 2.035156 -10.015625 2.117188 -10 2.171875 -9.96875 C 2.234375 -9.9375 2.304688 -9.875 2.390625 -9.78125 L 8.1875 -2.234375 C 8.175781 -2.359375 8.164062 -2.476562 8.15625 -2.59375 C 8.15625 -2.707031 8.15625 -2.816406 8.15625 -2.921875 L 8.15625 -10.015625 L 9.34375 -10.015625 L 9.34375 0 L 8.65625 0 C 8.550781 0 8.460938 -0.015625 8.390625 -0.046875 C 8.316406 -0.0859375 8.242188 -0.15625 8.171875 -0.25 L 2.375 -7.796875 C 2.382812 -7.671875 2.390625 -7.550781 2.390625 -7.4375 C 2.398438 -7.332031 2.40625 -7.234375 2.40625 -7.140625 L 2.40625 0 L 1.21875 0 L 1.21875 -10.015625 Z M 1.921875 -10.015625 "/></g></g></g><g fill="#ffd4d7" fill-opacity="1"><g transform="translate(276.743084, 264.834523)"><g/></g></g><g fill="#ffd4d7" fill-opacity="1"><g transform="translate(281.121761, 264.834523)"><g><path d="M 4.609375 -10.125 C 4.984375 -10.125 5.320312 -10.066406 5.625 -9.953125 C 5.925781 -9.835938 6.1875 -9.679688 6.40625 -9.484375 C 6.625 -9.285156 6.796875 -9.054688 6.921875 -8.796875 C 7.054688 -8.535156 7.132812 -8.265625 7.15625 -7.984375 L 6.375 -7.84375 C 6.351562 -7.832031 6.332031 -7.828125 6.3125 -7.828125 C 6.25 -7.828125 6.191406 -7.84375 6.140625 -7.875 C 6.085938 -7.90625 6.050781 -7.96875 6.03125 -8.0625 C 6 -8.175781 5.945312 -8.296875 5.875 -8.421875 C 5.800781 -8.554688 5.707031 -8.675781 5.59375 -8.78125 C 5.476562 -8.894531 5.335938 -8.984375 5.171875 -9.046875 C 5.015625 -9.117188 4.828125 -9.15625 4.609375 -9.15625 C 4.378906 -9.15625 4.171875 -9.117188 3.984375 -9.046875 C 3.796875 -8.972656 3.632812 -8.867188 3.5 -8.734375 C 3.375 -8.597656 3.273438 -8.441406 3.203125 -8.265625 C 3.128906 -8.085938 3.09375 -7.894531 3.09375 -7.6875 C 3.09375 -7.519531 3.109375 -7.359375 3.140625 -7.203125 C 3.179688 -7.054688 3.242188 -6.90625 3.328125 -6.75 C 3.410156 -6.601562 3.515625 -6.453125 3.640625 -6.296875 C 3.765625 -6.140625 3.914062 -5.972656 4.09375 -5.796875 L 6.96875 -2.859375 C 7.144531 -3.171875 7.285156 -3.5 7.390625 -3.84375 C 7.492188 -4.1875 7.566406 -4.53125 7.609375 -4.875 C 7.617188 -4.957031 7.644531 -5.023438 7.6875 -5.078125 C 7.738281 -5.128906 7.804688 -5.15625 7.890625 -5.15625 L 8.65625 -5.15625 C 8.644531 -4.625 8.554688 -4.097656 8.390625 -3.578125 C 8.234375 -3.054688 8 -2.570312 7.6875 -2.125 L 9.78125 0 L 8.59375 0 C 8.457031 0 8.34375 -0.015625 8.25 -0.046875 C 8.164062 -0.078125 8.078125 -0.144531 7.984375 -0.25 L 6.96875 -1.265625 C 6.53125 -0.835938 6.023438 -0.5 5.453125 -0.25 C 4.878906 -0.0078125 4.253906 0.109375 3.578125 0.109375 C 3.203125 0.109375 2.832031 0.046875 2.46875 -0.078125 C 2.113281 -0.203125 1.796875 -0.382812 1.515625 -0.625 C 1.234375 -0.863281 1.003906 -1.15625 0.828125 -1.5 C 0.660156 -1.84375 0.578125 -2.234375 0.578125 -2.671875 C 0.578125 -2.992188 0.628906 -3.300781 0.734375 -3.59375 C 0.847656 -3.882812 1 -4.15625 1.1875 -4.40625 C 1.382812 -4.65625 1.613281 -4.875 1.875 -5.0625 C 2.144531 -5.257812 2.4375 -5.429688 2.75 -5.578125 C 2.46875 -5.929688 2.257812 -6.273438 2.125 -6.609375 C 1.988281 -6.953125 1.921875 -7.304688 1.921875 -7.671875 C 1.921875 -8.015625 1.984375 -8.332031 2.109375 -8.625 C 2.234375 -8.925781 2.410156 -9.1875 2.640625 -9.40625 C 2.878906 -9.632812 3.164062 -9.8125 3.5 -9.9375 C 3.832031 -10.0625 4.203125 -10.125 4.609375 -10.125 Z M 1.84375 -2.765625 C 1.84375 -2.460938 1.894531 -2.195312 2 -1.96875 C 2.113281 -1.738281 2.257812 -1.539062 2.4375 -1.375 C 2.625 -1.21875 2.832031 -1.097656 3.0625 -1.015625 C 3.300781 -0.941406 3.539062 -0.90625 3.78125 -0.90625 C 4.300781 -0.90625 4.769531 -1 5.1875 -1.1875 C 5.601562 -1.375 5.96875 -1.628906 6.28125 -1.953125 L 3.328125 -4.9375 C 2.835938 -4.664062 2.46875 -4.34375 2.21875 -3.96875 C 1.96875 -3.601562 1.84375 -3.203125 1.84375 -2.765625 Z M 1.84375 -2.765625 "/></g></g></g><g fill="#ffd4d7" fill-opacity="1"><g transform="translate(132.702432, 281.074389)"><g><path d="M 2.703125 -3.75 L 2.703125 0 L 1.359375 0 L 1.359375 -10.015625 L 4.3125 -10.015625 C 4.945312 -10.015625 5.5 -9.941406 5.96875 -9.796875 C 6.4375 -9.648438 6.820312 -9.441406 7.125 -9.171875 C 7.4375 -8.898438 7.664062 -8.570312 7.8125 -8.1875 C 7.96875 -7.8125 8.046875 -7.390625 8.046875 -6.921875 C 8.046875 -6.453125 7.960938 -6.023438 7.796875 -5.640625 C 7.640625 -5.253906 7.398438 -4.921875 7.078125 -4.640625 C 6.765625 -4.359375 6.375 -4.140625 5.90625 -3.984375 C 5.445312 -3.828125 4.914062 -3.75 4.3125 -3.75 Z M 2.703125 -4.828125 L 4.3125 -4.828125 C 4.695312 -4.828125 5.035156 -4.875 5.328125 -4.96875 C 5.628906 -5.070312 5.878906 -5.21875 6.078125 -5.40625 C 6.285156 -5.59375 6.4375 -5.8125 6.53125 -6.0625 C 6.632812 -6.320312 6.6875 -6.609375 6.6875 -6.921875 C 6.6875 -7.554688 6.488281 -8.050781 6.09375 -8.40625 C 5.707031 -8.769531 5.113281 -8.953125 4.3125 -8.953125 L 2.703125 -8.953125 Z M 2.703125 -4.828125 "/></g></g></g><g fill="#ffd4d7" fill-opacity="1"><g transform="translate(142.925921, 281.074389)"><g><path d="M 5.109375 -1.078125 C 5.523438 -1.078125 5.894531 -1.144531 6.21875 -1.28125 C 6.550781 -1.425781 6.828125 -1.625 7.046875 -1.875 C 7.273438 -2.125 7.445312 -2.421875 7.5625 -2.765625 C 7.6875 -3.117188 7.75 -3.503906 7.75 -3.921875 L 7.75 -10.015625 L 9.09375 -10.015625 L 9.09375 -3.921875 C 9.09375 -3.347656 9 -2.8125 8.8125 -2.3125 C 8.632812 -1.820312 8.375 -1.394531 8.03125 -1.03125 C 7.6875 -0.675781 7.265625 -0.394531 6.765625 -0.1875 C 6.273438 0.0195312 5.722656 0.125 5.109375 0.125 C 4.492188 0.125 3.9375 0.0195312 3.4375 -0.1875 C 2.945312 -0.394531 2.53125 -0.675781 2.1875 -1.03125 C 1.84375 -1.394531 1.578125 -1.820312 1.390625 -2.3125 C 1.210938 -2.8125 1.125 -3.347656 1.125 -3.921875 L 1.125 -10.015625 L 2.46875 -10.015625 L 2.46875 -3.9375 C 2.46875 -3.519531 2.523438 -3.132812 2.640625 -2.78125 C 2.765625 -2.4375 2.9375 -2.132812 3.15625 -1.875 C 3.382812 -1.625 3.660156 -1.425781 3.984375 -1.28125 C 4.316406 -1.144531 4.691406 -1.078125 5.109375 -1.078125 Z M 5.109375 -1.078125 "/></g></g></g><g fill="#ffd4d7" fill-opacity="1"><g transform="translate(154.813365, 281.074389)"><g><path d="M 8.046875 -10.015625 L 8.046875 -8.875 L 4.796875 -8.875 L 4.796875 0 L 3.453125 0 L 3.453125 -8.875 L 0.203125 -8.875 L 0.203125 -10.015625 Z M 8.046875 -10.015625 "/></g></g></g><g fill="#ffd4d7" fill-opacity="1"><g transform="translate(164.743223, 281.074389)"><g><path d="M 10.515625 -5 C 10.515625 -4.25 10.394531 -3.5625 10.15625 -2.9375 C 9.925781 -2.3125 9.59375 -1.769531 9.15625 -1.3125 C 8.726562 -0.863281 8.207031 -0.515625 7.59375 -0.265625 C 6.988281 -0.015625 6.316406 0.109375 5.578125 0.109375 C 4.835938 0.109375 4.164062 -0.015625 3.5625 -0.265625 C 2.957031 -0.515625 2.4375 -0.863281 2 -1.3125 C 1.570312 -1.769531 1.238281 -2.3125 1 -2.9375 C 0.757812 -3.5625 0.640625 -4.25 0.640625 -5 C 0.640625 -5.75 0.757812 -6.4375 1 -7.0625 C 1.238281 -7.695312 1.570312 -8.238281 2 -8.6875 C 2.4375 -9.144531 2.957031 -9.5 3.5625 -9.75 C 4.164062 -10 4.835938 -10.125 5.578125 -10.125 C 6.316406 -10.125 6.988281 -10 7.59375 -9.75 C 8.207031 -9.5 8.726562 -9.144531 9.15625 -8.6875 C 9.59375 -8.238281 9.925781 -7.695312 10.15625 -7.0625 C 10.394531 -6.4375 10.515625 -5.75 10.515625 -5 Z M 9.125 -5 C 9.125 -5.613281 9.039062 -6.164062 8.875 -6.65625 C 8.707031 -7.144531 8.46875 -7.554688 8.15625 -7.890625 C 7.851562 -8.234375 7.484375 -8.492188 7.046875 -8.671875 C 6.609375 -8.859375 6.117188 -8.953125 5.578125 -8.953125 C 5.046875 -8.953125 4.5625 -8.859375 4.125 -8.671875 C 3.6875 -8.492188 3.3125 -8.234375 3 -7.890625 C 2.6875 -7.554688 2.445312 -7.144531 2.28125 -6.65625 C 2.113281 -6.164062 2.03125 -5.613281 2.03125 -5 C 2.03125 -4.382812 2.113281 -3.832031 2.28125 -3.34375 C 2.445312 -2.863281 2.6875 -2.453125 3 -2.109375 C 3.3125 -1.773438 3.6875 -1.515625 4.125 -1.328125 C 4.5625 -1.148438 5.046875 -1.0625 5.578125 -1.0625 C 6.117188 -1.0625 6.609375 -1.148438 7.046875 -1.328125 C 7.484375 -1.515625 7.851562 -1.773438 8.15625 -2.109375 C 8.46875 -2.453125 8.707031 -2.863281 8.875 -3.34375 C 9.039062 -3.832031 9.125 -4.382812 9.125 -5 Z M 9.125 -5 "/></g></g></g><g fill="#ffd4d7" fill-opacity="1"><g transform="translate(177.581505, 281.074389)"><g/></g></g><g fill="#ffd4d7" fill-opacity="1"><g transform="translate(181.960186, 281.074389)"><g><path d="M 8.28125 -2.0625 C 8.351562 -2.0625 8.421875 -2.035156 8.484375 -1.984375 L 9.015625 -1.390625 C 8.597656 -0.921875 8.097656 -0.550781 7.515625 -0.28125 C 6.929688 -0.0195312 6.226562 0.109375 5.40625 0.109375 C 4.6875 0.109375 4.03125 -0.015625 3.4375 -0.265625 C 2.851562 -0.515625 2.351562 -0.863281 1.9375 -1.3125 C 1.519531 -1.757812 1.195312 -2.296875 0.96875 -2.921875 C 0.738281 -3.554688 0.625 -4.25 0.625 -5 C 0.625 -5.757812 0.742188 -6.453125 0.984375 -7.078125 C 1.234375 -7.710938 1.578125 -8.253906 2.015625 -8.703125 C 2.460938 -9.160156 2.992188 -9.507812 3.609375 -9.75 C 4.234375 -10 4.914062 -10.125 5.65625 -10.125 C 6.394531 -10.125 7.03125 -10.007812 7.5625 -9.78125 C 8.101562 -9.5625 8.578125 -9.253906 8.984375 -8.859375 L 8.546875 -8.234375 C 8.515625 -8.191406 8.476562 -8.15625 8.4375 -8.125 C 8.394531 -8.09375 8.332031 -8.078125 8.25 -8.078125 C 8.195312 -8.078125 8.132812 -8.097656 8.0625 -8.140625 C 8 -8.179688 7.921875 -8.234375 7.828125 -8.296875 C 7.734375 -8.367188 7.625 -8.441406 7.5 -8.515625 C 7.375 -8.585938 7.222656 -8.65625 7.046875 -8.71875 C 6.878906 -8.789062 6.679688 -8.847656 6.453125 -8.890625 C 6.222656 -8.929688 5.957031 -8.953125 5.65625 -8.953125 C 5.125 -8.953125 4.632812 -8.859375 4.1875 -8.671875 C 3.738281 -8.492188 3.351562 -8.234375 3.03125 -7.890625 C 2.707031 -7.554688 2.457031 -7.144531 2.28125 -6.65625 C 2.101562 -6.164062 2.015625 -5.613281 2.015625 -5 C 2.015625 -4.375 2.101562 -3.816406 2.28125 -3.328125 C 2.457031 -2.835938 2.703125 -2.425781 3.015625 -2.09375 C 3.328125 -1.757812 3.691406 -1.503906 4.109375 -1.328125 C 4.535156 -1.148438 4.992188 -1.0625 5.484375 -1.0625 C 5.785156 -1.0625 6.054688 -1.078125 6.296875 -1.109375 C 6.535156 -1.140625 6.753906 -1.191406 6.953125 -1.265625 C 7.148438 -1.347656 7.335938 -1.445312 7.515625 -1.5625 C 7.691406 -1.675781 7.867188 -1.8125 8.046875 -1.96875 C 8.128906 -2.03125 8.207031 -2.0625 8.28125 -2.0625 Z M 8.28125 -2.0625 "/></g></g></g><g fill="#ffd4d7" fill-opacity="1"><g transform="translate(193.218409, 281.074389)"><g><path d="M 9.34375 0 L 7.984375 0 L 7.984375 -4.5625 L 2.578125 -4.5625 L 2.578125 0 L 1.21875 0 L 1.21875 -10.015625 L 2.578125 -10.015625 L 2.578125 -5.546875 L 7.984375 -5.546875 L 7.984375 -10.015625 L 9.34375 -10.015625 Z M 9.34375 0 "/></g></g></g><g fill="#ffd4d7" fill-opacity="1"><g transform="translate(205.469414, 281.074389)"><g><path d="M 7.390625 -10.015625 L 7.390625 -8.921875 L 2.578125 -8.921875 L 2.578125 -5.59375 L 6.46875 -5.59375 L 6.46875 -4.53125 L 2.578125 -4.53125 L 2.578125 -1.109375 L 7.390625 -1.109375 L 7.390625 0 L 1.21875 0 L 1.21875 -10.015625 Z M 7.390625 -10.015625 "/></g></g></g><g fill="#ffd4d7" fill-opacity="1"><g transform="translate(215.273426, 281.074389)"><g><path d="M 7.390625 -10.015625 L 7.390625 -8.921875 L 2.578125 -8.921875 L 2.578125 -5.59375 L 6.46875 -5.59375 L 6.46875 -4.53125 L 2.578125 -4.53125 L 2.578125 -1.109375 L 7.390625 -1.109375 L 7.390625 0 L 1.21875 0 L 1.21875 -10.015625 Z M 7.390625 -10.015625 "/></g></g></g><g fill="#ffd4d7" fill-opacity="1"><g transform="translate(225.077438, 281.074389)"><g><path d="M 6.34375 -8.453125 C 6.300781 -8.378906 6.253906 -8.328125 6.203125 -8.296875 C 6.160156 -8.265625 6.101562 -8.25 6.03125 -8.25 C 5.957031 -8.25 5.863281 -8.285156 5.75 -8.359375 C 5.644531 -8.441406 5.515625 -8.53125 5.359375 -8.625 C 5.203125 -8.71875 5.007812 -8.800781 4.78125 -8.875 C 4.550781 -8.957031 4.273438 -9 3.953125 -9 C 3.648438 -9 3.378906 -8.957031 3.140625 -8.875 C 2.910156 -8.800781 2.71875 -8.691406 2.5625 -8.546875 C 2.40625 -8.410156 2.285156 -8.25 2.203125 -8.0625 C 2.128906 -7.875 2.09375 -7.671875 2.09375 -7.453125 C 2.09375 -7.171875 2.160156 -6.9375 2.296875 -6.75 C 2.441406 -6.5625 2.625 -6.398438 2.84375 -6.265625 C 3.070312 -6.140625 3.328125 -6.03125 3.609375 -5.9375 C 3.898438 -5.84375 4.195312 -5.742188 4.5 -5.640625 C 4.800781 -5.535156 5.09375 -5.421875 5.375 -5.296875 C 5.664062 -5.171875 5.921875 -5.007812 6.140625 -4.8125 C 6.367188 -4.613281 6.550781 -4.367188 6.6875 -4.078125 C 6.832031 -3.796875 6.90625 -3.453125 6.90625 -3.046875 C 6.90625 -2.609375 6.828125 -2.195312 6.671875 -1.8125 C 6.523438 -1.425781 6.304688 -1.085938 6.015625 -0.796875 C 5.734375 -0.515625 5.382812 -0.289062 4.96875 -0.125 C 4.550781 0.03125 4.078125 0.109375 3.546875 0.109375 C 2.898438 0.109375 2.304688 -0.00390625 1.765625 -0.234375 C 1.234375 -0.472656 0.78125 -0.796875 0.40625 -1.203125 L 0.796875 -1.84375 C 0.835938 -1.894531 0.882812 -1.9375 0.9375 -1.96875 C 0.988281 -2 1.046875 -2.015625 1.109375 -2.015625 C 1.210938 -2.015625 1.328125 -1.960938 1.453125 -1.859375 C 1.578125 -1.753906 1.734375 -1.640625 1.921875 -1.515625 C 2.109375 -1.390625 2.332031 -1.273438 2.59375 -1.171875 C 2.863281 -1.066406 3.195312 -1.015625 3.59375 -1.015625 C 3.90625 -1.015625 4.1875 -1.054688 4.4375 -1.140625 C 4.695312 -1.234375 4.910156 -1.359375 5.078125 -1.515625 C 5.253906 -1.679688 5.390625 -1.875 5.484375 -2.09375 C 5.578125 -2.320312 5.625 -2.570312 5.625 -2.84375 C 5.625 -3.144531 5.554688 -3.390625 5.421875 -3.578125 C 5.285156 -3.773438 5.101562 -3.9375 4.875 -4.0625 C 4.65625 -4.195312 4.398438 -4.3125 4.109375 -4.40625 C 3.828125 -4.5 3.535156 -4.59375 3.234375 -4.6875 C 2.929688 -4.78125 2.632812 -4.890625 2.34375 -5.015625 C 2.0625 -5.140625 1.804688 -5.300781 1.578125 -5.5 C 1.359375 -5.707031 1.179688 -5.960938 1.046875 -6.265625 C 0.910156 -6.566406 0.84375 -6.9375 0.84375 -7.375 C 0.84375 -7.726562 0.910156 -8.070312 1.046875 -8.40625 C 1.179688 -8.738281 1.378906 -9.03125 1.640625 -9.28125 C 1.898438 -9.539062 2.222656 -9.742188 2.609375 -9.890625 C 2.992188 -10.046875 3.4375 -10.125 3.9375 -10.125 C 4.5 -10.125 5.007812 -10.035156 5.46875 -9.859375 C 5.925781 -9.679688 6.328125 -9.425781 6.671875 -9.09375 Z M 6.34375 -8.453125 "/></g></g></g><g fill="#ffd4d7" fill-opacity="1"><g transform="translate(234.168319, 281.074389)"><g><path d="M 7.390625 -10.015625 L 7.390625 -8.921875 L 2.578125 -8.921875 L 2.578125 -5.59375 L 6.46875 -5.59375 L 6.46875 -4.53125 L 2.578125 -4.53125 L 2.578125 -1.109375 L 7.390625 -1.109375 L 7.390625 0 L 1.21875 0 L 1.21875 -10.015625 Z M 7.390625 -10.015625 "/></g></g></g></svg>