<svg xmlns="http://www.w3.org/2000/svg" xmlns:xlink="http://www.w3.org/1999/xlink" width="500" zoomAndPan="magnify" viewBox="0 0 375 374.999991" height="500" preserveAspectRatio="xMidYMid meet" version="1.0"><defs><clipPath id="58cc044771"><path d="M 254.964844 66.570312 L 289.464844 66.570312 L 289.464844 101.070312 L 254.964844 101.070312 Z M 254.964844 66.570312 " clip-rule="nonzero"/></clipPath></defs><g clip-path="url(#58cc044771)"><path fill="#53b7d2" d="M 254.964844 83.855469 L 261.058594 82.027344 C 262.167969 81.695312 263.214844 81.234375 264.207031 80.640625 C 265.199219 80.046875 266.105469 79.34375 266.921875 78.527344 C 267.742188 77.707031 268.445312 76.804688 269.039062 75.8125 C 269.628906 74.820312 270.09375 73.769531 270.425781 72.664062 L 272.25 66.570312 L 274.078125 72.664062 C 274.410156 73.773438 274.875 74.820312 275.464844 75.8125 C 276.058594 76.804688 276.761719 77.710938 277.582031 78.527344 C 278.398438 79.34375 279.300781 80.050781 280.292969 80.640625 C 281.285156 81.234375 282.335938 81.695312 283.441406 82.027344 L 289.535156 83.855469 L 283.445312 85.683594 C 282.335938 86.015625 281.289062 86.476562 280.296875 87.070312 C 279.304688 87.664062 278.398438 88.367188 277.582031 89.183594 C 276.765625 90 276.058594 90.90625 275.46875 91.898438 C 274.875 92.890625 274.414062 93.941406 274.082031 95.046875 L 272.25 101.140625 L 270.421875 95.046875 C 270.089844 93.941406 269.628906 92.890625 269.035156 91.898438 C 268.445312 90.90625 267.738281 90.003906 266.921875 89.1875 C 266.105469 88.367188 265.199219 87.664062 264.207031 87.070312 C 263.214844 86.480469 262.167969 86.015625 261.058594 85.683594 Z M 254.964844 83.855469 " fill-opacity="1" fill-rule="nonzero"/></g></svg>