<svg xmlns="http://www.w3.org/2000/svg" xmlns:xlink="http://www.w3.org/1999/xlink" width="500" zoomAndPan="magnify" viewBox="0 0 375 374.999991" height="500" preserveAspectRatio="xMidYMid meet" version="1.0"><defs><clipPath id="ac7db138e2"><path d="M 342.921875 144.949219 L 375 144.949219 L 375 177.199219 L 342.921875 177.199219 Z M 342.921875 144.949219 " clip-rule="nonzero"/></clipPath></defs><g clip-path="url(#ac7db138e2)"><path fill="#53b7d2" d="M 342.921875 160.988281 L 348.578125 159.289062 C 349.605469 158.984375 350.578125 158.554688 351.5 158.003906 C 352.417969 157.453125 353.257812 156.800781 354.015625 156.042969 C 354.777344 155.285156 355.429688 154.445312 355.980469 153.523438 C 356.527344 152.601562 356.957031 151.628906 357.265625 150.601562 L 358.960938 144.949219 L 360.65625 150.605469 C 360.964844 151.632812 361.394531 152.605469 361.941406 153.527344 C 362.492188 154.445312 363.148438 155.285156 363.90625 156.042969 C 364.664062 156.800781 365.503906 157.457031 366.421875 158.003906 C 367.34375 158.554688 368.316406 158.984375 369.34375 159.292969 L 374.996094 160.988281 L 369.34375 162.683594 C 368.320312 162.992188 367.34375 163.421875 366.425781 163.96875 C 365.503906 164.519531 364.664062 165.171875 363.90625 165.929688 C 363.148438 166.691406 362.496094 167.527344 361.945312 168.449219 C 361.394531 169.371094 360.964844 170.34375 360.65625 171.371094 L 358.960938 177.023438 L 357.265625 171.371094 C 356.957031 170.34375 356.527344 169.371094 355.976562 168.449219 C 355.429688 167.53125 354.773438 166.691406 354.015625 165.933594 C 353.257812 165.175781 352.417969 164.519531 351.5 163.972656 C 350.578125 163.421875 349.605469 162.992188 348.578125 162.683594 Z M 342.921875 160.988281 " fill-opacity="1" fill-rule="nonzero"/></g></svg>