<svg xmlns="http://www.w3.org/2000/svg" xmlns:xlink="http://www.w3.org/1999/xlink" width="500" zoomAndPan="magnify" viewBox="0 0 375 374.999991" height="500" preserveAspectRatio="xMidYMid meet" version="1.0"><defs><clipPath id="e0224c0e03"><path d="M 10.558594 139.570312 L 48.058594 139.570312 L 48.058594 177.070312 L 10.558594 177.070312 Z M 10.558594 139.570312 " clip-rule="nonzero"/></clipPath></defs><g clip-path="url(#e0224c0e03)"><path fill="#53b7d2" d="M 10.558594 158.296875 L 17.160156 156.3125 C 18.359375 155.953125 19.496094 155.453125 20.574219 154.8125 C 21.648438 154.171875 22.628906 153.40625 23.511719 152.519531 C 24.398438 151.636719 25.164062 150.65625 25.804688 149.582031 C 26.445312 148.503906 26.945312 147.367188 27.308594 146.167969 L 29.285156 139.570312 L 31.265625 146.171875 C 31.625 147.371094 32.128906 148.507812 32.769531 149.582031 C 33.410156 150.65625 34.175781 151.636719 35.058594 152.523438 C 35.945312 153.40625 36.925781 154.171875 38 154.8125 C 39.074219 155.457031 40.210938 155.957031 41.410156 156.316406 L 48.011719 158.296875 L 41.414062 160.277344 C 40.214844 160.636719 39.074219 161.136719 38 161.777344 C 36.925781 162.417969 35.945312 163.183594 35.0625 164.070312 C 34.175781 164.953125 33.414062 165.933594 32.769531 167.007812 C 32.128906 168.082031 31.628906 169.21875 31.269531 170.417969 L 29.285156 177.023438 L 27.304688 170.421875 C 26.945312 169.222656 26.445312 168.085938 25.804688 167.011719 C 25.160156 165.933594 24.398438 164.957031 23.511719 164.070312 C 22.628906 163.183594 21.648438 162.421875 20.574219 161.78125 C 19.496094 161.136719 18.359375 160.636719 17.160156 160.277344 Z M 10.558594 158.296875 " fill-opacity="1" fill-rule="nonzero"/></g></svg>