<svg xmlns="http://www.w3.org/2000/svg" xmlns:xlink="http://www.w3.org/1999/xlink" width="500" zoomAndPan="magnify" viewBox="0 0 375 374.999991" height="500" preserveAspectRatio="xMidYMid meet" version="1.0"><defs><clipPath id="77203f3c3d"><path d="M 119.953125 46.558594 L 170.953125 46.558594 L 170.953125 97.558594 L 119.953125 97.558594 Z M 119.953125 46.558594 " clip-rule="nonzero"/></clipPath></defs><g clip-path="url(#77203f3c3d)"><path fill="#53b7d2" d="M 119.953125 72 L 128.921875 69.308594 C 130.550781 68.820312 132.097656 68.136719 133.558594 67.265625 C 135.019531 66.394531 136.347656 65.355469 137.550781 64.152344 C 138.753906 62.949219 139.792969 61.621094 140.664062 60.160156 C 141.535156 58.699219 142.21875 57.152344 142.707031 55.523438 L 145.394531 46.558594 L 148.085938 55.527344 C 148.574219 57.15625 149.253906 58.703125 150.125 60.160156 C 151 61.621094 152.035156 62.953125 153.238281 64.15625 C 154.441406 65.359375 155.773438 66.394531 157.234375 67.269531 C 158.691406 68.140625 160.238281 68.820312 161.867188 69.308594 L 170.835938 72 L 161.867188 74.6875 C 160.238281 75.175781 158.695312 75.859375 157.234375 76.730469 C 155.773438 77.601562 154.441406 78.640625 153.242188 79.84375 C 152.039062 81.042969 151 82.375 150.128906 83.835938 C 149.257812 85.296875 148.574219 86.839844 148.085938 88.46875 L 145.394531 97.441406 L 142.703125 88.472656 C 142.214844 86.84375 141.535156 85.296875 140.664062 83.839844 C 139.789062 82.378906 138.753906 81.046875 137.550781 79.84375 C 136.347656 78.640625 135.015625 77.605469 133.554688 76.730469 C 132.097656 75.859375 130.550781 75.179688 128.921875 74.691406 Z M 119.953125 72 " fill-opacity="1" fill-rule="nonzero"/></g></svg>