<svg xmlns="http://www.w3.org/2000/svg" xmlns:xlink="http://www.w3.org/1999/xlink" width="500" zoomAndPan="magnify" viewBox="0 0 375 374.999991" height="500" preserveAspectRatio="xMidYMid meet" version="1.0"><defs><clipPath id="36de0d245b"><path d="M 294 104 L 331 104 L 331 142 L 294 142 Z M 294 104 " clip-rule="nonzero"/></clipPath><clipPath id="457fd290f0"><path d="M 289.535156 110.015625 L 325.902344 98.164062 L 337.292969 133.105469 L 300.925781 144.957031 Z M 289.535156 110.015625 " clip-rule="nonzero"/></clipPath><clipPath id="7a0ca5d7d6"><path d="M 289.535156 110.015625 L 325.902344 98.164062 L 337.292969 133.105469 L 300.925781 144.957031 Z M 289.535156 110.015625 " clip-rule="nonzero"/></clipPath><clipPath id="6352f8f738"><path d="M 289.535156 110.015625 L 325.902344 98.164062 L 337.292969 133.105469 L 300.925781 144.957031 Z M 289.535156 110.015625 " clip-rule="nonzero"/></clipPath></defs><g clip-path="url(#36de0d245b)"><g clip-path="url(#457fd290f0)"><g clip-path="url(#7a0ca5d7d6)"><g clip-path="url(#6352f8f738)"><path fill="#f5a1c5" d="M 309.664062 105.335938 C 309.078125 104.71875 308.1875 104.507812 307.390625 104.792969 C 306.59375 105.078125 306.042969 105.8125 305.980469 106.660156 L 305.285156 116.507812 C 305.273438 116.683594 305.214844 116.855469 305.117188 117 C 305.015625 117.148438 304.878906 117.261719 304.722656 117.339844 L 295.875 121.609375 C 295.109375 121.976562 294.636719 122.761719 294.664062 123.613281 C 294.691406 124.464844 295.21875 125.21875 296.003906 125.542969 L 305.109375 129.285156 C 305.273438 129.351562 305.417969 129.460938 305.523438 129.601562 C 305.632812 129.738281 305.703125 129.90625 305.726562 130.082031 L 307.0625 139.867188 C 307.175781 140.714844 307.777344 141.410156 308.589844 141.648438 C 309.402344 141.890625 310.28125 141.625 310.824219 140.976562 L 317.148438 133.441406 C 317.261719 133.304688 317.410156 133.203125 317.578125 133.144531 C 317.742188 133.085938 317.921875 133.070312 318.09375 133.101562 L 327.765625 134.882812 C 328.601562 135.035156 329.445312 134.679688 329.921875 133.976562 C 330.398438 133.273438 330.414062 132.355469 329.964844 131.632812 L 324.765625 123.234375 C 324.675781 123.082031 324.621094 122.910156 324.617188 122.734375 C 324.609375 122.554688 324.652344 122.382812 324.734375 122.226562 L 329.378906 113.539062 C 329.777344 112.789062 329.699219 111.871094 329.179688 111.199219 C 328.660156 110.523438 327.796875 110.222656 326.972656 110.421875 L 317.433594 112.769531 C 317.261719 112.808594 317.082031 112.804688 316.914062 112.757812 C 316.746094 112.707031 316.589844 112.613281 316.46875 112.484375 Z M 309.664062 105.335938 " fill-opacity="1" fill-rule="evenodd"/></g></g></g></g></svg>