<svg xmlns="http://www.w3.org/2000/svg" xmlns:xlink="http://www.w3.org/1999/xlink" width="500" zoomAndPan="magnify" viewBox="0 0 375 374.999991" height="500" preserveAspectRatio="xMidYMid meet" version="1.0"><defs><clipPath id="970e75914c"><path d="M 200 71 L 230 71 L 230 102 L 200 102 Z M 200 71 " clip-rule="nonzero"/></clipPath><clipPath id="028d6f4fef"><path d="M 196.34375 76.113281 L 225.582031 66.585938 L 234.644531 94.394531 L 205.410156 103.921875 Z M 196.34375 76.113281 " clip-rule="nonzero"/></clipPath><clipPath id="9841f5d00d"><path d="M 196.34375 76.113281 L 225.582031 66.585938 L 234.644531 94.394531 L 205.410156 103.921875 Z M 196.34375 76.113281 " clip-rule="nonzero"/></clipPath><clipPath id="eacc1ce89c"><path d="M 196.34375 76.113281 L 225.582031 66.585938 L 234.644531 94.394531 L 205.410156 103.921875 Z M 196.34375 76.113281 " clip-rule="nonzero"/></clipPath></defs><g clip-path="url(#970e75914c)"><g clip-path="url(#028d6f4fef)"><g clip-path="url(#9841f5d00d)"><g clip-path="url(#eacc1ce89c)"><path fill="#f5a1c5" d="M 212.523438 72.335938 C 212.050781 71.84375 211.335938 71.675781 210.695312 71.90625 C 210.054688 72.136719 209.609375 72.722656 209.5625 73.398438 L 208.980469 81.246094 C 208.96875 81.386719 208.921875 81.523438 208.84375 81.640625 C 208.761719 81.757812 208.652344 81.851562 208.523438 81.910156 L 201.410156 85.332031 C 200.796875 85.628906 200.414062 86.253906 200.4375 86.933594 C 200.457031 87.609375 200.875 88.210938 201.503906 88.464844 L 208.808594 91.425781 C 208.941406 91.480469 209.054688 91.566406 209.144531 91.679688 C 209.230469 91.789062 209.285156 91.921875 209.304688 92.0625 L 210.355469 99.855469 C 210.445312 100.53125 210.921875 101.085938 211.574219 101.273438 C 212.230469 101.460938 212.933594 101.25 213.371094 100.730469 L 218.46875 94.710938 C 218.558594 94.605469 218.679688 94.523438 218.8125 94.476562 C 218.945312 94.425781 219.089844 94.414062 219.226562 94.441406 L 226.992188 95.835938 C 227.660156 95.957031 228.335938 95.671875 228.722656 95.113281 C 229.105469 94.550781 229.121094 93.816406 228.761719 93.242188 L 224.605469 86.5625 C 224.53125 86.441406 224.492188 86.304688 224.488281 86.164062 C 224.484375 86.023438 224.515625 85.882812 224.582031 85.757812 L 228.332031 78.828125 C 228.652344 78.230469 228.59375 77.5 228.179688 76.964844 C 227.761719 76.425781 227.066406 76.1875 226.40625 76.351562 L 218.742188 78.238281 C 218.605469 78.273438 218.460938 78.269531 218.324219 78.230469 C 218.1875 78.191406 218.066406 78.117188 217.96875 78.015625 Z M 212.523438 72.335938 " fill-opacity="1" fill-rule="evenodd"/></g></g></g></g></svg>