<svg xmlns="http://www.w3.org/2000/svg" xmlns:xlink="http://www.w3.org/1999/xlink" width="500" zoomAndPan="magnify" viewBox="0 0 375 374.999991" height="500" preserveAspectRatio="xMidYMid meet" version="1.0"><defs><clipPath id="bc2a992dd2"><path d="M 50 79 L 104 79 L 104 134 L 50 134 Z M 50 79 " clip-rule="nonzero"/></clipPath><clipPath id="60dcb383a3"><path d="M 42.648438 87.097656 L 96.84375 69.4375 L 113.578125 120.777344 L 59.382812 138.441406 Z M 42.648438 87.097656 " clip-rule="nonzero"/></clipPath><clipPath id="7e1c868853"><path d="M 42.648438 87.097656 L 96.84375 69.4375 L 113.578125 120.777344 L 59.382812 138.441406 Z M 42.648438 87.097656 " clip-rule="nonzero"/></clipPath><clipPath id="a83ab7936f"><path d="M 42.648438 87.097656 L 96.84375 69.4375 L 113.578125 120.777344 L 59.382812 138.441406 Z M 42.648438 87.097656 " clip-rule="nonzero"/></clipPath></defs><g clip-path="url(#bc2a992dd2)"><g clip-path="url(#60dcb383a3)"><g clip-path="url(#7e1c868853)"><g clip-path="url(#a83ab7936f)"><path fill="#f5a1c5" d="M 72.632812 80.085938 C 71.765625 79.179688 70.441406 78.871094 69.25 79.300781 C 68.0625 79.726562 67.238281 80.808594 67.144531 82.058594 L 66.046875 96.550781 C 66.027344 96.8125 65.9375 97.0625 65.792969 97.277344 C 65.644531 97.496094 65.441406 97.667969 65.203125 97.78125 L 52.011719 104.117188 C 50.871094 104.660156 50.164062 105.820312 50.199219 107.074219 C 50.234375 108.324219 51.011719 109.433594 52.175781 109.902344 L 65.707031 115.355469 C 65.953125 115.453125 66.164062 115.613281 66.324219 115.816406 C 66.484375 116.023438 66.585938 116.269531 66.621094 116.527344 L 68.550781 130.921875 C 68.714844 132.164062 69.601562 133.1875 70.8125 133.535156 C 72.019531 133.882812 73.328125 133.484375 74.140625 132.527344 L 83.601562 121.398438 C 83.769531 121.199219 83.992188 121.050781 84.238281 120.960938 C 84.484375 120.871094 84.75 120.847656 85.007812 120.894531 L 99.394531 123.457031 C 100.632812 123.675781 101.890625 123.152344 102.601562 122.113281 C 103.316406 121.078125 103.347656 119.722656 102.683594 118.660156 L 95 106.335938 C 94.859375 106.113281 94.785156 105.859375 94.777344 105.597656 C 94.769531 105.335938 94.832031 105.078125 94.957031 104.847656 L 101.917969 92.039062 C 102.519531 90.933594 102.410156 89.585938 101.640625 88.597656 C 100.867188 87.605469 99.585938 87.164062 98.359375 87.46875 L 84.148438 90.976562 C 83.894531 91.039062 83.628906 91.035156 83.375 90.960938 C 83.125 90.890625 82.894531 90.753906 82.714844 90.566406 Z M 72.632812 80.085938 " fill-opacity="1" fill-rule="evenodd"/></g></g></g></g></svg>