<svg xmlns="http://www.w3.org/2000/svg" xmlns:xlink="http://www.w3.org/1999/xlink" width="500" zoomAndPan="magnify" viewBox="0 0 375 374.999991" height="500" preserveAspectRatio="xMidYMid meet" version="1.0"><defs><clipPath id="b0872d2e9e"><path d="M 10.558594 203 L 364.558594 203 L 364.558594 320.925781 L 10.558594 320.925781 Z M 10.558594 203 " clip-rule="nonzero"/></clipPath><clipPath id="0e06400eff"><path d="M 10.558594 199.730469 L 364.558594 199.730469 L 364.558594 313 L 10.558594 313 Z M 10.558594 199.730469 " clip-rule="nonzero"/></clipPath></defs><g clip-path="url(#b0872d2e9e)"><path fill="#bac3c1" d="M 364.601562 259.5 C 364.601562 290.652344 285.351562 320.925781 187.582031 320.925781 C 89.820312 320.925781 10.558594 290.652344 10.558594 259.5 C 10.558594 228.339844 89.820312 203.078125 187.582031 203.078125 C 285.351562 203.078125 364.601562 228.339844 364.601562 259.5 " fill-opacity="1" fill-rule="nonzero"/></g><g clip-path="url(#0e06400eff)"><path fill="#f1f7f7" d="M 364.601562 256.152344 C 364.601562 287.3125 285.351562 312.5625 187.582031 312.5625 C 89.820312 312.5625 10.558594 287.3125 10.558594 256.152344 C 10.558594 225 89.820312 199.734375 187.582031 199.734375 C 285.351562 199.734375 364.601562 225 364.601562 256.152344 " fill-opacity="1" fill-rule="nonzero"/></g><path fill="#fcfdfe" d="M 187.582031 288.363281 C 131.769531 288.363281 86.519531 273.9375 86.519531 256.152344 C 86.519531 238.371094 131.769531 223.949219 187.582031 223.949219 C 243.402344 223.949219 288.648438 238.371094 288.648438 256.152344 C 288.648438 273.9375 243.402344 288.363281 187.582031 288.363281 " fill-opacity="1" fill-rule="nonzero"/><path fill="#bac3c1" d="M 190.527344 303.613281 C 189.546875 303.613281 188.566406 303.632812 187.582031 303.632812 C 105.304688 303.632812 38.601562 282.375 38.601562 256.152344 C 38.601562 229.933594 105.304688 208.679688 187.582031 208.679688 C 269.867188 208.679688 336.5625 229.933594 336.5625 256.152344 C 336.5625 256.433594 336.515625 256.707031 336.496094 256.996094 C 335.105469 232.082031 271.609375 212.023438 193.445312 212.023438 C 114.398438 212.023438 50.320312 232.523438 50.320312 257.824219 C 50.320312 282.804688 112.832031 303.105469 190.527344 303.613281 " fill-opacity="1" fill-rule="nonzero"/></svg>