<svg xmlns="http://www.w3.org/2000/svg" xmlns:xlink="http://www.w3.org/1999/xlink" width="500" zoomAndPan="magnify" viewBox="0 0 375 374.999991" height="500" preserveAspectRatio="xMidYMid meet" version="1.0"><defs><clipPath id="ed26235f35"><path d="M 79 155.09375 L 342.574219 155.09375 L 342.574219 273.605469 L 79 273.605469 Z M 79 155.09375 " clip-rule="nonzero"/></clipPath><clipPath id="acc423248d"><path d="M 32.078125 187 L 244.84375 187 L 244.84375 290.699219 L 32.078125 290.699219 Z M 32.078125 187 " clip-rule="nonzero"/></clipPath></defs><g clip-path="url(#ed26235f35)"><path fill="#fcd565" d="M 252.296875 181.589844 C 253.796875 180.789062 254.484375 178.90625 254.035156 177.296875 C 253.621094 175.835938 251.75 173.914062 250.136719 174.976562 C 249.582031 175.339844 249.480469 175.96875 249.730469 176.457031 C 249.320312 176.761719 248.882812 177.039062 248.554688 177.460938 C 248.019531 178.15625 247.832031 179.023438 248.09375 179.875 C 248.628906 181.597656 250.71875 182.425781 252.296875 181.589844 Z M 81.851562 160.988281 C 81.742188 160.953125 81.625 160.921875 81.5 160.914062 C 80.769531 160.859375 80.078125 161.25 79.667969 161.84375 C 78.84375 163.039062 79.28125 164.335938 80.152344 165.292969 C 80.535156 165.90625 81.191406 166.402344 81.898438 166.570312 C 83.089844 167.152344 84.464844 167.339844 85.617188 166.53125 C 87.0625 165.511719 87.148438 163.703125 86.128906 162.351562 C 85.15625 161.0625 83.394531 160.382812 81.851562 160.988281 Z M 186.53125 156.386719 C 175.757812 154.816406 164.292969 155.492188 154.617188 160.847656 C 145.300781 166.007812 131.53125 183.347656 131.171875 183.546875 C 128.054688 185.277344 126.050781 188.457031 126.5 192.113281 C 126.730469 193.96875 136.265625 215.597656 137.886719 221.558594 C 139.015625 225.71875 140.058594 230.257812 144.066406 232.570312 C 148.539062 235.152344 154.464844 236.070312 159.449219 237.136719 C 165.1875 238.367188 171.003906 239.171875 176.84375 239.71875 C 183.351562 240.328125 189.875 240.699219 196.386719 241.226562 C 201.378906 241.636719 206.617188 242.140625 211.375 240.210938 C 220.523438 236.503906 223.234375 226.402344 224.335938 217.503906 C 224.742188 214.226562 224.992188 210.929688 226.421875 207.902344 C 227.578125 205.460938 229.179688 203.308594 230.003906 200.707031 C 231.425781 196.238281 230.878906 191.351562 229.332031 186.992188 C 223.054688 169.304688 204.167969 158.964844 186.53125 156.386719 Z M 342.054688 230.046875 C 340.886719 237.546875 338.085938 244.605469 335.007812 251.496094 C 332.433594 257.257812 330.386719 264.371094 323.980469 266.878906 C 316.875 269.660156 308.367188 270.472656 300.839844 271.488281 C 292.894531 272.566406 284.804688 273.464844 276.777344 272.964844 C 269.367188 272.503906 261.6875 270.824219 255.417969 266.660156 C 249.582031 262.785156 246.074219 256.785156 242.996094 250.640625 C 239.5625 243.773438 236.832031 236.492188 234.519531 229.171875 C 233.121094 224.734375 233.003906 216.953125 239.265625 216.996094 C 239.753906 209.128906 245.101562 201.242188 250.433594 195.828125 C 256.414062 189.757812 263.953125 185.449219 272.097656 183.039062 C 281.632812 180.21875 291.746094 180.003906 301.515625 181.582031 C 309.957031 182.949219 318.898438 185.613281 324.351562 192.652344 C 324.464844 192.800781 324.542969 192.957031 324.585938 193.117188 C 326.667969 195.0625 328.40625 197.363281 329.996094 199.738281 C 332.363281 203.273438 333.589844 207.378906 335.816406 210.921875 C 336.933594 212.699219 338.878906 213.644531 340.117188 215.320312 C 341.070312 216.617188 341.699219 218.136719 342.074219 219.699219 C 342.890625 223.085938 342.582031 226.640625 342.054688 230.046875 " fill-opacity="1" fill-rule="nonzero"/></g><g clip-path="url(#acc423248d)"><path fill="#fce18e" d="M 243.886719 241.433594 C 243.003906 244.777344 241.476562 247.914062 240.101562 251.070312 C 238.382812 255.003906 237.242188 258.960938 236.308594 263.140625 C 234.953125 269.21875 233.589844 275.441406 229.5625 280.382812 C 225.417969 285.472656 219.125 286.835938 212.988281 288.128906 C 198.71875 291.125 183.964844 291.488281 169.558594 289.277344 C 163.496094 288.351562 157.453125 286.976562 153.542969 281.851562 C 148.984375 275.871094 145.617188 268.613281 141.855469 262.105469 C 139.332031 257.742188 136.132812 252.96875 135.117188 247.847656 C 134.6875 249.550781 134.230469 251.246094 133.734375 252.929688 C 131.9375 259.046875 130.019531 266.695312 125.488281 271.445312 C 121.117188 276.027344 114.003906 277.933594 107.984375 278.996094 C 93.027344 281.644531 77.914062 278.496094 63.679688 273.878906 C 57.578125 271.898438 50.976562 270.050781 46.136719 265.621094 C 41.683594 261.542969 39.003906 255.917969 36.9375 250.339844 C 34.355469 243.363281 32.277344 236.003906 32.105469 228.519531 C 32.054688 226.257812 31.917969 223.65625 33.441406 221.808594 C 35.097656 219.804688 38.480469 219.464844 39.460938 216.902344 C 39.578125 216.597656 39.832031 216.457031 40.085938 216.445312 C 45.785156 198.636719 64.382812 187.199219 82.621094 187.179688 C 94.136719 187.167969 105.101562 191.007812 115.214844 196.261719 C 119.410156 198.441406 123.40625 200.824219 126.367188 204.601562 C 129.253906 208.28125 130.890625 212.609375 132.511719 216.9375 C 134.21875 216.871094 135.84375 217.667969 137.007812 219.101562 C 139.097656 221.660156 138.746094 225.222656 138.476562 228.285156 C 138.226562 231.128906 137.859375 233.960938 137.410156 236.777344 C 138.117188 235.910156 138.96875 235.167969 139.964844 234.601562 C 143.882812 224.730469 151.4375 215.792969 159.558594 209.128906 C 163.523438 205.882812 167.753906 202.945312 172.699219 201.445312 C 178.3125 199.734375 184.339844 199.570312 190.160156 199.402344 C 201.300781 199.082031 212.078125 203.660156 221.238281 209.761719 C 225.496094 212.601562 229.457031 215.910156 232.8125 219.789062 C 234.695312 221.96875 238.027344 225.5 239.113281 228.839844 C 244.867188 229.761719 245.148438 236.632812 243.886719 241.433594 " fill-opacity="1" fill-rule="nonzero"/></g><path fill="#f9cd20" d="M 244.773438 154.890625 C 244.398438 154.378906 243.691406 154.199219 243.203125 154.6875 C 242.71875 155.171875 242.894531 155.886719 243.40625 156.265625 C 243.460938 156.300781 243.515625 156.347656 243.574219 156.386719 C 244.335938 156.953125 245.464844 155.824219 244.898438 155.058594 C 244.859375 155.003906 244.816406 154.945312 244.773438 154.890625 Z M 240.664062 142.082031 C 240.382812 141.386719 239.300781 141.421875 239.289062 142.265625 C 239.265625 144.027344 239.617188 145.679688 240.066406 147.371094 C 240.457031 148.851562 240.851562 150.558594 242.019531 151.617188 C 242.480469 152.035156 243.109375 151.714844 243.171875 151.140625 C 243.328125 149.652344 242.625 148.1875 242.183594 146.785156 C 241.683594 145.210938 241.289062 143.621094 240.664062 142.082031 Z M 114.839844 154.210938 C 113.3125 154.210938 113.308594 156.585938 114.839844 156.585938 C 116.367188 156.585938 116.367188 154.210938 114.839844 154.210938 Z M 106.96875 151.183594 C 107.929688 151.976562 109.003906 152.988281 110.316406 153.015625 C 110.773438 153.023438 110.957031 152.546875 110.792969 152.175781 C 110.316406 151.082031 109.085938 150.414062 108.191406 149.679688 C 107.183594 148.855469 106.210938 147.988281 105.183594 147.1875 C 104.59375 146.726562 103.511719 147.328125 104.035156 148.074219 C 104.871094 149.25 105.855469 150.257812 106.96875 151.183594 Z M 215.730469 149.023438 C 214.335938 147.628906 213.226562 145.753906 212.933594 143.851562 C 212.335938 145.460938 210.984375 146.78125 209.433594 147.660156 C 211.164062 148.683594 212.519531 150.125 213.417969 151.867188 C 213.929688 150.714844 214.652344 149.71875 215.730469 149.023438 Z M 218.125 150.402344 C 215.445312 151.195312 215 154.019531 214.59375 156.382812 C 214.359375 157.746094 212.425781 157.28125 212.335938 156.078125 C 212.078125 152.570312 209.898438 149.765625 206.582031 148.609375 C 205.671875 148.292969 205.535156 146.878906 206.582031 146.625 C 209.738281 145.859375 210.679688 143.835938 212.105469 141.253906 C 212.351562 140.800781 212.875 140.910156 213.113281 141.246094 C 213.320312 140.582031 213.652344 139.945312 214.167969 139.355469 C 214.386719 139.101562 214.765625 139.320312 214.78125 139.609375 C 214.980469 143.074219 215.097656 146.316406 218.390625 148.355469 C 219.214844 148.863281 219.058594 150.125 218.125 150.402344 Z M 158.300781 129.382812 C 156.539062 128.378906 155.015625 126.855469 154.136719 125.070312 C 153.519531 126.984375 152.210938 128.628906 150.453125 129.761719 C 152.492188 130.523438 154.226562 131.824219 155.527344 133.558594 C 155.992188 131.855469 156.871094 130.359375 158.300781 129.382812 Z M 157.410156 137.453125 C 157.445312 138.808594 155.519531 138.972656 155.132812 137.765625 C 153.941406 134.039062 150.90625 131.515625 146.992188 131.140625 C 145.878906 131.03125 145.457031 129.308594 146.707031 129.054688 C 151.300781 128.105469 153.15625 124.386719 152.664062 119.953125 C 152.585938 119.253906 153.425781 119.109375 153.851562 119.480469 C 154.160156 119.21875 154.726562 119.230469 154.792969 119.71875 C 155.355469 123.78125 156.867188 127.285156 161.195312 128.382812 C 162.242188 128.652344 162.089844 130.03125 161.195312 130.359375 C 158.015625 131.53125 157.339844 134.4375 157.410156 137.453125 Z M 326.085938 191.390625 C 319.589844 181.21875 308.058594 176.929688 296.476562 175.828125 C 289.933594 175.207031 264.253906 177.453125 257.253906 185.367188 C 255.542969 187.304688 255.898438 192.398438 258.734375 194.488281 C 263.734375 198.171875 270.035156 196.988281 275.125 195.277344 C 290.121094 190.230469 310.011719 183.828125 324.660156 192.820312 C 325.535156 193.355469 326.648438 192.277344 326.085938 191.390625 Z M 203.15625 198.886719 C 200.136719 188.632812 190.3125 193.5625 182.328125 193.015625 C 166.035156 191.90625 165.585938 203.882812 166.050781 204.339844 C 172.988281 211.1875 174.050781 219.953125 174.574219 229.289062 C 174.613281 230.015625 175.207031 230.808594 176.019531 230.734375 C 181.574219 230.238281 187.109375 229.554688 192.609375 228.636719 C 195.289062 228.191406 197.96875 227.703125 200.632812 227.167969 C 202.203125 226.851562 204.183594 226.726562 205.503906 225.734375 C 208.582031 223.425781 206.769531 217.691406 206.339844 214.578125 C 205.613281 209.3125 204.660156 203.988281 203.15625 198.886719 Z M 203.789062 163.148438 C 197.664062 156.851562 189.429688 151.03125 180.609375 149.550781 C 175.640625 148.71875 170.054688 149.75 165.402344 151.609375 C 162.160156 152.910156 159.5625 155.390625 159.714844 159.082031 C 159.734375 159.539062 160.300781 159.617188 160.507812 159.324219 C 160.691406 159.476562 160.933594 159.578125 161.230469 159.59375 C 172.433594 160.230469 180.375 168.96875 187.621094 176.550781 C 190.421875 179.480469 193.550781 183.550781 197.363281 185.195312 C 200.949219 186.738281 203.496094 184.25 205.882812 181.773438 C 208.105469 179.460938 211.171875 176.542969 210.613281 173.03125 C 210.023438 169.304688 206.296875 165.730469 203.789062 163.148438 Z M 113.609375 201.445312 C 114.730469 204.476562 117.109375 209.925781 114.136719 212.570312 C 111.109375 215.261719 104.457031 217.839844 100.417969 217.734375 C 96.074219 217.625 92.089844 212.171875 89.449219 209.285156 C 85.378906 204.832031 81.773438 199.984375 77.933594 195.335938 C 75.511719 192.402344 73.140625 189.371094 68.863281 190.324219 C 65.722656 191.019531 63.207031 193.28125 60.859375 195.339844 C 59.503906 196.535156 56.472656 188.859375 56.90625 186.789062 C 57.246094 185.164062 58.839844 184.035156 60.085938 183.09375 C 64.84375 179.488281 70.878906 177.949219 76.753906 177.578125 C 82.425781 177.222656 88.929688 177.457031 94.242188 179.671875 C 98.8125 181.574219 102.835938 184.949219 106.054688 188.660156 C 109.324219 192.425781 111.886719 196.761719 113.609375 201.445312 " fill-opacity="1" fill-rule="nonzero"/><path fill="#f79f25" d="M 239.601562 142.972656 C 239.582031 144.453125 239.875 145.839844 240.253906 147.265625 C 240.582031 148.507812 240.917969 149.945312 241.898438 150.832031 C 242.285156 151.183594 242.8125 150.917969 242.863281 150.433594 C 242.996094 149.183594 242.402344 147.949219 242.03125 146.773438 C 241.613281 145.445312 241.28125 144.109375 240.757812 142.816406 C 240.519531 142.234375 239.609375 142.261719 239.601562 142.972656 Z M 243.40625 156.265625 C 243.460938 156.300781 243.515625 156.347656 243.574219 156.386719 C 244.335938 156.953125 245.464844 155.824219 244.898438 155.058594 C 244.859375 155.003906 244.816406 154.945312 244.773438 154.890625 C 244.398438 154.378906 243.691406 154.199219 243.203125 154.6875 C 242.71875 155.171875 242.894531 155.886719 243.40625 156.265625 Z M 237.410156 147.46875 C 236.515625 145.1875 235.847656 142.035156 237.582031 139.9375 C 241.585938 135.089844 245.894531 142.992188 247.382812 147.4375 C 249.699219 145.238281 252.246094 143.191406 255.496094 142.703125 C 257.324219 142.425781 260.714844 142.550781 261.351562 144.753906 C 262.167969 147.601562 257.332031 150.8125 255.675781 152.390625 C 252.1875 155.726562 248.578125 158.925781 244.769531 161.886719 C 244.066406 162.433594 242.765625 162.394531 242.5625 161.304688 C 241.621094 156.273438 239.242188 152.15625 237.410156 147.46875 Z M 104.035156 148.074219 C 104.871094 149.25 105.855469 150.257812 106.96875 151.183594 C 107.929688 151.976562 109.003906 152.988281 110.316406 153.015625 C 110.773438 153.023438 110.957031 152.546875 110.792969 152.175781 C 110.316406 151.082031 109.085938 150.414062 108.191406 149.679688 C 107.183594 148.855469 106.210938 147.988281 105.183594 147.1875 C 104.59375 146.726562 103.511719 147.328125 104.035156 148.074219 Z M 114.839844 156.585938 C 116.367188 156.585938 116.367188 154.210938 114.839844 154.210938 C 113.3125 154.210938 113.308594 156.585938 114.839844 156.585938 Z M 99.714844 145.886719 C 101.730469 140.09375 109.898438 146.234375 112.15625 148.433594 C 113.066406 145.644531 114.527344 143.089844 116.964844 141.300781 C 118.457031 140.203125 122.015625 138.257812 123.847656 139.632812 C 125.957031 141.214844 124.242188 146.015625 123.566406 147.847656 C 121.875 152.453125 119.425781 156.953125 117.054688 161.238281 C 116.667969 161.933594 115.738281 161.980469 115.1875 161.480469 C 111.710938 158.300781 107.835938 155.492188 104.15625 152.550781 C 102.332031 151.089844 98.695312 148.824219 99.714844 145.886719 Z M 175.023438 192.339844 C 174.410156 192.480469 174.4375 193.34375 174.925781 193.570312 C 175.003906 193.605469 175.089844 193.628906 175.199219 193.625 C 177.71875 193.519531 180.226562 193.25 182.738281 193.039062 C 184.484375 192.890625 186.238281 192.78125 187.996094 192.777344 C 188.4375 192.777344 188.878906 192.773438 189.324219 192.789062 C 191.761719 192.871094 194.289062 193.121094 196.644531 193.78125 C 199.128906 194.472656 199.789062 196.394531 201.671875 197.78125 C 202.039062 198.050781 202.566406 197.6875 202.558594 197.273438 C 202.558594 197.261719 202.554688 197.253906 202.554688 197.246094 C 202.429688 192.679688 197.453125 191.515625 193.785156 191.105469 C 187.644531 190.414062 181.046875 190.960938 175.023438 192.339844 Z M 302.457031 188.523438 C 301.414062 188.660156 300.382812 188.839844 299.378906 189.101562 C 298.746094 189.261719 298.882812 190.230469 299.53125 190.234375 C 303.882812 190.25 308.132812 189.863281 312.488281 190.324219 C 316.402344 190.738281 320.46875 192.496094 324.363281 192.671875 C 324.378906 192.671875 324.394531 192.671875 324.40625 192.671875 C 324.648438 192.679688 324.886719 192.6875 325.128906 192.683594 C 325.429688 192.679688 325.671875 192.25 325.398438 192.03125 C 322.363281 189.625 317.457031 189.203125 313.71875 188.730469 C 310.082031 188.269531 306.175781 188.046875 302.457031 188.523438 Z M 265.640625 195.757812 C 262.25 195.53125 259.070312 192.464844 256.546875 190.464844 C 256.492188 190.421875 256.433594 190.398438 256.371094 190.367188 C 255.78125 190.105469 255.011719 190.648438 255.417969 191.335938 C 255.433594 191.359375 255.445312 191.382812 255.460938 191.40625 C 259.011719 197.285156 267.34375 199.914062 273.367188 196.273438 C 273.550781 196.164062 273.636719 195.949219 273.628906 195.746094 C 273.621094 195.515625 273.492188 195.292969 273.230469 195.238281 C 270.621094 194.699219 268.246094 195.925781 265.640625 195.757812 Z M 192.289062 227.761719 C 189.046875 228.347656 185.722656 228.59375 182.519531 229.367188 C 182.152344 229.457031 182.082031 229.824219 182.21875 230.089844 C 182.300781 230.246094 182.449219 230.363281 182.65625 230.375 C 185.800781 230.523438 188.976562 229.980469 192.082031 229.492188 C 195.1875 229.003906 198.316406 228.589844 201.148438 227.160156 C 201.203125 227.132812 201.242188 227.09375 201.273438 227.050781 C 201.433594 226.820312 201.261719 226.433594 200.949219 226.433594 C 197.996094 226.433594 195.179688 227.242188 192.289062 227.761719 Z M 166.671875 204.09375 C 166.425781 203.894531 166.078125 204.035156 166.027344 204.292969 C 166.015625 204.347656 166.023438 204.40625 166.042969 204.46875 C 166.050781 204.5 166.054688 204.527344 166.070312 204.558594 C 168.054688 208.140625 170.457031 210.871094 171.496094 214.992188 C 172.28125 218.125 172.015625 221.621094 173.265625 224.589844 C 173.441406 225.007812 174.125 224.871094 174.21875 224.460938 C 174.988281 221.140625 173.855469 216.640625 172.882812 213.445312 C 171.746094 209.707031 169.726562 206.542969 166.671875 204.09375 Z M 203.265625 185.050781 C 205.636719 183.753906 207.90625 181.863281 208.707031 179.21875 C 208.757812 179.046875 208.667969 178.921875 208.539062 178.867188 C 208.429688 178.820312 208.285156 178.824219 208.179688 178.914062 C 206.238281 180.5 204.632812 182.347656 202.414062 183.589844 C 200.898438 184.4375 199.085938 184.664062 197.488281 185.238281 C 196.976562 185.421875 196.488281 185.636719 196.039062 185.921875 C 195.832031 186.050781 195.777344 186.429688 196.039062 186.542969 C 198.25 187.515625 201.28125 186.128906 203.265625 185.050781 Z M 159.027344 158.953125 C 159.65625 160.226562 160.492188 160.398438 161.792969 160.894531 C 164.300781 161.859375 166.753906 162.960938 169.132812 164.214844 C 171.234375 165.320312 173.265625 166.554688 175.21875 167.898438 C 177.15625 169.234375 178.894531 170.941406 181.066406 171.867188 C 181.472656 172.039062 181.996094 171.664062 181.722656 171.210938 C 179.695312 167.890625 175.445312 165.628906 172.167969 163.726562 C 170.113281 162.535156 167.992188 161.464844 165.804688 160.539062 C 165.292969 160.320312 164.667969 160.128906 164.015625 159.929688 C 162.566406 159.484375 160.976562 158.992188 160.160156 158.082031 C 160.039062 157.949219 159.90625 157.890625 159.769531 157.871094 C 159.308594 157.796875 158.863281 158.289062 158.984375 158.796875 C 158.996094 158.847656 159.003906 158.902344 159.027344 158.953125 Z M 57.941406 194.402344 C 58.554688 194.742188 59.15625 194.914062 59.757812 194.96875 C 60.300781 195.023438 60.839844 194.980469 61.382812 194.882812 C 62.679688 194.652344 63.984375 194.113281 65.328125 193.773438 C 69.519531 192.710938 74.386719 192.972656 77.753906 195.984375 C 81.519531 199.351562 82.988281 207.148438 88.179688 208.660156 C 88.386719 208.722656 88.589844 208.597656 88.675781 208.417969 C 88.734375 208.300781 88.742188 208.160156 88.660156 208.035156 C 86.9375 205.371094 84.820312 203.0625 83.167969 200.304688 C 81.777344 197.980469 80.300781 195.617188 78.097656 193.96875 C 77.253906 193.339844 76.34375 192.839844 75.386719 192.460938 C 73.804688 191.828125 72.09375 191.519531 70.367188 191.476562 C 68.214844 191.425781 66.042969 192.1875 63.898438 192.8125 C 62.175781 193.308594 60.476562 193.714844 58.8125 193.542969 C 58.652344 193.527344 58.492188 193.515625 58.328125 193.488281 C 57.828125 193.398438 57.460938 194.035156 57.882812 194.351562 C 57.90625 194.371094 57.917969 194.386719 57.941406 194.402344 Z M 138.78125 224.757812 C 138.792969 225.515625 138.871094 226.261719 139.164062 226.960938 C 139.257812 227.1875 139.476562 227.296875 139.675781 227.25 C 139.773438 227.226562 139.867188 227.167969 139.941406 227.0625 C 142.183594 223.792969 139.964844 217.125 136.003906 216.128906 C 135.15625 215.914062 134.230469 215.953125 133.25 216.347656 C 132.957031 216.46875 132.847656 216.722656 132.890625 216.949219 C 132.933594 217.15625 133.101562 217.339844 133.386719 217.375 C 134.253906 217.484375 135.046875 217.652344 135.746094 217.929688 C 136.167969 218.097656 136.558594 218.304688 136.90625 218.566406 C 137.644531 219.121094 138.210938 219.917969 138.546875 221.082031 C 138.894531 222.269531 138.757812 223.535156 138.78125 224.757812 Z M 241.070312 228.207031 C 239.296875 227.378906 239.121094 225.980469 238.261719 224.375 C 237.402344 222.777344 236.394531 221.367188 235.050781 220.15625 C 234.882812 220.003906 234.679688 219.964844 234.484375 219.996094 C 234.039062 220.058594 233.660156 220.511719 233.972656 220.984375 C 234.011719 221.042969 234.042969 221.109375 234.082031 221.167969 C 234.136719 221.253906 234.1875 221.34375 234.246094 221.429688 C 235.648438 223.714844 236.554688 226.109375 237.839844 228.433594 C 238.726562 230.039062 240.09375 229.984375 241.675781 230.75 C 242.371094 231.085938 242.933594 231.449219 243.398438 231.820312 C 245.652344 233.636719 245.433594 235.875 244.429688 238.226562 C 243.171875 241.1875 240.683594 244.320312 240.363281 247.003906 C 240.332031 247.265625 240.683594 247.433594 240.886719 247.300781 C 241.355469 247.003906 241.796875 246.636719 242.21875 246.222656 C 244.050781 244.402344 245.421875 241.625 246.292969 239.433594 C 247.210938 237.117188 247.566406 234.582031 246.402344 232.277344 C 245.230469 229.972656 243.230469 229.21875 241.070312 228.207031 Z M 204.785156 201.621094 C 204.792969 201.757812 204.867188 201.890625 205.054688 201.972656 C 208.867188 203.632812 212.738281 205.089844 216.351562 207.179688 C 218.210938 208.253906 220.019531 209.40625 221.699219 210.75 C 223.253906 211.988281 224.472656 213.730469 226.269531 214.566406 C 226.640625 214.738281 227.035156 214.496094 227.03125 214.109375 C 227.03125 214.070312 227.03125 214.03125 227.023438 213.984375 C 226.792969 212.914062 226.175781 211.914062 225.347656 210.996094 C 223.445312 208.886719 220.421875 207.199219 218.414062 206.015625 C 217.90625 205.714844 217.386719 205.417969 216.863281 205.132812 C 222.015625 203.90625 226.953125 201.546875 228.585938 196.480469 C 228.785156 195.871094 227.996094 195.5 227.566406 195.886719 C 224.476562 198.695312 221.679688 200.90625 217.558594 202.109375 C 215.988281 202.570312 214.382812 202.898438 212.765625 203.15625 C 210.40625 202.164062 207.957031 201.394531 205.453125 201.015625 C 205.09375 200.960938 204.769531 201.3125 204.785156 201.621094 Z M 141.171875 231.367188 C 141.28125 231.042969 141.410156 230.726562 141.53125 230.410156 C 142.308594 228.363281 143.3125 226.410156 144.496094 224.566406 C 146.820312 220.960938 149.824219 217.84375 153.097656 215.078125 C 153.582031 214.671875 154.070312 214.269531 154.570312 213.875 C 156.53125 212.316406 158.582031 210.878906 160.664062 209.492188 C 162.339844 208.375 164.097656 207.636719 165.074219 205.855469 C 165.203125 205.621094 165.125 205.320312 164.925781 205.171875 C 164.847656 205.113281 164.75 205.074219 164.636719 205.082031 C 164.492188 205.089844 164.347656 205.109375 164.207031 205.125 C 159.96875 204.546875 155.757812 203.765625 151.699219 202.8125 C 143.40625 200.867188 135.832031 196.792969 132.238281 188.707031 C 131.972656 188.101562 131.003906 188.53125 131.183594 189.152344 C 133.339844 196.53125 139.980469 201.132812 146.933594 203.582031 C 151.351562 205.132812 156.011719 205.921875 160.621094 206.710938 C 159.734375 207.3125 158.886719 207.984375 158.042969 208.570312 C 155.992188 209.984375 153.984375 211.464844 152.070312 213.054688 C 147.734375 216.652344 143.835938 220.890625 141.179688 225.890625 C 140.769531 226.660156 140.429688 227.433594 140.125 228.214844 C 139.519531 229.769531 139.050781 231.347656 138.472656 232.957031 C 138.292969 233.46875 138.050781 233.921875 137.78125 234.351562 C 136.875 235.773438 135.605469 236.882812 134.804688 238.5 C 133.464844 241.207031 133.207031 244.953125 135.050781 247.476562 C 135.207031 247.683594 135.367188 247.886719 135.546875 248.074219 C 135.640625 248.175781 135.824219 248.074219 135.785156 247.9375 C 135.316406 246.421875 134.886719 244.984375 134.839844 243.488281 C 134.816406 242.71875 134.886719 241.933594 135.125 241.113281 C 135.261719 240.621094 135.449219 240.199219 135.664062 239.824219 C 136.664062 238.078125 138.339844 237.402344 139.605469 235.6875 C 140.261719 234.808594 140.535156 233.6875 140.816406 232.605469 C 140.925781 232.183594 141.035156 231.761719 141.171875 231.367188 Z M 258.851562 187.101562 C 261.261719 189.382812 264.585938 191.691406 268.070312 191.070312 C 270.613281 190.617188 273.304688 189.136719 275.679688 188.1875 C 278.226562 187.171875 280.753906 186.097656 283.34375 185.210938 C 288.761719 183.355469 294.226562 182.683594 299.9375 182.710938 C 305.050781 182.742188 311.863281 183.15625 316.265625 185.921875 C 316.550781 186.097656 316.8125 185.648438 316.527344 185.46875 C 312.722656 183.078125 309.6875 181.519531 305.144531 181.082031 C 300.582031 180.640625 295.835938 180.894531 291.304688 181.519531 C 286.28125 182.214844 281.699219 183.8125 277.003906 185.679688 C 274.582031 186.644531 272.167969 187.625 269.765625 188.625 C 265.75 190.304688 262.785156 188.96875 259.757812 186.195312 C 259.148438 185.636719 258.246094 186.53125 258.851562 187.101562 Z M 335.957031 215.789062 C 330.824219 223.027344 324.136719 226.765625 315.667969 229.125 C 306.9375 231.550781 297.933594 232.945312 288.886719 233.410156 C 280.070312 233.863281 271.089844 233.472656 262.375 232.035156 C 253.472656 230.566406 245.003906 227.71875 239.621094 220.058594 C 239.117188 219.332031 238.050781 219.949219 238.4375 220.75 C 242.175781 228.472656 250.636719 232.136719 258.582031 233.871094 C 268.710938 236.078125 279.203125 236.773438 289.542969 236.203125 C 299.574219 235.648438 309.765625 233.933594 319.308594 230.734375 C 326.589844 228.292969 334.785156 224.167969 337.46875 216.429688 C 337.796875 215.484375 336.464844 215.074219 335.957031 215.789062 Z M 205.503906 221.421875 C 201.878906 220.207031 196.96875 221.796875 193.222656 222.25 C 189.03125 222.757812 184.839844 223.269531 180.652344 223.789062 C 180.070312 218.140625 179.855469 212.207031 178.386719 206.738281 C 177.445312 203.230469 175.324219 198.835938 171.554688 197.726562 C 170.980469 197.558594 170.613281 198.28125 170.992188 198.6875 C 174.191406 202.136719 176.140625 204.972656 176.953125 209.785156 C 177.796875 214.78125 178.160156 219.90625 178.6875 224.945312 C 178.742188 225.460938 179.121094 226.046875 179.726562 225.988281 C 184.457031 225.515625 189.179688 224.988281 193.898438 224.449219 C 197.539062 224.035156 202.464844 224.394531 205.628906 222.378906 C 206.015625 222.128906 205.933594 221.566406 205.503906 221.421875 Z M 237.027344 233.882812 C 236.386719 235.226562 236.277344 236.636719 235.773438 238.019531 C 234.894531 240.441406 233.027344 242.410156 231.027344 243.953125 C 227.570312 246.636719 223.398438 248.207031 219.1875 249.269531 C 210.664062 251.417969 201.390625 252.070312 192.640625 252.597656 C 183.515625 253.148438 174.371094 252.617188 165.394531 250.867188 C 161.222656 250.054688 157.101562 248.992188 153.058594 247.683594 C 148.207031 246.113281 141.464844 244.304688 141.796875 238.007812 C 141.847656 237.050781 140.398438 236.882812 140.152344 237.785156 C 137.613281 247.027344 152.660156 249.976562 158.609375 251.53125 C 169.476562 254.367188 180.757812 255.453125 191.964844 254.855469 C 202.484375 254.292969 214.136719 253.636719 224.238281 250.398438 C 228.320312 249.09375 232.417969 247.097656 235.4375 243.984375 C 237.808594 241.539062 240.625 237.195312 238.492188 233.882812 C 238.175781 233.390625 237.316406 233.277344 237.027344 233.882812 Z M 163.894531 155.71875 C 174.21875 158.933594 182.941406 163.527344 190.609375 171.3125 C 192.28125 173.007812 193.847656 174.800781 195.320312 176.671875 C 196.285156 177.898438 197.285156 179.390625 198.917969 179.765625 C 202.445312 180.574219 207.140625 175.820312 209.1875 173.496094 C 209.746094 172.863281 208.988281 171.667969 208.226562 172.242188 C 206.371094 173.640625 204.71875 175.8125 202.652344 176.835938 C 200.867188 177.71875 198.25 177.398438 196.78125 175.976562 C 196.039062 175.253906 195.398438 174.199219 194.730469 173.402344 C 192.085938 170.261719 189.148438 167.382812 185.902344 164.871094 C 179.652344 160.03125 171.953125 155.859375 164.011719 154.839844 C 163.496094 154.777344 163.433594 155.574219 163.894531 155.71875 Z M 60.40625 187.042969 C 65.835938 183.183594 73.871094 181.667969 79.597656 185.941406 C 84.761719 189.792969 89.023438 195.195312 92.261719 200.714844 C 93.90625 203.527344 95.308594 206.476562 96.433594 209.53125 C 96.9375 210.90625 97.195312 213 98.671875 213.730469 C 100.65625 214.707031 104.027344 213.328125 105.9375 212.773438 C 108.386719 212.0625 111.253906 211.277344 113.0625 209.402344 C 113.332031 209.125 113.160156 208.515625 112.714844 208.566406 C 109.660156 208.910156 106.742188 210.609375 103.730469 211.339844 C 103.035156 211.507812 102.164062 211.828125 101.445312 211.820312 C 99.859375 211.804688 99.296875 211.1875 98.671875 210.0625 C 98.023438 208.902344 97.699219 207.441406 97.167969 206.203125 C 94.644531 200.332031 91.136719 194.902344 86.835938 190.183594 C 83.128906 186.117188 79.011719 182.054688 73.25 181.679688 C 68.878906 181.394531 62.300781 182.363281 59.972656 186.609375 C 59.832031 186.867188 60.132812 187.234375 60.40625 187.042969 Z M 132.859375 229.867188 C 129.988281 233.648438 125.582031 236.246094 121.316406 238.136719 C 111.335938 242.570312 100.214844 245.476562 89.300781 246.054688 C 77.449219 246.679688 64.730469 244.613281 53.472656 240.917969 C 45.222656 238.207031 37.496094 232.265625 37.824219 222.851562 C 37.839844 222.34375 38.574219 222.351562 38.605469 222.851562 C 39.222656 233.230469 50.152344 237.53125 58.703125 239.691406 C 68.304688 242.121094 78.117188 243.765625 88.050781 243.449219 C 97.4375 243.148438 106.824219 240.902344 115.699219 237.902344 C 120.097656 236.414062 124.445312 234.433594 128.007812 231.402344 C 129.804688 229.875 131.464844 228.09375 132.359375 225.878906 C 133.101562 224.035156 132.910156 222.238281 133.226562 220.335938 C 133.289062 219.960938 133.753906 219.941406 133.988281 220.132812 C 137.050781 222.617188 134.765625 227.359375 132.859375 229.867188 " fill-opacity="1" fill-rule="nonzero"/><path fill="#ffffff" d="M 138.515625 202.949219 C 138.238281 201.941406 136.816406 202.378906 136.980469 203.371094 C 137.359375 205.609375 137.78125 207.820312 138.339844 210.019531 C 138.792969 211.8125 139.101562 213.636719 140.253906 215.117188 C 140.660156 215.640625 141.40625 215.15625 141.441406 214.625 C 141.578125 212.722656 140.738281 210.867188 140.230469 209.058594 C 139.65625 207.023438 139.070312 204.988281 138.515625 202.949219 Z M 273.730469 267.726562 C 271.265625 267.101562 268.722656 267.292969 266.257812 266.515625 C 263.445312 265.632812 260.902344 264.140625 258.660156 262.234375 C 254.613281 258.796875 251.851562 254.238281 249.1875 249.714844 C 248.804688 249.066406 247.652344 249.492188 247.933594 250.238281 C 250.085938 255.957031 253.375 261.425781 258.25 265.21875 C 262.175781 268.273438 269 271.632812 273.921875 269.179688 C 274.539062 268.871094 274.371094 267.886719 273.730469 267.726562 Z M 169.480469 284.738281 C 166.742188 284.292969 164.269531 284.394531 161.710938 283.046875 C 159.054688 281.648438 156.914062 279.367188 155.140625 276.980469 C 152.058594 272.820312 149.964844 268.164062 147.464844 263.664062 C 147.121094 263.042969 146.195312 263.472656 146.351562 264.132812 C 147.769531 270.210938 151.226562 276.484375 155.332031 281.15625 C 158.535156 284.796875 164.789062 288.9375 169.667969 286.195312 C 170.222656 285.882812 170.171875 284.851562 169.480469 284.738281 Z M 60.402344 265.660156 C 56.675781 263.785156 52.910156 262.710938 49.800781 259.742188 C 46.523438 256.609375 44.621094 252.609375 43.90625 248.167969 C 43.769531 247.316406 42.292969 247.503906 42.386719 248.375 C 43.3125 256.789062 50.386719 267.71875 60.113281 266.714844 C 60.621094 266.664062 60.953125 265.9375 60.402344 265.660156 Z M 325.988281 199.242188 C 325.492188 198.570312 324.378906 199.167969 324.84375 199.914062 C 327.03125 203.429688 328.960938 207.046875 327.746094 211.304688 C 326.78125 214.675781 324.242188 216.894531 322.910156 219.996094 C 322.667969 220.5625 323.21875 221.390625 323.863281 220.949219 C 326.976562 218.820312 329.210938 214.414062 329.835938 210.757812 C 330.605469 206.222656 328.597656 202.78125 325.988281 199.242188 Z M 277.902344 228.773438 C 276.886719 228.296875 275.796875 228.4375 274.695312 228.40625 C 273.277344 228.363281 271.925781 228.074219 270.582031 227.628906 C 269.433594 227.242188 269.007812 228.984375 270.089844 229.414062 C 272.230469 230.257812 276.039062 231.441406 278.03125 229.765625 C 278.324219 229.519531 278.253906 228.9375 277.902344 228.773438 Z M 258.605469 228.78125 C 259.269531 228.558594 259.453125 227.628906 258.800781 227.25 C 256.867188 226.121094 254.640625 225.734375 252.757812 224.449219 C 250.238281 222.722656 248.339844 220.132812 247.671875 217.132812 C 246.066406 209.933594 251.097656 203.464844 255.371094 198.300781 C 255.953125 197.597656 255.046875 196.648438 254.355469 197.285156 C 248.609375 202.578125 243 210.042969 245.027344 218.367188 C 246.289062 223.550781 252.617188 230.800781 258.605469 228.78125 Z M 151.109375 195.324219 C 150.332031 194.902344 149.667969 196.042969 150.417969 196.511719 C 152.46875 197.792969 155.851562 199.5625 158.273438 198.496094 C 158.632812 198.339844 158.582031 197.785156 158.273438 197.613281 C 157.25 197.046875 156.078125 197.058594 154.960938 196.808594 C 153.597656 196.5 152.332031 195.992188 151.109375 195.324219 Z M 142.125 185.550781 C 141.976562 182.90625 142.785156 180.394531 144.089844 178.117188 C 146.578125 173.78125 151.632812 168.53125 156.238281 166.492188 C 156.75 166.265625 156.386719 165.441406 155.863281 165.597656 C 149.640625 167.445312 143.152344 173.425781 140.652344 179.417969 C 138.871094 183.683594 138.707031 191.289062 143.691406 193.539062 C 144.449219 193.882812 145.308594 193.167969 144.867188 192.363281 C 143.617188 190.070312 142.273438 188.277344 142.125 185.550781 Z M 170.097656 246.226562 C 168.863281 245.542969 167.285156 245.761719 165.914062 245.617188 C 163.996094 245.40625 162.207031 244.878906 160.78125 243.515625 C 159.988281 242.757812 158.828125 243.921875 159.578125 244.71875 C 160.933594 246.148438 162.652344 246.988281 164.570312 247.402344 C 166.234375 247.761719 168.550781 248.191406 170.097656 247.316406 C 170.503906 247.089844 170.511719 246.457031 170.097656 246.226562 Z M 151.683594 240.640625 C 152.484375 240.695312 152.820312 239.644531 152.3125 239.113281 C 151.601562 238.371094 150.730469 237.925781 150 237.222656 C 148.519531 235.792969 148.367188 234.261719 148.652344 232.363281 C 149.066406 229.585938 150.125 226.929688 151.648438 224.574219 C 154.601562 219.988281 159.085938 216.746094 163.652344 213.90625 C 164.074219 213.648438 163.808594 212.933594 163.3125 213.089844 C 156.234375 215.320312 150.257812 220.289062 147.285156 227.199219 C 145.148438 232.171875 144.320312 240.148438 151.683594 240.640625 Z M 70.230469 235.644531 C 68.578125 235.335938 66.882812 235.511719 65.222656 235.25 C 63.179688 234.925781 61.328125 234.152344 59.59375 233.039062 C 58.734375 232.488281 57.984375 233.824219 58.800781 234.394531 C 61.832031 236.507812 66.78125 238.5 70.363281 236.660156 C 70.773438 236.453125 70.699219 235.730469 70.230469 235.644531 Z M 50.507812 231.222656 C 51.210938 231.3125 51.371094 230.398438 51.023438 229.976562 C 49.402344 227.984375 47.546875 226.617188 46.53125 224.152344 C 45.347656 221.277344 45.335938 218.136719 46.144531 215.152344 C 47.703125 209.40625 51.832031 204.980469 55.558594 200.53125 C 56.101562 199.882812 55.261719 199.007812 54.617188 199.59375 C 49.269531 204.4375 44.074219 210.320312 43.15625 217.777344 C 42.550781 222.726562 44.691406 230.464844 50.507812 231.222656 Z M 282.753906 177.613281 C 279.199219 177.675781 275.828125 178.71875 272.453125 179.777344 C 269.109375 180.828125 265.640625 181.882812 262.554688 183.558594 C 261.8125 183.960938 262.335938 185.035156 263.109375 184.871094 C 266.679688 184.109375 270.160156 182.753906 273.65625 181.707031 C 276.835938 180.757812 280.019531 180 282.996094 178.503906 C 283.425781 178.289062 283.214844 177.601562 282.753906 177.613281 Z M 198.449219 160.511719 C 194.597656 157.523438 190.421875 154.304688 186.019531 152.195312 C 185.425781 151.910156 184.738281 152.648438 185.277344 153.152344 C 188.261719 155.929688 191.808594 158.113281 195.070312 160.546875 C 198.636719 163.203125 201.480469 166.304688 204.746094 169.253906 C 205.03125 169.515625 205.535156 169.265625 205.417969 168.859375 C 204.382812 165.320312 201.265625 162.703125 198.449219 160.511719 Z M 198.828125 200.867188 C 199.523438 203.53125 200.382812 206.148438 201.015625 208.832031 C 201.640625 211.484375 201.824219 214.335938 202.828125 216.867188 C 203.089844 217.53125 203.972656 217.417969 204.050781 216.703125 C 204.601562 211.523438 202.246094 204.972656 200.0625 200.34375 C 199.730469 199.636719 198.640625 200.144531 198.828125 200.867188 Z M 104.597656 191.082031 C 106.695312 193.859375 109.433594 197.351562 109.890625 200.886719 C 109.949219 201.34375 109.28125 201.570312 108.996094 201.253906 C 106.726562 198.738281 105.484375 195.179688 103.492188 192.386719 C 101.078125 189 98.332031 185.933594 95.230469 183.164062 C 94.722656 182.710938 95.457031 182.019531 95.972656 182.429688 C 99.171875 184.972656 102.128906 187.808594 104.597656 191.082031 " fill-opacity="1" fill-rule="nonzero"/></svg>